<svg width="347" height="689" viewBox="0 0 347 689" fill="none" xmlns="http://www.w3.org/2000/svg">
<path fill-rule="evenodd" clip-rule="evenodd" d="M-424.577 175.284C-407.246 141.994 -384.13 115.001 -350.413 90.8554C-276.924 36.7363 -127.714 -11.9545 -40.1663 -32.1465C42.013 -50.7312 185.315 -73.567 265.999 -51.5603C265.999 -51.5603 352.187 -37.223 345.764 65.059C345.63 71.1209 345.495 77.1828 343.57 83.7805C338.362 131.505 328.189 162.652 310.724 202.003C283.22 266.439 225.027 352.108 183.061 400.803C117.98 476.49 47.7994 541.662 -40.4223 592.163C-42.2117 592.699 -42.2117 592.699 -42.2117 592.699C-135.937 650.87 -232.431 673.741 -232.431 673.741C-232.431 673.741 -241.378 676.42 -254.456 678.328C-258.035 679.4 -259.824 679.936 -261.614 680.471C-270.561 683.15 -278.27 683.452 -287.769 684.289C-416.756 702.838 -515.347 660.1 -517.075 498.036C-515.972 501.72 -507.246 322.475 -424.577 175.284Z" fill="#50B5E5"/>
</svg>
