<svg width="324" height="437" viewBox="0 0 324 437" fill="none" xmlns="http://www.w3.org/2000/svg">
<path fill-rule="evenodd" clip-rule="evenodd" d="M502.033 53.6592C537.156 66.8852 566.719 86.6076 594.723 117.196C657.241 183.688 723.422 326.006 753.937 410.511C782.214 489.879 822.019 629.423 809.817 712.159C809.817 712.159 805.888 799.442 703.572 805.295C697.537 805.886 691.502 806.477 684.722 805.356C636.717 805.89 604.577 799.514 563.42 786.879C496.158 767.277 404.146 719.744 350.783 683.902C267.857 628.336 194.762 566.452 134.075 484.901C133.329 483.188 133.329 483.188 133.329 483.188C64.3696 397.091 30.1255 304.023 30.1255 304.023C30.1255 304.023 26.396 295.46 22.9376 282.705C21.4458 279.279 20.6998 277.567 19.9539 275.854C16.2244 267.292 15.0037 259.674 13.0371 250.343C-20.8013 124.5 9.84277 21.5061 170.538 0.413143C167.012 1.94879 346.014 -10.8186 502.033 53.6592Z" fill="#50B5E5"/>
</svg>
