<svg width="20" height="12" viewBox="0 0 20 12" fill="none" xmlns="http://www.w3.org/2000/svg">
<path d="M10.832 5.16602C11.3265 5.16602 11.8098 5.01939 12.221 4.74469C12.6321 4.46999 12.9525 4.07954 13.1417 3.62273C13.3309 3.16591 13.3805 2.66324 13.284 2.17829C13.1875 1.69334 12.9494 1.24788 12.5998 0.89825C12.2502 0.548618 11.8047 0.310517 11.3198 0.214054C10.8348 0.11759 10.3321 0.167099 9.87532 0.356318C9.41851 0.545537 9.02806 0.865968 8.75336 1.27709C8.47865 1.68821 8.33203 2.17156 8.33203 2.66602C8.33203 3.32906 8.59542 3.96494 9.06426 4.43378C9.5331 4.90263 10.169 5.16602 10.832 5.16602ZM10.832 1.83268C10.9968 1.83268 11.158 1.88156 11.295 1.97313C11.432 2.06469 11.5389 2.19484 11.6019 2.34711C11.665 2.49939 11.6815 2.66694 11.6494 2.82859C11.6172 2.99024 11.5378 3.13873 11.4213 3.25527C11.3047 3.37182 11.1563 3.45118 10.9946 3.48334C10.833 3.51549 10.6654 3.49899 10.5131 3.43592C10.3609 3.37284 10.2307 3.26603 10.1391 3.12899C10.0476 2.99195 9.9987 2.83083 9.9987 2.66602C9.9987 2.445 10.0865 2.23304 10.2428 2.07676C10.3991 1.92048 10.611 1.83268 10.832 1.83268ZM14.257 5.04935C14.7446 4.35021 15.006 3.51836 15.006 2.66602C15.006 1.81367 14.7446 0.981824 14.257 0.282683C14.4967 0.205528 14.7469 0.166167 14.9987 0.166017C15.6617 0.166017 16.2976 0.429409 16.7665 0.89825C17.2353 1.36709 17.4987 2.00298 17.4987 2.66602C17.4987 3.32906 17.2353 3.96494 16.7665 4.43378C16.2976 4.90263 15.6617 5.16602 14.9987 5.16602C14.7469 5.16587 14.4967 5.12651 14.257 5.04935ZM10.832 6.83268C5.83203 6.83268 5.83203 10.166 5.83203 10.166V11.8327H15.832V10.166C15.832 10.166 15.832 6.83268 10.832 6.83268ZM7.4987 10.166C7.4987 9.92435 7.76536 8.49935 10.832 8.49935C13.7487 8.49935 14.1154 9.79935 14.1654 10.166M19.9987 10.166V11.8327H17.4987V10.166C17.4792 9.54655 17.3366 8.93717 17.079 8.37344C16.8215 7.80972 16.4542 7.30294 15.9987 6.88268C19.9987 7.29102 19.9987 10.166 19.9987 10.166ZM6.11536 3.43268L7.08203 4.60768L3.1237 8.56602L0.832031 6.06602L1.7987 5.09935L3.1237 6.41602L6.11536 3.43268Z" fill="white"/>
</svg>
