<svg width="37" height="22" viewBox="0 0 37 22" fill="none" xmlns="http://www.w3.org/2000/svg">
<path d="M9.37109 21.0819V18.7313C11.3969 16.6351 14.1016 16.4471 16.3711 18.7313V21.0819H9.37109Z" fill="#2F6D8A"/>
<circle cx="13" cy="14.5" r="2" fill="#2F6D8A"/>
<path d="M15.0902 14.7908C15.0902 15.7465 15.9701 16.5316 17.0689 16.5316C18.1678 16.5316 19.0477 15.7465 19.0477 14.7908C19.0477 13.8351 18.1678 13.05 17.0689 13.05C15.9701 13.05 15.0902 13.8351 15.0902 14.7908Z" fill="#2F6D8A" stroke="white" stroke-width="0.1"/>
<path d="M20 21V18.75C18.9051 17.6927 18.0275 17.3149 15.9421 17C17.5636 17.8504 17.7622 18.3093 17.7866 18.75V21H20Z" fill="#2F6D8A"/>
<ellipse cx="8.65328" cy="14.7908" rx="1.79" ry="1.79078" fill="#2F6D8A"/>
<path d="M5.96875 21V18.75C7.0533 17.6927 7.92257 17.3149 9.98829 17C8.38215 17.8504 8.18545 18.3093 8.16123 18.75V21H5.96875Z" fill="#2F6D8A"/>
<path d="M9.98602 5.85037C10.2537 2.82215 12.7902 0.5 15.8302 0.5H17.1499C19.6613 0.5 21.6972 2.53588 21.6972 5.04726C21.6972 7.49434 19.7606 9.5026 17.3151 9.59153L11.8605 9.78988C11.6156 9.79878 11.3958 9.94245 11.2893 10.1631L10.2993 12.2151C10.056 12.7194 9.29335 12.4314 9.44413 11.8922C9.45173 11.865 9.45681 11.8372 9.45929 11.809L9.98602 5.85037Z" fill="#527FB9"/>
<path d="M31.1115 14.9C30.9041 12.0395 28.5452 9.81275 25.6774 9.77025L24.4598 9.75221C22.0768 9.71689 20.1155 11.6201 20.0791 14.0031C20.0436 16.3247 21.8515 18.2574 24.1704 18.3767L29.1082 18.6306C29.4722 18.6493 29.8251 18.7627 30.1318 18.9595L30.6246 19.2758C30.7026 19.3258 30.7613 19.4006 30.7914 19.4882L31.199 20.6756C31.2593 20.851 31.5174 20.8146 31.5269 20.6294L31.1115 14.9Z" fill="#60D3C1"/>
</svg>
