<svg width="37" height="24" viewBox="0 0 37 24" fill="none" xmlns="http://www.w3.org/2000/svg">
<path d="M10.6928 23.4273C12.0431 23.1178 13.2654 22.5615 14.3599 21.7581C15.4549 20.955 16.3428 20.0214 17.0235 18.9574C17.7048 17.8937 18.1465 16.7502 18.3487 15.5269C18.5514 14.3038 18.4424 13.1209 18.0218 11.9781C17.9631 11.8186 17.8514 11.7001 17.6867 11.6226C17.522 11.545 17.3454 11.5279 17.157 11.571L14.6135 12.1539C14.4669 12.1875 14.3508 12.2573 14.265 12.3634C14.1792 12.4696 14.1487 12.587 14.1734 12.7158L14.4499 14.6698C14.4746 14.7987 14.5186 14.911 14.582 15.0067C14.646 15.1027 14.7397 15.1798 14.8633 15.2379L16.8498 16.1949C16.645 16.9335 16.3155 17.6574 15.8615 18.3666C15.4075 19.0759 14.8577 19.7254 14.2122 20.3152L12.2766 19.4043C12.1531 19.3461 12.008 19.3144 11.8412 19.3092C11.6751 19.3043 11.522 19.3274 11.382 19.3787L9.35222 20.2473C9.21546 20.3075 9.11707 20.3948 9.05704 20.5092C8.99714 20.624 8.99001 20.7434 9.03565 20.8674L9.82797 23.0202C9.88666 23.1797 9.99837 23.2982 10.1631 23.3757C10.3278 23.4533 10.5044 23.4704 10.6928 23.4273Z" fill="#2F6D8A"/>
<path d="M10.447 5.77029C10.7146 2.74207 13.2511 0.419922 16.2911 0.419922H17.6108C20.1222 0.419922 22.1581 2.4558 22.1581 4.96719C22.1581 7.41426 20.2215 9.42252 17.7761 9.51145L12.3214 9.7098C12.0765 9.7187 11.8567 9.86237 11.7502 10.0831L10.7602 12.135C10.5169 12.6394 9.75429 12.3514 9.90507 11.8121C9.91267 11.7849 9.91774 11.7571 9.92023 11.729L10.447 5.77029Z" fill="#527FB9"/>
<path d="M30.5724 13.818C30.365 10.9575 28.0061 8.73072 25.1383 8.68822L23.9208 8.67018C21.5377 8.63486 19.5764 10.5381 19.54 12.9211C19.5046 15.2427 21.3125 17.1754 23.6313 17.2946L28.5691 17.5486C28.9332 17.5673 29.286 17.6807 29.5928 17.8775L30.0856 18.1937C30.1635 18.2437 30.2223 18.3186 30.2524 18.4062L30.66 19.5936C30.7202 19.769 30.9783 19.7326 30.9879 19.5473L30.5724 13.818Z" fill="#60D3C1"/>
</svg>
