<svg width="444" height="434" viewBox="0 0 444 434" fill="none" xmlns="http://www.w3.org/2000/svg">
<path d="M221.574 433.56C343.945 433.56 443.147 375.784 443.147 304.514C443.147 233.243 343.945 175.467 221.574 175.467C99.2019 175.467 0 233.243 0 304.514C0 375.784 99.2019 433.56 221.574 433.56Z" fill="#F5F5F5"/>
<path d="M346.51 359.702C382.061 359.702 410.881 343.062 410.881 322.535C410.881 302.009 382.061 285.369 346.51 285.369C310.958 285.369 282.138 302.009 282.138 322.535C282.138 343.062 310.958 359.702 346.51 359.702Z" fill="#E6E6E6"/>
<path d="M221.574 371.924C261.723 371.924 294.27 353.136 294.27 329.959C294.27 306.782 261.723 287.994 221.574 287.994C181.425 287.994 148.878 306.782 148.878 329.959C148.878 353.136 181.425 371.924 221.574 371.924Z" fill="#E6E6E6"/>
<path d="M94.4568 359.702C130.008 359.702 158.829 343.062 158.829 322.535C158.829 302.009 130.008 285.369 94.4568 285.369C58.9052 285.369 30.085 302.009 30.085 322.535C30.085 343.062 58.9052 359.702 94.4568 359.702Z" fill="#E6E6E6"/>
<path d="M68.8256 273.459C69.6035 264.589 64.7847 245.648 56.6018 233.313C48.4189 220.978 34.6798 211.29 24.0825 213.906C14.2126 216.341 14.152 228.999 25.0321 238.344C35.9123 247.688 52.4801 259.68 56.3492 274.53L65.5221 293.128L68.8256 273.459Z" fill="#50B5E5"/>
<path opacity="0.1" d="M68.8256 273.459C69.6035 264.589 64.7847 245.648 56.6018 233.313C48.4189 220.978 34.6798 211.29 24.0825 213.906C14.2126 216.341 14.152 228.999 25.0321 238.344C35.9123 247.688 52.4801 259.68 56.3492 274.53L65.5221 293.128L68.8256 273.459Z" fill="black"/>
<path d="M68.4121 285.662C68.2726 285.637 68.1451 285.567 68.0486 285.463C67.9521 285.36 67.8918 285.227 67.8766 285.086C64.5934 254.274 42.2572 227.503 28.0635 220.775C27.9862 220.739 27.9169 220.687 27.8597 220.623C27.8026 220.559 27.7586 220.485 27.7304 220.404C27.7022 220.323 27.6904 220.238 27.6955 220.152C27.7007 220.067 27.7227 219.983 27.7604 219.906C27.7996 219.833 27.853 219.768 27.9176 219.715C27.9822 219.662 28.0567 219.623 28.1367 219.6C28.2167 219.576 28.3005 219.569 28.3834 219.578C28.4662 219.587 28.5464 219.613 28.6191 219.654C43.0856 226.503 65.836 253.719 69.1697 285.006C69.1795 285.09 69.1723 285.176 69.1485 285.257C69.1246 285.339 69.0847 285.415 69.031 285.481C68.9774 285.547 68.911 285.601 68.8359 285.641C68.7609 285.681 68.6786 285.705 68.5939 285.713C68.5308 285.707 68.4693 285.69 68.4121 285.662Z" fill="white"/>
<path d="M62.1988 304.654C61.1886 299.543 55.8344 290.774 46.5807 283.106C36.337 274.63 22.8504 269.973 20.1834 263.831C16.981 256.456 23.4969 250.334 34.5691 252.718C45.6412 255.103 63.9768 272.085 65.1184 295.36L62.1988 304.654Z" fill="#50B5E5"/>
<path d="M64.8249 299.615C64.7003 299.592 64.5848 299.535 64.4918 299.449C64.3987 299.363 64.3321 299.252 64.2996 299.13C57.2886 272.369 38.2862 261.519 29.2244 259.529C29.132 259.52 29.0427 259.491 28.9622 259.445C28.8817 259.398 28.8119 259.336 28.7575 259.26C28.7031 259.185 28.6652 259.099 28.6464 259.008C28.6276 258.917 28.6283 258.824 28.6484 258.733C28.6686 258.642 28.7077 258.557 28.7633 258.483C28.8188 258.408 28.8895 258.346 28.9706 258.301C29.0518 258.256 29.1416 258.229 29.2341 258.221C29.3266 258.213 29.4197 258.225 29.5073 258.256C39.5288 260.458 58.3998 271.48 65.5624 298.807C65.5861 298.911 65.5841 299.02 65.5566 299.124C65.5292 299.228 65.477 299.324 65.4046 299.403C65.3322 299.482 65.2416 299.543 65.1407 299.58C65.0398 299.617 64.9314 299.629 64.8249 299.615Z" fill="white"/>
<path d="M364.822 285.377C364.004 276.053 369.358 246.049 377.955 233.098C386.552 220.147 402.13 207.064 413.263 209.812C423.628 212.378 423.699 225.673 412.253 235.492C400.807 245.312 383.421 257.919 379.38 273.507L369.278 299.874L364.822 285.377Z" fill="#50B5E5"/>
<path opacity="0.1" d="M364.822 285.377C364.004 276.053 369.358 246.049 377.955 233.098C386.552 220.147 402.13 207.064 413.263 209.812C423.628 212.378 423.699 225.673 412.253 235.492C400.807 245.312 383.421 257.919 379.38 273.507L369.278 299.874L364.822 285.377Z" fill="black"/>
<path d="M366.702 285.217C366.848 285.19 366.982 285.116 367.084 285.007C367.186 284.898 367.25 284.759 367.267 284.611C370.712 252.233 394.19 224.108 409.091 217.036C409.172 216.999 409.245 216.945 409.306 216.878C409.366 216.812 409.413 216.734 409.443 216.65C409.473 216.565 409.486 216.475 409.481 216.385C409.476 216.296 409.453 216.208 409.414 216.127C409.377 216.045 409.324 215.971 409.258 215.91C409.192 215.848 409.114 215.801 409.029 215.771C408.944 215.741 408.853 215.728 408.763 215.734C408.673 215.739 408.585 215.763 408.505 215.804C393.351 223.007 369.399 251.596 365.903 284.5C365.894 284.589 365.902 284.679 365.927 284.764C365.952 284.85 365.994 284.93 366.051 285C366.107 285.069 366.176 285.127 366.255 285.169C366.334 285.212 366.421 285.238 366.51 285.247C366.575 285.247 366.64 285.237 366.702 285.217Z" fill="white"/>
<path d="M373.237 305.167C374.247 299.792 378.591 290.67 387.694 281.931C398.806 271.213 416.616 265.98 419.425 259.535C422.789 251.796 416.455 246.018 404.918 248.968C389.421 252.928 371.348 270.97 370.166 295.438L373.237 305.167Z" fill="#50B5E5"/>
<path d="M370.47 299.864C370.6 299.843 370.722 299.786 370.82 299.698C370.919 299.61 370.99 299.496 371.025 299.369C378.39 271.244 402.231 257.232 411.758 255.141C411.846 255.122 411.93 255.085 412.004 255.034C412.078 254.982 412.141 254.917 412.19 254.841C412.239 254.765 412.272 254.68 412.288 254.591C412.304 254.502 412.302 254.411 412.283 254.323C412.265 254.234 412.229 254.149 412.178 254.074C412.127 253.999 412.061 253.936 411.985 253.887C411.909 253.838 411.823 253.804 411.734 253.789C411.645 253.774 411.553 253.776 411.465 253.797C400.928 256.121 377.218 270.314 369.702 299.015C369.677 299.102 369.671 299.193 369.682 299.282C369.693 299.372 369.722 299.458 369.768 299.536C369.813 299.615 369.873 299.683 369.945 299.737C370.017 299.792 370.099 299.831 370.187 299.854C370.279 299.877 370.376 299.88 370.47 299.864Z" fill="white"/>
<path d="M377.253 103.528C371.02 97.1027 360.665 82.121 360.665 82.121L354.28 60.0374C354.129 60.098 357.533 60.1081 358.564 60.0374C365.464 60.5021 367.494 61.0476 371.788 65.7856C375.192 69.5133 387.79 89.1017 392.315 95.0822L404.701 77.9689C407.57 73.6249 407.105 68.7657 408.6 65.2097C410.095 61.6537 412.5 60.098 414.429 56.8955C416.359 53.6931 416.824 51.5918 418.41 53.2284C419.996 54.865 418.167 59.2898 417.925 60.3C417.682 61.3103 415.278 64.3409 419.309 62.7448C423.34 61.1486 429.583 53.7941 431.199 52.2889C432.816 50.7837 433.654 53.1173 433.29 54.966C432.927 56.8147 434.664 61.0274 434.028 64.0581C433.361 67.3009 432.886 68.7859 429.765 71.9278C426.845 74.8675 419.723 78.4639 416.935 82.3129C414.146 86.1619 408.196 98.123 404.559 105.336C399.933 114.499 394.861 119.712 388.881 114.59C384.294 110.599 379.566 105.912 377.253 103.528Z" fill="#FFBDA7"/>
<path d="M361.312 59.8633C366.595 60.3482 369.393 61.5504 374.667 68.4603C379.94 75.3703 392.184 93.5645 392.184 93.5645L402.761 80.6235C402.761 80.6235 410.045 86.1696 413.874 92.6553C413.874 92.6553 403.64 109.829 399.539 114.163C395.437 118.497 392.265 118.84 386.688 114.163C381.112 109.486 365.029 91.7461 365.029 91.7461L361.312 59.8633Z" fill="#F0F0F0"/>
<path d="M392.185 93.5671C389.791 97.0322 388.245 102.659 388.669 105.498C388.669 105.498 385.336 101.659 390.942 91.7285L392.185 93.5671Z" fill="#E0E0E0"/>
<path d="M314.7 317.545H326.712L329.106 296.279H314.7V317.545Z" fill="#FFBDA7"/>
<path d="M354.381 295.672L367.181 296.097L366.948 274.084L352.472 273.801L354.381 295.672Z" fill="#FFBDA7"/>
<path d="M314.831 146.614C314.598 158.272 312.123 235.423 312.123 235.423C311.268 241.728 310.759 248.075 310.598 254.436C310.275 269.852 313.507 306.442 313.507 306.442C314.225 309.766 326.64 311.12 328.287 308.119C328.287 308.119 335.076 255.042 337.005 239.787C338.682 226.472 344.228 182.932 344.228 182.932L348.512 225.715C348.348 230.701 348.466 235.693 348.865 240.666C349.36 247.738 352.906 289.349 352.906 289.349C352.967 291.945 365.878 294.087 368.06 290.268C368.06 290.268 372.101 229.493 372.272 223.017C372.414 215.633 371.383 145.775 371.383 145.775L314.831 146.614Z" fill="#37474F"/>
<path d="M327.397 311.431L327.599 309.623C328.266 309.623 328.559 310.37 328.831 311.967C329.396 315.371 330.469 318.67 332.014 321.756C334.034 325.948 335.246 327.696 339.267 332.747C340.217 333.949 342.369 335.859 343.126 337.192C343.884 338.526 344.136 342.243 342.864 343.102C338.176 346.223 331.054 346.314 326.013 344.839C324.102 344.375 322.378 343.339 321.072 341.87C319.765 340.401 318.937 338.568 318.699 336.616C317.881 332.03 317.446 329.191 315.113 325.726C314.254 324.453 312.87 323.423 312.294 322.008C311.284 319.452 312.082 316.583 312.749 314.038C313.324 311.845 313.951 309.431 314.698 309.633V310.987C315.597 311.997 318.739 313.007 321.568 313.088C323.386 313.159 327.417 312.825 327.397 311.431Z" fill="#263238"/>
<path d="M367.139 292.621C367.452 292.833 368.149 293.631 369.473 294.863C370.791 296.009 372.174 297.079 373.615 298.066C376.545 300.211 379.624 302.146 382.828 303.855C386.637 305.946 390.071 307.219 394.628 309.269C395.106 309.462 395.539 309.751 395.9 310.118C396.176 310.443 396.367 310.832 396.456 311.249C396.589 312.11 396.481 312.99 396.144 313.792C395.807 314.595 395.254 315.288 394.547 315.795C393.119 316.793 391.498 317.481 389.789 317.816C385.923 318.901 381.851 319.022 377.928 318.169C374.539 317.209 371.321 315.723 368.392 313.765C365.952 312.035 363.174 310.84 360.239 310.259C357.683 309.896 354.542 310.017 352.319 308.491C349.864 306.794 350.844 303.168 351.541 300.046C352.299 296.652 352.471 291.459 354.016 291.57L354.138 292.934C354.279 294.399 357.835 295.076 360.583 295.076C362.866 295.076 367.18 294.48 367.159 293.409L367.139 292.621Z" fill="#263238"/>
<path d="M345.541 166.607C350.441 164.71 354.907 161.844 358.674 158.182C358.674 158.182 356.583 164.243 348.006 169.294L348.572 222.533L344.248 182.912L345.541 166.607Z" fill="#263238"/>
<path d="M334.187 58.5619C332.015 59.0771 325.095 60.946 319.478 62.9261C316.646 64.0074 314.189 65.8887 312.406 68.3409C308.366 74.2912 312.002 87.5353 315.003 112.427C314.781 128.51 314.316 148.513 314.316 148.513C321.711 153.897 356.21 157.554 371.778 146.189C371.778 146.189 372.293 85.828 371.262 77.9785C369.242 62.9463 363.413 58.9357 351.27 58.2285L334.187 58.5619Z" fill="#50B5E5"/>
<path opacity="0.6" d="M334.187 58.5619C332.015 59.0771 325.095 60.946 319.478 62.9261C316.646 64.0074 314.189 65.8887 312.406 68.3409C308.366 74.2912 312.002 87.5353 315.003 112.427C314.781 128.51 314.316 148.513 314.316 148.513C321.711 153.897 356.21 157.554 371.778 146.189C371.778 146.189 372.293 85.828 371.262 77.9785C369.242 62.9463 363.413 58.9357 351.27 58.2285L334.187 58.5619Z" fill="white"/>
<path d="M355.391 76.1996C356.482 79.9576 362.937 106.365 362.028 115.659C361.335 120.429 360.045 125.092 358.189 129.54C355.391 136.157 353.522 130.237 351.966 126.327C350.65 122.682 349.768 118.894 349.34 115.043C348.824 110.052 350.835 94.8888 350.057 77.1088C350.644 76.2815 351.536 75.721 352.536 75.5505C353.536 75.3801 354.563 75.6135 355.391 76.1996Z" fill="#50B5E5"/>
<path opacity="0.2" d="M355.391 76.1996C356.482 79.9576 362.937 106.365 362.028 115.659C361.335 120.429 360.045 125.092 358.189 129.54C355.391 136.157 353.522 130.237 351.966 126.327C350.65 122.682 349.768 118.894 349.34 115.043C348.824 110.052 350.835 94.8888 350.057 77.1088C350.644 76.2815 351.536 75.721 352.536 75.5505C353.536 75.3801 354.563 75.6135 355.391 76.1996Z" fill="black"/>
<path d="M355.633 67.7141C358.189 69.8962 355.391 76.1899 355.391 76.1899C353.562 75.7958 351.652 76.1214 350.057 77.0991C350.057 77.0991 345.006 74.9271 344.955 71.1489C344.955 67.7141 348.602 68.8153 351.198 68.3607C353.916 67.8858 355.33 65.8755 355.633 67.7141Z" fill="#50B5E5"/>
<path opacity="0.2" d="M355.633 67.7141C358.189 69.8962 355.391 76.1899 355.391 76.1899C353.562 75.7958 351.652 76.1214 350.057 77.0991C350.057 77.0991 345.006 74.9271 344.955 71.1489C344.955 67.7141 348.602 68.8153 351.198 68.3607C353.916 67.8858 355.33 65.8755 355.633 67.7141Z" fill="black"/>
<path opacity="0.2" d="M355.391 76.1993C354.977 74.7244 352.967 74.8658 351.35 74.3607C350.444 74.0014 349.686 73.3463 349.198 72.5019C348.37 71.0774 349.198 68.7135 350.35 68.4609C347.875 68.6327 344.935 68.067 344.945 71.1482C344.945 74.9264 350.047 77.0984 350.047 77.0984C351.646 76.1215 353.56 75.7994 355.391 76.1993Z" fill="black"/>
<path d="M337.822 23.6699C337.911 26.7741 338.917 29.7825 340.713 32.3155C342.51 34.8485 345.017 36.7925 347.917 37.9023C350.818 39.0121 353.982 39.2379 357.01 38.5512C360.039 37.8645 362.796 36.2961 364.935 34.0439C367.073 31.7918 368.496 28.9567 369.024 25.8965C369.553 22.8364 369.163 19.6882 367.904 16.8493C366.646 14.0104 364.574 11.6079 361.951 9.94512C359.328 8.28232 356.272 7.43367 353.167 7.50625C351.097 7.55465 349.056 8.01176 347.163 8.8513C345.269 9.69085 343.561 10.8963 342.135 12.3983C340.709 13.9003 339.594 15.6694 338.853 17.6037C338.113 19.5381 337.763 21.5996 337.822 23.6699Z" fill="#455A64"/>
<path d="M326.64 35.084C326.64 35.084 329.478 46.9845 330.539 48.9241C331.242 50.119 332.378 50.9979 333.711 51.379L333.337 42.9638L326.64 35.084Z" fill="#455A64"/>
<path d="M329.428 17.8602C328.54 17.7826 327.645 17.9078 326.812 18.2263C325.979 18.5448 325.229 19.0483 324.619 19.6988C322.599 21.891 323.902 28.5687 326.64 35.0846L331.448 35.519L329.428 17.8602Z" fill="#455A64"/>
<path d="M332.894 35.4887C331.944 36.0847 330.53 34.2663 329.307 33.054C328.085 31.8418 324.186 30.2456 322.347 34.3572C320.508 38.4689 324.287 43.9443 327.398 44.8333C332.692 46.3588 333.399 42.9644 333.399 42.9644L334.298 64.4217C338.046 68.998 346.865 69.2506 351.239 68.3616C354.735 67.6544 354.785 65.1793 351.34 61.3809L351.179 55.2286C353.522 55.5492 355.893 55.6169 358.25 55.4306C362.099 54.7336 364.473 51.6322 365.534 47.4195C367.151 40.9843 367.555 33.8016 365.928 22.0425C363.908 7.58617 346.986 7.89934 338.026 13.789C329.065 19.6786 332.894 35.4887 332.894 35.4887Z" fill="#FFBDA7"/>
<path d="M332.934 37.1045C332.449 37.1045 330.53 34.0738 329.308 33.0636C327.62 31.5987 329.429 17.9101 329.429 17.9101C328.834 16.7171 328.612 15.3727 328.793 14.0519C328.973 12.7312 329.546 11.4953 330.439 10.5051C332.651 7.94927 335.743 4.81755 346.087 5.78737C353.462 6.48443 361.524 8.58571 367.908 5.25195C368.559 7.34673 368.569 9.58801 367.937 11.6885C367.305 13.7889 366.06 15.6529 364.362 17.0413C364.362 17.0413 362.049 18.6072 355.917 19.4962C349.785 20.3852 340.167 19.7285 338.854 19.5871C337.066 19.3851 336.723 21.1227 335.874 25.8707C335.086 29.9925 334.561 37.0338 332.934 37.1045Z" fill="#455A64"/>
<path d="M329.468 18.9305L323.568 15.8998C323.745 15.503 324 15.1461 324.319 14.851C324.637 14.5559 325.012 14.3287 325.422 14.1832C325.831 14.0377 326.265 13.9769 326.699 14.0045C327.132 14.0322 327.555 14.1477 327.943 14.3441C328.742 14.7611 329.349 15.4728 329.633 16.3286C329.918 17.1845 329.859 18.1175 329.468 18.9305Z" fill="#455A64"/>
<path d="M351.138 55.2279C351.138 55.2279 342.47 53.7024 339.419 52.1972C337.622 51.3125 336.136 49.9035 335.156 48.1562C335.654 49.9095 336.499 51.5448 337.641 52.9649C339.914 55.733 351.199 57.713 351.199 57.713L351.138 55.2279Z" fill="#F0997A"/>
<path d="M348.238 33.3755C348.206 33.7122 348.076 34.0321 347.864 34.2955C347.652 34.5589 347.367 34.7543 347.045 34.8573C346.723 34.9603 346.377 34.9665 346.052 34.8751C345.726 34.7836 345.434 34.5986 345.213 34.343C344.991 34.0874 344.85 33.7723 344.806 33.437C344.762 33.1016 344.817 32.7607 344.965 32.4565C345.113 32.1524 345.347 31.8983 345.638 31.7258C345.929 31.5533 346.264 31.4701 346.602 31.4864C347.069 31.52 347.504 31.7379 347.811 32.0921C348.118 32.4464 348.272 32.908 348.238 33.3755Z" fill="#263238"/>
<path d="M347.118 26.8721L343.319 28.7209C343.08 28.2008 343.051 27.6081 343.239 27.0674C343.428 26.5267 343.818 26.0801 344.329 25.8215C344.579 25.6949 344.853 25.6217 345.133 25.6065C345.412 25.5913 345.692 25.6345 345.955 25.7333C346.217 25.8321 346.456 25.9844 346.656 26.1804C346.856 26.3765 347.013 26.612 347.118 26.8721Z" fill="#263238"/>
<path d="M349.229 45.0156L354.623 46.4906C354.538 46.8471 354.383 47.183 354.167 47.4785C353.95 47.7741 353.676 48.0234 353.362 48.2116C353.048 48.3999 352.699 48.5234 352.336 48.5748C351.973 48.6262 351.604 48.6045 351.249 48.511C350.53 48.2965 349.92 47.8149 349.544 47.165C349.168 46.5151 349.056 45.7461 349.229 45.0156Z" fill="#F0997A"/>
<path d="M365.028 28.4766L360.987 27.0926C361.057 26.8213 361.182 26.5675 361.355 26.3472C361.528 26.1269 361.745 25.9449 361.992 25.8129C362.239 25.6808 362.511 25.6016 362.79 25.5801C363.069 25.5587 363.35 25.5956 363.614 25.6884C364.168 25.8754 364.626 26.2723 364.891 26.7936C365.155 27.3149 365.204 27.9192 365.028 28.4766Z" fill="#263238"/>
<path d="M363.008 32.892C363.033 33.1215 363.013 33.3538 362.949 33.5755C362.884 33.7972 362.777 34.004 362.632 34.1841C362.488 34.3643 362.309 34.5142 362.107 34.6253C361.904 34.7364 361.682 34.8065 361.452 34.8317C360.986 34.8623 360.525 34.7077 360.172 34.4013C359.818 34.095 359.6 33.6616 359.563 33.1951C359.543 32.9689 359.568 32.741 359.636 32.5244C359.705 32.3078 359.815 32.1068 359.961 31.9328C360.106 31.7587 360.285 31.6152 360.487 31.5102C360.688 31.4053 360.908 31.341 361.134 31.3211C361.36 31.3012 361.588 31.3261 361.805 31.3942C362.021 31.4624 362.223 31.5726 362.397 31.7184C362.571 31.8643 362.714 32.043 362.819 32.2444C362.924 32.4458 362.988 32.6658 363.008 32.892Z" fill="#263238"/>
<path d="M353.684 31.9121L354.31 42.3074L359.725 40.4283L353.684 31.9121Z" fill="#F0997A"/>
<path d="M351.198 68.3599C346.4 67.3496 335.035 62.9147 333.964 57.3686L333.823 54.3379C331.954 54.3379 331.105 56.4089 330.186 59.389C329.802 67.2284 338.076 74.3909 346.349 76.3205C346.627 74.5028 347.248 72.7544 348.178 71.1683C348.883 69.9528 349.935 68.9751 351.198 68.3599Z" fill="#50B5E5"/>
<path d="M351.157 55.9961C352.424 56.3845 353.576 57.0783 354.511 58.0166C360.724 64.4517 357.178 72.8871 357.178 72.8871C356.857 71.4844 356.057 70.2375 354.915 69.3614C353.823 68.6196 352.515 68.264 351.198 68.3512C352.723 66.7247 352.127 63.886 351.299 61.3705L351.157 55.9961Z" fill="#50B5E5"/>
<path d="M369.221 28.1943L368.382 28.1135C365.577 27.7723 362.736 27.8609 359.957 28.3762C357.25 29.1136 356.27 29.9319 354.785 29.9521C353.3 29.9723 352.219 29.1338 349.39 28.4065C346.422 27.9083 343.398 27.8368 340.409 28.1943L339.5 28.2953L326.64 31.7503C327.745 31.9247 328.761 32.4613 329.529 33.2758L338.904 30.7401C339.035 30.9219 339.166 31.0836 339.257 31.1947C339.387 31.3845 339.479 31.597 339.53 31.821C339.709 33.275 340.024 34.709 340.47 36.1044C340.734 36.6801 341.104 37.2011 341.561 37.64C341.736 37.8078 341.925 37.9599 342.126 38.0946L342.46 38.2966C342.782 38.4707 343.12 38.6128 343.47 38.7209L343.642 38.7714L343.904 38.8421L344.187 38.9028C344.481 38.9614 344.778 39.0019 345.076 39.024H345.45H345.925C349.622 39.024 351.219 37.448 352.198 35.8215C353.178 34.1951 353.027 31.9019 354.724 31.9019H354.886H355.037C356.29 32.1544 356.047 34.2658 356.795 35.771C357.077 36.4052 357.47 36.9835 357.957 37.4783L358.23 37.7309L358.381 37.8521L358.543 37.9733L358.684 38.0643L358.836 38.1653L358.957 38.236H359.048C359.505 38.4793 359.995 38.6562 360.503 38.7613H360.634C361.223 38.8767 361.822 38.9308 362.422 38.923C365.877 38.923 367.14 37.0742 367.746 35.8923C368.276 34.4997 368.682 33.0629 368.958 31.5988C369.022 31.384 369.141 31.1892 369.302 31.0331C369.733 30.6038 370.025 30.0547 370.14 29.4571C370.149 29.1744 370.063 28.8968 369.897 28.6681C369.73 28.4395 369.493 28.2728 369.221 28.1943ZM351.279 34.3163C351.03 35.1862 350.544 35.9697 349.875 36.5792C348.746 37.5171 347.298 37.9838 345.834 37.8824C345.115 37.9344 344.393 37.8129 343.73 37.5281C343.068 37.2433 342.483 36.8036 342.025 36.2458L341.904 36.0842C341.867 36.0327 341.833 35.9787 341.803 35.9226C341.766 35.8768 341.735 35.8257 341.712 35.771L341.631 35.6397L341.581 35.5286C341.581 35.5286 341.581 35.4579 341.53 35.4276C341.48 35.3973 341.48 35.3265 341.46 35.2659C341.389 35.1043 341.338 34.9427 341.288 34.7911C341.288 34.6901 341.227 34.5992 341.207 34.5083C341.187 34.4173 341.126 34.185 341.096 34.0435C341.066 33.9021 341.096 33.993 341.096 33.9627V33.8718C340.854 32.7403 340.601 30.5178 341.258 30.0127C341.914 29.5076 343.612 29.0025 346.309 29.2046H346.602C347.02 29.2431 347.434 29.3071 347.844 29.3965L348.329 29.4975C348.739 29.5945 349.144 29.7125 349.542 29.8511L349.905 29.9925L350.309 30.1643H350.39L350.532 30.2451C350.836 30.3816 351.108 30.5813 351.33 30.831C351.895 31.5786 351.633 33.0535 351.279 34.3163ZM367.332 33.7708C367.187 34.5485 366.865 35.2824 366.39 35.915C365.915 36.5477 365.301 37.0619 364.594 37.4177C363.954 37.6842 363.267 37.8215 362.574 37.8218C361.812 37.9064 361.042 37.796 360.335 37.5008C359.628 37.2057 359.008 36.7356 358.533 36.1347C358.506 36.1035 358.482 36.0696 358.462 36.0337C358.431 35.9957 358.404 35.9552 358.381 35.9125V35.8519L358.28 35.67L358.179 35.4579C358.177 35.4242 358.177 35.3905 358.179 35.3568V35.2659C358.173 35.2427 358.173 35.2184 358.179 35.1952C358.072 34.9249 357.994 34.6438 357.947 34.3567C357.704 33.0939 357.613 31.619 358.159 30.9219C358.704 30.2249 360.755 29.4571 362.715 29.2349C363.17 29.2349 363.594 29.154 363.978 29.1439H365.099H365.432C365.646 29.1622 365.859 29.1925 366.069 29.2349H366.21H366.311H366.463L366.645 29.2854L366.938 29.3965C367.178 29.4858 367.403 29.6119 367.604 29.7703C368.059 30.4168 367.635 32.6494 367.332 33.7708Z" fill="#37474F"/>
<path d="M333.985 57.7031C333.985 57.7031 337.642 76.059 339.218 88.4747C340.794 100.89 340.501 135.955 339.652 158.181C339.046 174.344 336.621 204.328 336.621 204.328C336.621 204.328 332.581 205.136 322.973 203.54C314.75 202.186 310.588 199.751 308.83 198.691C308.83 198.691 310.356 153.16 311.517 137.259C312.578 122.6 312.528 114.539 312.528 114.539L309.073 81.0697C309.073 81.0697 309.335 60.0368 315.861 59.1478C322.599 58.2284 333.985 57.7031 333.985 57.7031Z" fill="#FAFAFA"/>
<path d="M327.74 87.8086C327.74 87.0408 327.66 85.384 327.528 83.2827C326.882 73.0289 327.821 58.1886 331.276 57.4512L331.589 58.8655C329.054 59.411 328.66 78.2114 328.973 83.1918C329.114 85.3335 329.215 87.0206 329.185 87.8692L327.74 87.8086Z" fill="#50B5E5"/>
<path d="M314.617 166.989C312.95 164.15 312.859 162.029 310.344 159.493C309.267 158.451 308.483 157.145 308.071 155.704C307.303 153.431 307.343 151.057 307.161 148.572L292.563 149.249C292.686 154.679 293.288 160.088 294.362 165.413C297.13 177.606 299.807 182.738 305.05 183.92C313.415 185.809 315.475 182.203 312.536 176.172C311.273 173.656 310.369 170.977 309.849 168.211C310.754 169.278 311.805 170.214 312.97 170.989C313.564 171.432 314.304 171.634 315.041 171.553C315.777 171.473 316.456 171.116 316.94 170.555C317.304 170.019 315.93 169.221 314.617 166.989Z" fill="#FFBDA7"/>
<path d="M318.558 59.1468C318.558 59.1468 310.79 59.0357 306.435 62.9554C302.081 66.8751 299.768 77.3612 296.949 87.8777C294.131 98.3942 291.625 108.598 290.888 115.912C290.262 121.973 292.302 154.159 292.302 154.159C292.302 154.159 301.182 156.028 308.011 152.28L308.304 116.568L319.568 80.7657C321.625 73.6452 321.27 66.0445 318.558 59.1468Z" fill="#F0F0F0"/>
<path d="M333.711 51.7225C332.701 51.5104 331.761 52.0458 330.933 53.4601C330.104 54.8744 328.276 57.8445 328.276 57.8445C328.276 57.8445 327.336 67.7043 328.276 70.1592C329.094 72.2807 334.519 82.282 334.519 82.282C334.519 82.282 334.166 92.0206 334.075 94.93C333.984 97.8395 339.621 109.982 340.257 115.62C340.257 115.62 340.54 92.6974 339.702 86.3229C338.247 75.2104 336.429 61.9763 333.974 57.4303L333.711 51.7225Z" fill="#EBEBEB"/>
<path d="M325.629 121.823H325.508V120.813C326.706 120.72 327.854 120.293 328.821 119.58C327.783 118.89 326.854 118.049 326.063 117.085C324.437 114.974 320.871 99.9112 321.962 96.4057C322.891 93.4659 325.78 86.9803 328.346 86.8691H328.417C330.983 86.8691 334.367 93.0012 335.489 95.8299C336.883 99.2343 334.61 114.539 333.165 116.782C332.461 117.81 331.606 118.726 330.629 119.5C331.65 120.135 332.832 120.464 334.034 120.449L334.165 121.459C332.594 121.483 331.052 121.032 329.74 120.166C328.551 121.091 327.127 121.665 325.629 121.823ZM328.468 87.8693C326.952 87.9299 324.245 92.7487 323.002 96.6886C321.992 99.9112 325.427 114.489 326.932 116.439C327.745 117.414 328.706 118.256 329.781 118.934C330.8 118.172 331.69 117.251 332.418 116.206C333.751 114.135 335.933 99.3253 334.65 96.1936C333.094 92.3648 330.023 87.8693 328.498 87.8693H328.468Z" fill="#455A64"/>
<path d="M335.732 120.883C335.742 121.077 335.712 121.272 335.646 121.455C335.58 121.638 335.479 121.807 335.347 121.95C335.216 122.094 335.057 122.21 334.88 122.292C334.704 122.374 334.512 122.421 334.318 122.428C334.123 122.437 333.928 122.407 333.744 122.34C333.561 122.274 333.392 122.172 333.248 122.04C333.104 121.908 332.988 121.749 332.905 121.572C332.823 121.395 332.776 121.204 332.767 121.009C332.758 120.814 332.788 120.619 332.855 120.436C332.922 120.252 333.024 120.084 333.156 119.94C333.287 119.796 333.446 119.679 333.623 119.596C333.8 119.514 333.991 119.467 334.186 119.458C334.382 119.45 334.576 119.481 334.76 119.548C334.943 119.615 335.111 119.718 335.255 119.85C335.398 119.982 335.514 120.142 335.596 120.319C335.678 120.496 335.724 120.688 335.732 120.883Z" fill="#263238"/>
<path d="M327.045 121.247C327.053 121.442 327.022 121.637 326.955 121.82C326.888 122.003 326.785 122.172 326.653 122.315C326.521 122.459 326.361 122.575 326.184 122.657C326.007 122.739 325.815 122.785 325.62 122.793C325.426 122.802 325.231 122.773 325.048 122.707C324.865 122.641 324.696 122.539 324.553 122.408C324.409 122.276 324.293 122.117 324.211 121.941C324.129 121.764 324.082 121.573 324.075 121.378C324.066 121.183 324.096 120.989 324.163 120.805C324.229 120.622 324.331 120.453 324.463 120.309C324.595 120.165 324.754 120.048 324.931 119.966C325.108 119.883 325.299 119.836 325.494 119.828C325.689 119.819 325.884 119.849 326.067 119.916C326.251 119.982 326.419 120.084 326.563 120.216C326.707 120.348 326.824 120.507 326.907 120.684C326.989 120.861 327.036 121.052 327.045 121.247Z" fill="#263238"/>
<path d="M335.843 102.467L334.994 102.407C334.95 102.404 334.907 102.393 334.868 102.374C334.828 102.355 334.793 102.328 334.764 102.295C334.735 102.262 334.713 102.224 334.698 102.182C334.684 102.141 334.678 102.097 334.681 102.053C334.853 99.2246 334.762 97.1436 334.418 96.3152C332.923 92.6582 329.822 88.0818 328.478 88.1424C327.134 88.2031 324.437 93.0218 323.245 96.79C322.992 98.7014 323.067 100.642 323.467 102.528C323.482 102.615 323.461 102.704 323.41 102.776C323.359 102.848 323.282 102.897 323.195 102.912L322.346 103.043C322.302 103.049 322.258 103.046 322.215 103.034C322.172 103.022 322.133 103.002 322.098 102.975C322.063 102.948 322.034 102.914 322.012 102.875C321.991 102.837 321.977 102.794 321.972 102.75C321.507 99.6085 321.447 97.4466 321.8 96.3354C322.427 94.3149 325.407 86.7483 328.407 86.617C331.408 86.4857 335.024 93.7795 335.822 95.709C336.267 96.79 336.398 98.9418 336.196 102.114C336.199 102.161 336.192 102.208 336.175 102.253C336.159 102.297 336.133 102.337 336.099 102.37C336.066 102.404 336.026 102.43 335.981 102.447C335.937 102.463 335.89 102.47 335.843 102.467Z" fill="#50B5E5"/>
<path d="M351.137 55.2285C352.471 55.3497 353.632 57.3197 356.703 58.2592C362.442 59.9564 367.654 62.5628 369.261 66.0885C371.928 71.9276 372.362 73.0793 373.302 99.0826C374.241 125.086 374.574 199.095 374.574 199.095C371.819 200.34 368.818 200.945 365.796 200.863C365.796 200.863 366.028 119.136 365.482 100.76C364.937 82.3835 362.149 73.4126 358.168 67.3513C357.047 62.3001 353.471 58.926 351.097 56.461L351.137 55.2285Z" fill="#FAFAFA"/>
<path d="M358.188 67.3705C362.169 73.4319 364.947 82.3926 365.502 100.779C365.563 102.961 365.624 106.032 365.674 109.719C365.674 109.719 368.947 93.0708 368.372 89.5147C367.796 85.9587 363.957 78.6447 363.957 78.6447C364.452 72.5833 363.038 65.6531 360.704 61.4708C360.161 60.4961 359.481 59.6047 358.683 58.824C357.908 58.1952 357.08 57.6342 356.208 57.147C354.714 56.0845 352.978 55.4141 351.157 55.1973V56.4499C353.491 58.9452 357.067 62.2992 358.188 67.3705Z" fill="#EBEBEB"/>
<path d="M237.979 59.0285C245.606 58.9073 249.707 62.3319 255.304 71.1512C260.082 78.6471 271.144 96.5989 274.256 102.004C277.771 108.065 278.297 110.591 275.509 115.137C272.892 119.481 248.081 148.131 248.081 148.131L241.686 136.776L257.627 110.126L238.938 82.5163L237.979 59.0285Z" fill="#B16668"/>
<path d="M237.483 58.6536C242.999 58.3606 246.434 59.5022 249.758 62.6945C253.081 65.8869 270.205 94.638 270.205 94.638C270.205 94.638 267.74 100.528 253.293 108.226L239.15 89.0312L237.483 58.6536Z" fill="#50B5E5"/>
<path opacity="0.2" d="M237.483 58.6536C242.999 58.3606 246.434 59.5022 249.758 62.6945C253.081 65.8869 270.205 94.638 270.205 94.638C270.205 94.638 267.74 100.528 253.293 108.226L239.15 89.0312L237.483 58.6536Z" fill="black"/>
<path d="M275.366 322.564C275.629 322.564 276.033 325.534 274.578 326.787C272.891 328.241 267.941 330.636 261.395 329.817C254.849 328.999 251.293 326.948 248.696 324.766C246.1 322.584 242.402 319.483 239.443 318.826C236.695 318.22 233.715 316.977 232.836 316.129C231.957 315.28 232.078 311.502 232.078 311.502L275.366 322.564Z" fill="#455A64"/>
<path d="M234.705 296.926C234.459 296.924 234.22 297.012 234.034 297.174C233.848 297.336 233.727 297.56 233.695 297.805C233.493 298.815 233.281 301.846 232.846 303.583C232.165 306.593 231.947 309.69 232.2 312.766C232.564 314.696 237.039 316.039 239.908 317.13C243.274 318.61 246.4 320.585 249.182 322.99C252.213 325.525 258.729 328.162 262.992 328.132C268.043 328.132 273.71 326.465 275.013 324.091C276.63 321.192 275.367 319.515 267.881 316.009C266.467 315.352 261.497 312.403 259.799 311.342C255.213 308.453 250.707 304.432 248.556 299.32C248.387 298.694 248.009 298.145 247.485 297.764C247.026 297.569 246.517 297.523 246.03 297.633C244.783 297.809 243.571 298.174 242.434 298.714C241.423 299.199 239.999 299.724 240.019 301.037C240.048 301.484 240.143 301.923 240.302 302.341C240.393 302.603 240.464 302.957 240.231 303.108C239.999 303.26 239.726 303.108 239.534 302.917C238.799 302.162 238.123 301.352 237.514 300.492C237.167 300.047 236.77 299.644 236.332 299.29C235.889 299.037 235.461 298.761 235.049 298.461C234.594 298.088 234.705 297.522 234.705 296.926Z" fill="#50B5E5"/>
<path opacity="0.9" d="M234.705 296.926C234.459 296.924 234.22 297.012 234.034 297.174C233.848 297.336 233.727 297.56 233.695 297.805C233.493 298.815 233.281 301.846 232.846 303.583C232.165 306.593 231.947 309.69 232.2 312.766C232.564 314.696 237.039 316.039 239.908 317.13C243.274 318.61 246.4 320.585 249.182 322.99C252.213 325.525 258.729 328.162 262.992 328.132C268.043 328.132 273.71 326.465 275.013 324.091C276.63 321.192 275.367 319.515 267.881 316.009C266.467 315.352 261.497 312.403 259.799 311.342C255.213 308.453 250.707 304.432 248.556 299.32C248.387 298.694 248.009 298.145 247.485 297.764C247.026 297.569 246.517 297.523 246.03 297.633C244.783 297.809 243.571 298.174 242.434 298.714C241.423 299.199 239.999 299.724 240.019 301.037C240.048 301.484 240.143 301.923 240.302 302.341C240.393 302.603 240.464 302.957 240.231 303.108C239.999 303.26 239.726 303.108 239.534 302.917C238.799 302.162 238.123 301.352 237.514 300.492C237.167 300.047 236.77 299.644 236.332 299.29C235.889 299.037 235.461 298.761 235.049 298.461C234.594 298.088 234.705 297.522 234.705 296.926Z" fill="white"/>
<path d="M249.183 322.99C247.879 321.919 246.495 320.879 245.142 319.959C245.142 319.959 253.941 325.314 257.497 322.879C259.79 321.323 258.699 319.414 258.638 318.838C258.578 318.262 264.235 315.636 266.457 315.373C267.084 315.717 267.599 315.989 267.922 316.141C275.408 319.606 276.671 321.283 275.055 324.223C273.751 326.556 269.64 328.385 263.124 328.385C258.81 328.294 252.254 325.526 249.183 322.99Z" fill="#50B5E5"/>
<path opacity="0.8" d="M249.183 322.99C247.879 321.919 246.495 320.879 245.142 319.959C245.142 319.959 253.941 325.314 257.497 322.879C259.79 321.323 258.699 319.414 258.638 318.838C258.578 318.262 264.235 315.636 266.457 315.373C267.084 315.717 267.599 315.989 267.922 316.141C275.408 319.606 276.671 321.283 275.055 324.223C273.751 326.556 269.64 328.385 263.124 328.385C258.81 328.294 252.254 325.526 249.183 322.99Z" fill="white"/>
<path d="M257.941 317.019C262.598 318.878 260.608 319.747 259.315 319.939C258.022 320.131 250.223 315.544 245.404 311.766C240.424 307.826 237.322 303.523 235.433 302.078C234.746 301.532 233.998 300.876 233.342 300.249C233.463 299.239 233.564 298.3 233.655 297.805C233.687 297.56 233.807 297.336 233.994 297.174C234.18 297.012 234.419 296.924 234.665 296.926C234.665 297.522 234.574 298.088 235.029 298.542C235.441 298.842 235.869 299.118 236.312 299.371C236.75 299.725 237.147 300.128 237.494 300.573C238.103 301.432 238.779 302.243 239.514 302.997C243.596 308.149 253.334 315.16 257.941 317.019Z" fill="#50B5E5"/>
<path d="M259.022 319.251C258.935 319.253 258.849 319.229 258.775 319.183C258.702 319.136 258.642 319.07 258.605 318.991C258.568 318.912 258.554 318.825 258.565 318.738C258.577 318.652 258.612 318.57 258.669 318.504C259.764 317.366 261.092 316.477 262.561 315.897C264.03 315.316 265.607 315.058 267.185 315.14C267.298 315.164 267.397 315.229 267.465 315.322C267.533 315.415 267.563 315.531 267.55 315.645C267.538 315.76 267.483 315.866 267.397 315.942C267.311 316.019 267.199 316.06 267.084 316.059C265.659 316 264.237 316.24 262.91 316.762C261.583 317.283 260.379 318.076 259.376 319.09C259.332 319.141 259.278 319.181 259.217 319.209C259.156 319.237 259.089 319.252 259.022 319.251Z" fill="#FAFAFA"/>
<path d="M254.961 316.756C254.854 316.752 254.751 316.713 254.668 316.645C254.575 316.566 254.517 316.455 254.506 316.334C254.495 316.213 254.531 316.093 254.607 315.998C255.707 314.867 257.036 313.982 258.504 313.404C259.972 312.826 261.547 312.567 263.124 312.644C263.184 312.649 263.243 312.667 263.297 312.695C263.351 312.723 263.399 312.762 263.438 312.809C263.476 312.856 263.505 312.911 263.522 312.969C263.539 313.028 263.545 313.089 263.538 313.149C263.531 313.209 263.513 313.267 263.484 313.32C263.456 313.373 263.417 313.419 263.37 313.457C263.323 313.495 263.269 313.523 263.211 313.539C263.153 313.556 263.092 313.561 263.033 313.554C261.606 313.497 260.184 313.737 258.855 314.258C257.527 314.78 256.321 315.572 255.314 316.584C255.273 316.638 255.219 316.682 255.158 316.711C255.096 316.741 255.029 316.756 254.961 316.756Z" fill="#FAFAFA"/>
<path d="M250.868 314.393C250.764 314.391 250.663 314.351 250.585 314.281C250.538 314.244 250.498 314.198 250.468 314.145C250.439 314.092 250.42 314.033 250.414 313.973C250.407 313.913 250.413 313.852 250.43 313.794C250.447 313.736 250.476 313.682 250.515 313.635C251.613 312.499 252.943 311.611 254.414 311.033C255.885 310.454 257.463 310.198 259.041 310.281C259.161 310.294 259.272 310.355 259.348 310.45C259.423 310.545 259.458 310.665 259.445 310.786C259.432 310.907 259.371 311.017 259.276 311.093C259.181 311.168 259.06 311.204 258.94 311.19C257.515 311.131 256.093 311.37 254.766 311.892C253.439 312.414 252.235 313.207 251.232 314.221C251.188 314.275 251.132 314.318 251.07 314.348C251.007 314.378 250.938 314.393 250.868 314.393Z" fill="#FAFAFA"/>
<path d="M247.142 311.685C247.035 311.686 246.932 311.65 246.849 311.584C246.756 311.506 246.698 311.394 246.687 311.273C246.675 311.152 246.712 311.032 246.788 310.938C247.887 309.804 249.215 308.918 250.683 308.338C252.152 307.758 253.727 307.497 255.304 307.574C255.37 307.573 255.434 307.586 255.494 307.612C255.554 307.638 255.608 307.676 255.652 307.724C255.696 307.772 255.73 307.829 255.75 307.891C255.771 307.953 255.778 308.019 255.772 308.084C255.766 308.149 255.745 308.212 255.713 308.269C255.681 308.325 255.637 308.375 255.584 308.413C255.531 308.452 255.471 308.479 255.407 308.493C255.343 308.506 255.277 308.506 255.213 308.493C253.787 308.432 252.363 308.67 251.034 309.192C249.705 309.714 248.499 310.508 247.495 311.524C247.453 311.576 247.399 311.618 247.337 311.646C247.276 311.674 247.209 311.688 247.142 311.685Z" fill="#FAFAFA"/>
<path d="M243.454 308.987C243.351 308.985 243.252 308.95 243.171 308.886C243.124 308.848 243.084 308.802 243.054 308.749C243.025 308.696 243.006 308.637 243 308.577C242.993 308.517 242.999 308.456 243.016 308.398C243.033 308.34 243.062 308.286 243.101 308.239C244.899 305.956 248.98 304.461 252.405 304.835C252.464 304.841 252.522 304.859 252.575 304.888C252.628 304.917 252.674 304.956 252.711 305.003C252.749 305.05 252.777 305.104 252.794 305.162C252.81 305.22 252.815 305.28 252.809 305.34C252.802 305.399 252.784 305.457 252.755 305.51C252.726 305.562 252.687 305.609 252.64 305.646C252.593 305.684 252.539 305.712 252.482 305.728C252.424 305.745 252.363 305.75 252.304 305.744C249.223 305.41 245.424 306.754 243.818 308.774C243.778 308.836 243.725 308.887 243.661 308.924C243.598 308.961 243.527 308.982 243.454 308.987Z" fill="#FAFAFA"/>
<path d="M204.611 334.102C204.803 338.547 204.409 341.547 203.105 344.305C201.802 347.063 198.913 348.164 195.842 347.709C192.771 347.255 188.72 345.608 187.477 341.88C186.235 338.153 186.144 335.516 186.416 331.344L204.611 334.102Z" fill="#455A64"/>
<path d="M189.467 303.271C188.234 303.494 188.457 309.474 188.356 315.485C188.234 321.941 186.598 324.769 186.436 330.063C186.265 336.124 186.84 338.741 189.295 342.186C191.75 345.63 199.509 348.378 202.64 342.842C205.196 338.326 204.843 333.639 203.974 327.689C203.075 321.557 202.398 317.243 202.176 312.535C201.963 308.04 201.842 303.676 200.721 303.282C200.721 303.948 200.721 304.787 200.721 305.444C200.721 305.949 200.822 308.383 200.135 308.474C200.023 307.918 199.963 307.354 199.953 306.787C199.976 306.274 199.802 305.772 199.468 305.383C199.055 305.071 198.551 304.904 198.034 304.908C196.796 304.775 195.551 304.708 194.306 304.706C193.68 304.706 193.063 304.706 192.447 304.817C191.915 304.863 191.393 304.992 190.901 305.201C190.758 305.261 190.63 305.352 190.525 305.468C190.42 305.583 190.342 305.719 190.295 305.868C190.255 306.095 190.255 306.328 190.295 306.555C190.346 306.967 190.346 307.385 190.295 307.797C190.295 307.979 190.174 308.212 189.992 308.181C189.81 308.151 189.77 307.989 189.75 307.838C189.679 307.12 189.75 306.585 189.659 305.747C189.659 305.363 189.659 304.827 189.659 304.433C189.659 304.039 189.477 303.655 189.467 303.271Z" fill="#50B5E5"/>
<path opacity="0.9" d="M189.467 303.271C188.234 303.494 188.457 309.474 188.356 315.485C188.234 321.941 186.598 324.769 186.436 330.063C186.265 336.124 186.84 338.741 189.295 342.186C191.75 345.63 199.509 348.378 202.64 342.842C205.196 338.326 204.843 333.639 203.974 327.689C203.075 321.557 202.398 317.243 202.176 312.535C201.963 308.04 201.842 303.676 200.721 303.282C200.721 303.948 200.721 304.787 200.721 305.444C200.721 305.949 200.822 308.383 200.135 308.474C200.023 307.918 199.963 307.354 199.953 306.787C199.976 306.274 199.802 305.772 199.468 305.383C199.055 305.071 198.551 304.904 198.034 304.908C196.796 304.775 195.551 304.708 194.306 304.706C193.68 304.706 193.063 304.706 192.447 304.817C191.915 304.863 191.393 304.992 190.901 305.201C190.758 305.261 190.63 305.352 190.525 305.468C190.42 305.583 190.342 305.719 190.295 305.868C190.255 306.095 190.255 306.328 190.295 306.555C190.346 306.967 190.346 307.385 190.295 307.797C190.295 307.979 190.174 308.212 189.992 308.181C189.81 308.151 189.77 307.989 189.75 307.838C189.679 307.12 189.75 306.585 189.659 305.747C189.659 305.363 189.659 304.827 189.659 304.433C189.659 304.039 189.477 303.655 189.467 303.271Z" fill="white"/>
<path d="M186.547 328.333C186.547 329.202 186.355 334.98 188.012 335.849C189.669 336.718 190.275 332.223 190.275 332.223C190.275 332.223 194.104 330.616 200.095 332.546C199.893 333.506 201.105 336.466 202.59 335.667C204.075 334.869 204.045 328.262 204.045 328.182C204.863 333.869 205.115 338.415 202.64 342.8C199.509 348.336 191.75 345.537 189.295 342.143C186.84 338.749 186.265 336.082 186.436 330.02C186.456 329.455 186.497 328.879 186.547 328.333Z" fill="#50B5E5"/>
<path opacity="0.8" d="M186.547 328.333C186.547 329.202 186.355 334.98 188.012 335.849C189.669 336.718 190.275 332.223 190.275 332.223C190.275 332.223 194.104 330.616 200.095 332.546C199.893 333.506 201.105 336.466 202.59 335.667C204.075 334.869 204.045 328.262 204.045 328.182C204.863 333.869 205.115 338.415 202.64 342.8C199.509 348.336 191.75 345.537 189.295 342.143C186.84 338.749 186.265 336.082 186.436 330.02C186.456 329.455 186.497 328.879 186.547 328.333Z" fill="white"/>
<path d="M190.77 332.558C190.962 334.72 188.749 334.205 188.355 331.164C187.961 328.123 188.901 320.728 188.355 315.485C188.467 309.474 188.234 303.494 189.467 303.271C189.467 303.352 189.467 303.423 189.467 303.494L189.608 306.524C189.608 306.969 189.608 307.353 189.669 307.818C190.083 312.232 190.315 320.799 190.346 324.86C190.345 327.432 190.487 330.002 190.77 332.558Z" fill="#50B5E5"/>
<path d="M199.418 332.556C199.698 330.003 199.836 327.436 199.832 324.868C199.832 320.827 200.095 312.361 200.499 307.936C200.652 307.111 200.713 306.27 200.681 305.431C200.681 304.825 200.681 304.057 200.681 303.411C200.686 303.367 200.686 303.323 200.681 303.279C201.499 303.572 201.782 305.956 201.964 308.957C201.964 310.694 201.907 312.87 201.792 315.483C201.247 320.726 202.196 328.171 201.792 331.202C201.388 334.233 199.226 334.718 199.418 332.556Z" fill="#50B5E5"/>
<path d="M200.226 332.709H200.054C196.943 331.629 193.558 331.629 190.447 332.709C190.389 332.741 190.325 332.76 190.259 332.765C190.193 332.771 190.126 332.762 190.064 332.739C190.002 332.716 189.945 332.681 189.898 332.634C189.85 332.588 189.813 332.532 189.789 332.47C189.765 332.409 189.755 332.342 189.759 332.276C189.762 332.21 189.78 332.146 189.811 332.087C189.841 332.028 189.884 331.977 189.937 331.936C189.989 331.895 190.049 331.866 190.114 331.85C193.419 330.652 197.037 330.63 200.357 331.79C200.414 331.811 200.466 331.843 200.51 331.885C200.554 331.927 200.59 331.977 200.614 332.032C200.639 332.088 200.652 332.148 200.653 332.209C200.654 332.269 200.643 332.33 200.62 332.386C200.592 332.472 200.54 332.548 200.47 332.605C200.4 332.662 200.316 332.698 200.226 332.709Z" fill="#FAFAFA"/>
<path d="M200.792 327.928C200.739 327.938 200.684 327.938 200.63 327.928C197.127 326.835 193.374 326.835 189.871 327.928C189.812 327.959 189.747 327.976 189.681 327.979C189.614 327.983 189.548 327.972 189.486 327.947C189.424 327.922 189.368 327.885 189.322 327.837C189.276 327.788 189.241 327.731 189.219 327.668C189.197 327.605 189.189 327.539 189.195 327.472C189.201 327.406 189.222 327.342 189.255 327.284C189.288 327.226 189.333 327.176 189.387 327.138C189.441 327.099 189.503 327.072 189.568 327.059C193.269 325.884 197.243 325.884 200.944 327.059C201.058 327.1 201.152 327.185 201.205 327.294C201.257 327.404 201.265 327.53 201.226 327.645C201.189 327.729 201.128 327.801 201.051 327.851C200.974 327.901 200.884 327.928 200.792 327.928Z" fill="#FAFAFA"/>
<path d="M189.72 323.394C189.617 323.39 189.519 323.352 189.44 323.286C189.361 323.219 189.306 323.129 189.284 323.028C189.262 322.928 189.274 322.823 189.318 322.73C189.363 322.637 189.436 322.561 189.528 322.515C194.882 320.08 200.641 322.343 200.873 322.444C200.93 322.465 200.982 322.498 201.026 322.539C201.07 322.581 201.106 322.631 201.13 322.687C201.155 322.742 201.168 322.802 201.169 322.863C201.17 322.924 201.158 322.984 201.136 323.04C201.087 323.152 200.996 323.241 200.883 323.288C200.77 323.335 200.644 323.337 200.53 323.293C200.53 323.293 194.892 321.08 189.912 323.353C189.85 323.376 189.786 323.39 189.72 323.394Z" fill="#FAFAFA"/>
<path d="M189.617 319.161C189.53 319.162 189.444 319.138 189.371 319.092C189.297 319.045 189.239 318.978 189.203 318.898C189.176 318.844 189.159 318.785 189.155 318.724C189.151 318.663 189.159 318.602 189.179 318.545C189.199 318.488 189.23 318.435 189.27 318.389C189.311 318.344 189.36 318.308 189.415 318.282C191.228 317.455 193.194 317.018 195.186 316.997C197.178 316.976 199.153 317.372 200.982 318.16C201.093 318.213 201.179 318.307 201.221 318.423C201.262 318.538 201.256 318.665 201.205 318.777C201.15 318.886 201.055 318.969 200.94 319.009C200.825 319.049 200.698 319.041 200.588 318.989C198.878 318.274 197.039 317.917 195.185 317.94C193.331 317.962 191.502 318.364 189.809 319.12C189.749 319.148 189.684 319.162 189.617 319.161Z" fill="#FAFAFA"/>
<path d="M189.517 314.412C189.431 314.412 189.346 314.386 189.273 314.34C189.199 314.294 189.141 314.228 189.103 314.15C189.05 314.04 189.043 313.913 189.083 313.798C189.123 313.683 189.206 313.588 189.315 313.533C194.811 310.826 200.731 313.412 200.973 313.533C201.028 313.558 201.078 313.593 201.119 313.637C201.161 313.681 201.193 313.732 201.215 313.788C201.236 313.845 201.247 313.905 201.245 313.965C201.244 314.025 201.23 314.085 201.206 314.14C201.181 314.195 201.146 314.244 201.102 314.286C201.058 314.327 201.007 314.36 200.951 314.381C200.894 314.403 200.834 314.413 200.774 314.412C200.714 314.41 200.654 314.396 200.599 314.372C200.539 314.372 194.821 311.846 189.719 314.372C189.656 314.4 189.587 314.414 189.517 314.412Z" fill="#EBEBEB"/>
<path d="M197.053 119.529C193.668 127.314 191.468 135.561 190.526 143.997C188.163 174.688 189.435 218.754 189.435 218.754C189.163 221.967 187.132 229.25 185.768 243.363C184.152 260.042 186.183 316.564 186.183 316.564C186.183 316.564 196.153 322.515 203.922 315.746C203.922 315.746 212.943 238.049 215.035 221.461C216.863 206.995 221.965 175.678 221.965 175.678L227.935 221.987C227.935 221.987 227.38 235.009 227.774 243.424C228.218 253.213 230.956 303.088 230.956 303.088C230.956 303.088 244.665 307.725 250.787 301.138C250.787 301.138 252.241 231.958 252.454 220.178C252.858 197.074 252.454 154.968 248.706 130.733L197.053 119.529Z" fill="#50B5E5"/>
<path opacity="0.2" d="M197.053 119.529C193.668 127.314 191.468 135.561 190.526 143.997C188.163 174.688 189.435 218.754 189.435 218.754C189.163 221.967 187.132 229.25 185.768 243.363C184.152 260.042 186.183 316.564 186.183 316.564C186.183 316.564 196.153 322.515 203.922 315.746C203.922 315.746 212.943 238.049 215.035 221.461C216.863 206.995 221.965 175.678 221.965 175.678L227.935 221.987C227.935 221.987 227.38 235.009 227.774 243.424C228.218 253.213 230.956 303.088 230.956 303.088C230.956 303.088 244.665 307.725 250.787 301.138C250.787 301.138 252.241 231.958 252.454 220.178C252.858 197.074 252.454 154.968 248.706 130.733L197.053 119.529Z" fill="black"/>
<path opacity="0.2" d="M221.967 175.668L224.108 160.939C224.108 160.939 236.555 159.272 242.192 153.979C240.577 156.505 238.425 158.645 235.89 160.246C233.355 161.847 230.498 162.87 227.523 163.242L225.331 176.567L227.22 216.431L221.967 175.668Z" fill="black"/>
<path d="M247.768 97.3544C247.223 103.416 247.091 115.246 247.091 115.246C249.283 130.722 251.041 145.835 251.041 145.835C227.927 158.17 193.044 148.189 188.649 143.098C190.821 127.944 195.61 118.509 198.752 109.982L192.963 84.1911C192.963 84.1911 202.934 75.8971 202.055 59.0768L215.713 57.6523L228.745 58.0261L238.009 58.6828C242.66 63.1921 246.732 68.2619 250.132 73.7756C254.567 81.029 254.739 90.0504 247.768 97.3544Z" fill="#50B5E5"/>
<path opacity="0.1" d="M232.078 96.4057C232.078 96.4057 226.017 101.74 218.642 99.6284C216.569 99.1138 214.664 98.0738 213.111 96.6086C211.557 95.1435 210.407 93.3026 209.772 91.2637C209.772 91.2637 209.53 99.588 218.864 101.831C221.357 102.465 223.988 102.28 226.368 101.303C228.748 100.326 230.75 98.6087 232.078 96.4057Z" fill="black"/>
<path d="M212.834 49.4685C212.834 47.155 209.581 42.3362 206.611 36.9315C203.641 31.5268 200.438 22.8388 206.611 14.7065C212.783 6.57413 226.745 1.70483 234.968 5.61441C243.191 9.524 245.485 18.8686 245.485 18.8686L212.834 49.4685Z" fill="#37474F"/>
<path d="M203.994 30.2248C203.998 30.2049 203.998 30.1841 203.994 30.1642C203.697 29.6755 203.229 29.3152 202.68 29.1539C202.064 28.9249 201.408 28.8185 200.751 28.8408C199.973 28.8408 198.488 29.3964 198.538 30.4066C198.589 31.5987 200.559 31.73 201.407 31.6896C202.143 31.6779 202.874 31.5657 203.579 31.3562C203.591 32.7657 203.39 34.1689 202.983 35.5184C202.734 36.1355 202.339 36.683 201.832 37.1146C201.492 37.3797 201.096 37.5639 200.674 37.6532C200.252 37.7424 199.815 37.7344 199.397 37.6298C198.922 37.549 199.124 38.2258 199.397 38.3268C200.187 38.5462 201.028 38.4837 201.777 38.15C202.525 37.8163 203.134 37.2323 203.499 36.4983C204.509 34.7102 204.135 32.6392 204.569 30.6996C204.67 30.4167 204.297 30.1844 203.994 30.2248ZM200.145 30.8511C199.993 30.8511 199.599 30.7501 199.508 30.5986C199.417 30.447 199.559 30.3864 199.65 30.2854C200.012 30.0014 200.44 29.8151 200.895 29.7444C201.35 29.6736 201.815 29.7208 202.246 29.8813C202.491 29.934 202.731 30.0083 202.963 30.1036C203.089 30.1592 203.21 30.2234 203.327 30.2955L203.478 30.3763H203.569C202.94 30.6842 202.249 30.8465 201.549 30.8511C201.083 30.9165 200.61 30.9165 200.145 30.8511Z" fill="#50B5E5"/>
<path d="M239.918 11.6172C242.949 13.1931 247.313 16.5572 246.646 32.2663C246.121 44.5405 241.595 50.1978 239.575 51.2687C237.554 52.3395 234.887 52.6022 230.786 52.1678V59.1485C230.786 59.1485 235.513 71.6955 232.644 78.07C228.847 76.0166 225.296 73.5392 222.057 70.6853C215.107 64.0077 213.026 60.8759 213.026 60.8759L212.773 42.2978C212.773 42.2978 210.046 44.3183 205.782 41.0047C202.257 38.2771 200.832 33.4179 203.277 30.6196C203.918 29.9137 204.729 29.3842 205.633 29.0817C206.537 28.7793 207.503 28.714 208.439 28.8921C209.463 29.1183 210.42 29.5767 211.238 30.2318C212.056 30.8869 212.713 31.7212 213.157 32.6703C213.349 33.0441 213.642 33.4381 214.056 33.4785C214.214 33.4853 214.371 33.455 214.515 33.39C214.659 33.3251 214.785 33.2274 214.885 33.1047C215.078 32.8561 215.219 32.5708 215.299 32.2663C216.178 29.6599 215.763 26.9322 216.38 24.2753C216.86 22.2262 217.761 20.2996 219.027 18.6181C222.031 14.7594 226.404 12.2026 231.24 11.4757C234.12 11.0276 237.055 11.0755 239.918 11.6172Z" fill="#B16668"/>
<path d="M245.596 19.1643C241.484 16.6296 236.623 15.5946 231.836 16.2346C226.602 17.0749 221.6 18.9945 217.147 21.8717C217.647 20.7209 218.274 19.6298 219.016 18.6188C222.03 14.7597 226.408 12.2033 231.25 11.4765C234.122 11.0249 237.051 11.0694 239.908 11.6078C241.827 12.5574 244.232 14.2647 245.596 19.1643Z" fill="#B16668"/>
<path d="M227.805 28.7195C227.862 29.1976 227.727 29.6789 227.429 30.0576C227.132 30.4364 226.696 30.6818 226.218 30.7399C225.991 30.7724 225.759 30.7582 225.537 30.6982C225.315 30.6383 225.107 30.5337 224.926 30.3911C224.746 30.2484 224.596 30.0705 224.487 29.8683C224.377 29.666 224.31 29.4436 224.289 29.2145C224.252 28.7462 224.397 28.2818 224.695 27.9183C224.992 27.5549 225.419 27.3207 225.885 27.2647C226.107 27.2334 226.332 27.2463 226.549 27.3026C226.766 27.3588 226.969 27.4574 227.148 27.5926C227.326 27.7278 227.476 27.897 227.589 28.0904C227.701 28.2838 227.775 28.4976 227.805 28.7195Z" fill="black"/>
<path d="M228.322 40.4785L234.504 42.0444C234.42 42.46 234.252 42.8542 234.011 43.2031C233.77 43.552 233.461 43.8483 233.102 44.0741C232.743 44.2998 232.342 44.4503 231.923 44.5165C231.504 44.5826 231.076 44.563 230.665 44.4588C229.838 44.2242 229.132 43.6797 228.696 42.9384C228.259 42.1971 228.125 41.3161 228.322 40.4785Z" fill="#9A4A4D"/>
<path d="M243.685 24.5977L240.099 22.8197C240.203 22.581 240.354 22.3661 240.544 22.1879C240.734 22.0097 240.958 21.872 241.203 21.7831C241.448 21.6943 241.708 21.6562 241.968 21.6711C242.228 21.6861 242.482 21.7538 242.715 21.8701C243.194 22.1156 243.561 22.5345 243.741 23.0415C243.921 23.5484 243.901 24.105 243.685 24.5977Z" fill="black"/>
<path d="M226.28 23.2349L222.663 24.9321C222.542 24.7019 222.468 24.4494 222.448 24.19C222.427 23.9305 222.459 23.6696 222.542 23.423C222.625 23.1763 222.758 22.9492 222.931 22.7553C223.105 22.5615 223.316 22.405 223.552 22.2954C224.041 22.0717 224.596 22.0446 225.104 22.2195C225.612 22.3944 226.033 22.758 226.28 23.2349Z" fill="black"/>
<path d="M242.089 27.9004C242.129 28.3676 241.986 28.8321 241.69 29.1959C241.394 29.5596 240.969 29.7942 240.503 29.8501C240.277 29.8811 240.047 29.8662 239.826 29.8061C239.606 29.7461 239.4 29.6422 239.221 29.5008C239.042 29.3593 238.893 29.1831 238.783 28.9828C238.674 28.7824 238.606 28.562 238.584 28.3348C238.541 27.8659 238.683 27.3989 238.979 27.0329C239.275 26.6669 239.702 26.4309 240.17 26.375C240.397 26.344 240.628 26.3593 240.849 26.4199C241.069 26.4806 241.276 26.5853 241.455 26.7279C241.634 26.8704 241.783 27.0478 241.892 27.2493C242.001 27.4508 242.068 27.6723 242.089 27.9004Z" fill="black"/>
<path d="M233.088 27.5488L233.967 37.6006L239.169 35.6307L233.088 27.5488Z" fill="#9A4A4D"/>
<path d="M230.745 52.1685C226.422 51.532 217.259 49.2186 215.673 45.8242C216.326 47.7625 217.552 49.4569 219.188 50.6834C221.956 52.7746 230.745 54.6435 230.745 54.6435V52.1685Z" fill="#9A4A4D"/>
<path d="M245.595 19.1635C245.595 19.1635 243.352 15.5873 233.088 16.5268C227.448 17.1273 222.007 18.9548 217.147 21.881C214.114 23.7284 211.557 26.2612 209.681 29.2759C209.277 29.0997 208.853 28.9708 208.419 28.892C207.478 28.7103 206.506 28.7738 205.596 29.0764C204.687 29.3789 203.871 29.9103 203.226 30.6195L203.175 30.6801C201.307 27.2554 199.922 23.7802 200.7 18.7089C201.791 11.5665 208.873 6.58611 216.743 3.29277C226.047 -0.667332 236.25 0.342895 240.332 4.20197C244.413 8.06105 245.484 18.7998 245.595 19.1635Z" fill="#50B5E5"/>
<path d="M202.206 147.645C199.38 145.774 196.835 143.509 194.65 140.917C196.478 141.133 198.326 141.133 200.155 140.917C202.661 140.392 203.186 139.341 203.024 138.432C202.933 137.725 201.196 137.947 198.438 137.089C195.304 136.005 192.068 135.24 188.78 134.805C187.179 134.428 185.774 133.475 184.83 132.128C183.961 131.047 178.829 122.026 174.304 112.449L195.225 86.567C200.448 80.7178 206.692 70.2215 200.428 59.4727C186.053 62.5033 186.164 62.1498 157.413 104.711C152.452 112.055 152.856 115.51 170.546 137.412C174.113 141.852 177.949 146.069 182.032 150.04C192.245 159.566 199.63 160.253 203.873 157.677C209.682 154.111 207.793 151.323 202.206 147.645Z" fill="#B16668"/>
<path d="M202.014 59.0762C194.144 59.4298 188.345 60.5511 182.819 67.3095C176.889 74.5327 163.16 94.3736 163.16 94.3736C163.16 94.3736 166.837 105.718 181.627 109.527L200.256 85.6149C200.256 85.6149 207.055 72.2698 202.014 59.0762Z" fill="#50B5E5"/>
<path opacity="0.2" d="M202.014 59.0762C194.144 59.4298 188.345 60.5511 182.819 67.3095C176.889 74.5327 163.16 94.3736 163.16 94.3736C163.16 94.3736 166.837 105.718 181.627 109.527L200.256 85.6149C200.256 85.6149 207.055 72.2698 202.014 59.0762Z" fill="black"/>
<path d="M86.5245 67.8145C79.4529 68.0064 77.4324 70.8451 73.2097 76.9065C68.9869 82.9679 54.4699 106.021 54.4699 106.021L33.9521 113.901L36.7 125.882C36.7 125.882 54.0557 122.427 62.9659 120.609C64.1255 120.449 65.2322 120.023 66.1997 119.364C67.1671 118.705 67.9689 117.831 68.5424 116.811C69.684 115.083 81.0894 97.1414 81.0894 97.1414L86.5245 67.8145Z" fill="#E6E6E6"/>
<path d="M91.9392 68.0058C85.2616 66.3389 82.3117 70.0263 80.0892 74.148C76.5332 80.6741 74.3915 94.0091 74.0885 118.376C73.8965 134.044 68.4413 152.986 67.4715 167.877C65.9965 190.183 65.3096 207.529 65.3096 207.529C78.5198 205.819 91.8335 205.036 105.153 205.185L91.9392 68.0058Z" fill="#E0E0E0"/>
<path d="M130.429 295.237C130.429 295.237 134.47 267.809 132.762 251.736C131.328 237.946 129.297 232.178 129.014 229.036C129.014 229.036 126.691 196.709 127.327 169.241C127.62 156.239 126.964 141.904 117.71 126.579L117.376 125.973C116.558 131.024 108.81 134.257 101.9 135.065C95.2457 135.806 86.9618 134.489 77.0481 131.115C74.8357 144.116 72.3304 168.897 69.7644 195.901C68.5218 209.104 68.7541 220.217 68.5117 228.703C68.2187 240.219 69.2694 285.336 69.2694 285.336V287.246C69.1986 289.347 68.6935 290.812 67.2489 294.146C65.4057 298.445 62.8358 302.396 59.652 305.824C58.6417 306.834 51.8429 312.4 50.9236 313.613C47.9636 316.845 53.8027 318.906 58.2073 318.472C62.8544 318.007 70.0876 316.451 72.2192 313.734C73.6437 311.905 74.8761 305.369 76.3309 303.51C81.2507 297.257 83.2711 294.56 83.4025 292.519C83.5843 288.812 82.3922 287.306 81.978 285.205C82.4933 280.851 91.3429 258.06 91.9288 245.341C92.2117 239.28 90.9186 228.531 90.9186 228.531L98.566 184.293C100.294 196.719 103.617 224.702 104.759 233.643C106.405 245.917 112.467 266.677 116.285 282.982C117.72 289.115 118.427 291.842 118.781 295.843L118.872 297.277C118.872 299.086 119.053 318.411 119.639 322.533C120.852 331.09 128.438 330.271 129.883 323.432C131.105 317.613 130.419 299.459 130.459 297.227L130.429 295.237Z" fill="#FFA8A7"/>
<path d="M130.651 295.117C132.782 295.228 131.105 303.431 131.479 308.765C131.883 314.473 133.611 318.696 133.985 323.373C134.419 328.728 133.873 330.95 131.813 335.264C130.216 338.628 122.589 343.053 119.912 338.082C117.235 333.112 116.811 327.525 117.316 322.222C117.831 316.746 118.326 312.746 118.548 308.573C118.76 304.896 116.215 296.168 119.003 295.733L119.084 297.168C120.013 299.188 129.428 300.865 130.681 297.087L130.651 295.117Z" fill="#37474F"/>
<path d="M83.8775 296.863C84.4432 299.54 83.5239 306.814 83.5239 306.814C83.5239 306.814 82.2914 309.289 78.1293 310.855L76.624 300.652L83.8775 296.863Z" fill="#263238"/>
<path d="M78.1285 310.824L69.1779 307.551L67.2686 299.449L77.2597 304.935L78.1285 310.824Z" fill="black"/>
<path d="M69.5007 287.095V285.185C68.2582 285.741 65.2275 295.55 61.3381 302.218C57.8023 308.279 51.0641 311.532 48.8315 314.159C45.8008 317.674 51.2661 322.513 60.2976 320.887C64.7729 320.089 71.6121 317.462 73.5316 314.522C75.451 311.582 76.2592 306.087 77.825 303.925C79.3909 301.763 83.0277 299.349 83.8864 296.853C84.5471 294.596 84.6201 292.207 84.0986 289.913C83.4722 287.6 82.9469 284.862 82.1589 285.044L82.0478 286.781C81.4113 287.984 79.199 289.337 74.663 289.428C72.491 289.479 70.4201 289.085 69.5007 287.095Z" fill="#37474F"/>
<path d="M93.0406 250.182C93.5639 243.225 93.3098 236.231 92.283 229.331L98.809 185.891C98.809 185.891 103.254 227.31 104.002 233.695C104.749 240.08 116.67 309.301 116.67 309.301C122.731 312.917 130.601 311.766 135.693 309.068C135.693 281.085 134.824 253.041 133.813 245.293C132.921 239.998 131.71 234.762 130.187 229.614C130.187 229.614 129.54 188.79 129.571 173.293C129.601 157.797 128.439 147.432 125.53 140.461C123.247 135.398 120.543 130.535 117.448 125.924C117.448 125.924 115.185 133.571 97.2432 133.591C79.3015 133.612 77.3215 129.056 77.3215 129.056C77.3215 129.056 72.0683 147.411 70.3206 175.132C68.9063 197.468 68.583 207.631 68.1587 217.562C67.795 226.048 67.5728 235.847 67.3808 252.99C67.2293 265.921 65.3604 294.41 65.3604 294.41C65.3604 294.41 74.119 298.996 88.5956 293.763C88.535 293.723 92.1415 261.335 93.0406 250.182Z" fill="#455A64"/>
<path d="M98.8081 185.849L95.2622 159.583C90.0565 159.046 85.2013 156.709 81.5332 152.977C81.5332 152.977 83.5537 159.341 91.9588 162.917L96.717 185.981L93.2721 222.955L98.8081 185.849Z" fill="#37474F"/>
<path d="M107.204 69.834L115.649 70.7331C121.266 72.107 123.792 74.5821 124.368 79.5524C125.404 84.9013 125.304 90.4083 124.075 95.7161C122.297 102.707 117.569 119.83 117.569 119.83C117.569 119.83 123.701 135.236 126.6 143.066C106.668 156.067 82.0592 150.935 73.7955 143.066C74.4926 135.62 77.1293 128.7 77.7152 122.063C77.7152 122.063 77.2808 111.698 76.4626 107.202C70.1587 100.323 70.9568 93.736 73.7955 88.4222C79.0184 78.623 86.9285 70.0057 89.4541 70.0158L107.204 69.834Z" fill="#50B5E5"/>
<path opacity="0.6" d="M107.204 69.834L115.649 70.7331C121.266 72.107 123.792 74.5821 124.368 79.5524C125.404 84.9013 125.304 90.4083 124.075 95.7161C122.297 102.707 117.569 119.83 117.569 119.83C117.569 119.83 123.701 135.236 126.6 143.066C106.668 156.067 82.0592 150.935 73.7955 143.066C74.4926 135.62 77.1293 128.7 77.7152 122.063C77.7152 122.063 77.2808 111.698 76.4626 107.202C70.1587 100.323 70.9568 93.736 73.7955 88.4222C79.0184 78.623 86.9285 70.0057 89.4541 70.0158L107.204 69.834Z" fill="white"/>
<path d="M91.8488 63.8945C89.3435 63.8945 89.0606 64.3188 86.8987 67.198C85.6157 68.9154 77.5137 82.2807 77.5137 82.2807C77.5137 82.2807 83.969 73.8049 88.8282 71.2389C89.7715 70.6865 90.7935 70.2812 91.8589 70.0367L91.8488 63.8945Z" fill="#EBEBEB"/>
<path d="M107.677 69.8361C107.677 69.8361 100.717 88.1414 99.1307 100.567C97.5446 112.993 102.99 150.523 103.828 172.768C104.445 188.932 105.98 212.288 105.98 212.288C110.919 212.772 115.901 212.616 120.8 211.824C128.983 210.278 131.519 208.935 136.196 205.884C136.196 205.884 132.155 165.202 130.135 149.392C128.266 134.511 120.265 119.832 120.265 119.832L129.882 80.0192C129.882 80.0192 129.407 73.3113 123.083 71.4322C117.093 69.6441 107.677 69.8361 107.677 69.8361Z" fill="#FAFAFA"/>
<path d="M119.993 107.042C119.993 107.042 118.69 102.304 116.892 94.2117C115.093 86.1198 115.376 81.4323 115.993 77.8965L126.448 93.1914L120.286 119.821C124.478 127.847 127.573 136.399 129.489 145.248C123.196 127.438 116.296 122.094 116.296 122.094L119.993 107.042Z" fill="#F5F5F5"/>
<path d="M110.305 92.3617C110.305 91.5939 110.375 89.927 110.507 87.8359C111.163 77.5719 111.466 68.3081 108.001 67.5605L107.698 68.9749C110.224 69.5204 109.385 82.7544 109.072 87.7449C108.931 89.8866 108.82 91.5737 108.86 92.4223L110.305 92.3617Z" fill="#50B5E5"/>
<path d="M129.308 175.494C130.652 172.938 130.631 171.1 132.722 168.786C133.619 167.836 134.247 166.665 134.541 165.392C134.978 163.338 135.144 161.236 135.036 159.139L147.017 159.321C147.108 163.301 147.644 169.019 146.896 173.262C144.987 184 142.855 188.577 138.349 189.829C131.147 191.85 129.207 188.819 131.51 183.384C132.512 181.133 133.192 178.753 133.531 176.313C132.782 177.279 131.906 178.139 130.924 178.868C130.424 179.276 129.789 179.481 129.145 179.442C128.501 179.403 127.896 179.122 127.449 178.656C127.096 178.232 128.267 177.484 129.308 175.494Z" fill="#FFA8A7"/>
<path d="M117.629 70.3607C117.629 70.3607 125.368 69.8758 129.904 73.5833C134.44 77.2909 137.248 87.6558 140.572 98.0208C143.895 108.386 146.876 118.468 147.967 125.731C148.886 131.793 147.694 163.948 147.694 163.948C142.941 164.396 138.156 163.551 133.844 161.504L130.651 127.216L117.68 92.0099C115.275 84.9967 115.257 77.385 117.629 70.3607Z" fill="#F0F0F0"/>
<path d="M21.5159 95.1504L59.9046 108.698L70.4716 154.38L69.6129 155.289L33.1134 141.661L20.6572 96.0596L21.5159 95.1504Z" fill="#50B5E5"/>
<path opacity="0.35" d="M59.0459 109.606L69.6129 155.289L70.4716 154.38L59.9046 108.697L59.0459 109.606Z" fill="black"/>
<path opacity="0.25" d="M20.6572 96.0605L59.0459 109.608L69.6129 155.29L33.1134 141.662L20.6572 96.0605Z" fill="black"/>
<g opacity="0.2">
<path d="M38.8207 132.377C38.4671 133.266 35.5273 135.246 31.2641 134.893L30.5469 132.256L38.8207 132.377Z" fill="black"/>
</g>
<g opacity="0.1">
<path d="M32.215 105.426L31.9018 103.891C31.73 103.042 33.9829 103.487 36.9529 104.901L43.8831 107.002C46.8431 108.396 49.6313 109.437 49.803 110.275L50.1263 111.811L32.215 105.426Z" fill="black"/>
</g>
<path d="M29.9402 98.4955C29.8291 97.96 30.6979 98.0712 31.9607 98.3944L34.1731 99.1521C34.1731 99.1521 33.2639 96.9296 38.4969 98.3439C44.2552 99.9098 44.3764 102.779 44.3764 102.779C45.2785 103.169 46.2028 103.507 47.1444 103.789C49.0538 104.415 49.2659 104.799 49.4275 105.325L49.7104 106.335L30.112 99.435C30.112 99.435 30.0514 99.0208 29.9402 98.4955Z" fill="#37474F"/>
<path d="M31.9918 101.456C33.8103 102.274 34.5578 102.678 34.8306 103.981C35.1337 105.466 35.2044 106.092 35.2044 106.092L45.3976 110.133C45.3976 110.133 44.842 107.941 44.7106 107.204C44.5793 106.466 45.9229 106.466 47.6807 107.285L47.2665 105.456L31.416 99.5664L31.9918 101.456Z" fill="#37474F"/>
<path d="M31.6485 105.496L31.3354 103.971C31.1636 103.122 33.4164 103.567 36.3865 104.981L43.3167 107.072C46.2666 108.466 49.0649 109.507 49.2366 110.356L49.5498 111.891L31.6485 105.496Z" fill="#37474F"/>
<path d="M24.9209 111.69C24.9209 111.69 26.2847 116.741 26.6383 117.973C26.9919 119.206 33.2856 122.136 36.4375 122.53C42.4989 123.287 43.1353 124.55 41.6907 128.864C40.3572 132.804 36.4375 134.289 31.0025 133.652C29.3004 133.318 27.7167 132.54 26.4112 131.398C25.1057 130.255 24.1247 128.789 23.5672 127.146C21.7993 122.095 22.7489 116.731 22.0519 113.781C21.3548 110.831 23.3955 109.942 24.9209 111.69Z" fill="#FFA8A7"/>
<path d="M121.883 25.0102L116.508 29.4249C116.215 29.0894 115.993 28.6976 115.857 28.2734C115.72 27.8491 115.672 27.4015 115.714 26.9579C115.757 26.5143 115.889 26.0841 116.104 25.6936C116.319 25.3031 116.611 24.9605 116.963 24.6869C117.669 24.1016 118.572 23.8089 119.487 23.8691C120.402 23.9292 121.259 24.3375 121.883 25.0102Z" fill="#455A64"/>
<path d="M107.779 64.5612C107.779 61.177 115.669 56.1056 119.741 48.9734C123.812 41.8412 121.761 30.1528 116.205 28.3546C116.205 28.3546 116.094 17.7068 101.728 14.8781C87.3627 12.0495 82.8571 8.87739 80.3113 8.42278C77.7655 7.96818 77.2806 17.0198 80.6245 19.3939C78.2196 18.4486 76.0231 17.0414 74.159 15.2519C72.0678 13.2315 71.2395 23.7581 75.7552 27.4555C75.7552 27.4555 72.0173 29.6477 72.4719 35.1838C72.5607 37.2 73.3069 39.1317 74.5966 40.684C75.8862 42.2364 77.6485 43.324 79.6143 43.7808L107.779 64.5612Z" fill="#455A64"/>
<path d="M83.2817 24.6777C79.8167 26.183 76.5233 31.4766 76.5738 46.2966C76.5738 58.8538 80.4632 62.036 82.4129 62.9654C84.3627 63.8948 88.151 63.4301 91.8485 62.8543V70.0774C91.8485 70.0774 89.0906 72.795 90.0503 74.5123C91.01 76.2297 94.6165 77.6643 100.153 75.9166C106.466 73.8961 107.911 69.7239 107.911 69.7239L108.032 53.9239C108.032 53.9239 110.164 56.1565 113.892 52.9136C116.983 50.2163 118.094 45.5794 115.771 43.0336C113.447 40.4878 110.477 40.2858 107.8 43.1346L105.86 42.1244C102.436 41.7203 97.3542 41.1142 93.677 39.2755C84.1808 34.3557 83.1706 29.0823 83.2817 24.6777Z" fill="#FFA8A7"/>
<path d="M107.779 41.0137V47.9944C107.33 48.0098 106.882 47.9329 106.464 47.7684C106.046 47.6039 105.666 47.3554 105.348 47.0381C105.03 46.7209 104.78 46.3417 104.614 45.924C104.449 45.5064 104.37 45.0592 104.384 44.6101C104.385 43.691 104.737 42.8069 105.368 42.1385C105.999 41.4701 106.861 41.0677 107.779 41.0137Z" fill="#455A64"/>
<path d="M82.9473 41.9931C82.9595 42.2155 82.9276 42.4382 82.8533 42.6482C82.7791 42.8582 82.664 43.0515 82.5146 43.2168C82.3653 43.3821 82.1847 43.5162 81.9833 43.6113C81.7818 43.7065 81.5636 43.7608 81.341 43.7711C80.9974 43.7951 80.6544 43.7158 80.3562 43.5434C80.058 43.3711 79.8181 43.1135 79.6673 42.8037C79.5166 42.494 79.4619 42.1463 79.5103 41.8052C79.5587 41.4642 79.7079 41.1454 79.9388 40.8898C80.1697 40.6342 80.4718 40.4534 80.8062 40.3708C81.1406 40.2881 81.4921 40.3073 81.8155 40.4259C82.1389 40.5445 82.4194 40.7571 82.6211 41.0364C82.8228 41.3156 82.9364 41.6488 82.9473 41.9931Z" fill="#263238"/>
<path d="M96.2438 42.7304C96.2588 42.9696 96.2261 43.2094 96.1477 43.4358C96.0692 43.6622 95.9465 43.8708 95.7867 44.0494C95.6269 44.228 95.4332 44.3731 95.2168 44.4761C95.0005 44.5792 94.7658 44.6383 94.5264 44.6498C94.1567 44.6778 93.787 44.5946 93.4649 44.4108C93.1429 44.227 92.8831 43.9511 92.7191 43.6186C92.5551 43.286 92.4943 42.912 92.5445 42.5446C92.5947 42.1772 92.7536 41.8332 93.0009 41.5569C93.2482 41.2805 93.5724 41.0844 93.932 40.9938C94.2916 40.9032 94.67 40.9222 95.0187 41.0484C95.3674 41.1746 95.6704 41.4022 95.8887 41.7019C96.107 42.0017 96.2307 42.3598 96.2438 42.7304Z" fill="#263238"/>
<path d="M93.5248 53.0137L88.1504 54.6906C88.2333 55.0545 88.3897 55.3976 88.61 55.6989C88.8304 56.0001 89.11 56.2531 89.4316 56.4423C89.7533 56.6315 90.1103 56.753 90.4806 56.7992C90.851 56.8454 91.2268 56.8155 91.5852 56.7111C92.3122 56.4488 92.9145 55.9237 93.2735 55.2393C93.6326 54.5549 93.7222 53.7609 93.5248 53.0137Z" fill="#F28F8F"/>
<path d="M78.5321 38.8909L82.8356 37.1836C82.7362 36.8884 82.576 36.6174 82.3655 36.3878C82.1551 36.1583 81.8989 35.9753 81.6134 35.8506C81.328 35.726 81.0196 35.6624 80.7082 35.6641C80.3967 35.6657 80.0891 35.7325 79.805 35.8602C79.2493 36.1113 78.8092 36.5633 78.5731 37.1255C78.337 37.6876 78.3224 38.3183 78.5321 38.8909Z" fill="#263238"/>
<path d="M87.0199 40.6289L87.232 50.9231L81.7061 49.6907L87.0199 40.6289Z" fill="#F28F8F"/>
<path d="M91.849 62.8132C95.7383 62.3586 103.76 60.126 105.063 56.873C104.541 58.5061 103.542 59.9453 102.194 61.0049C99.7692 63.086 91.8389 65.2478 91.8389 65.2478L91.849 62.8132Z" fill="#F28F8F"/>
<path d="M107.962 63.9453C108.972 63.7432 109.891 64.1776 110.719 65.5919C111.548 67.0062 113.376 69.9763 113.376 69.9763C113.376 69.9763 114.316 79.8362 113.376 82.2809C112.558 84.4125 103.547 92.3832 103.547 92.3832C103.547 92.3832 105.901 101.243 105.981 104.142C106.062 107.042 100.395 118.083 99.7585 123.731C99.7585 123.731 97.9805 105.981 98.8089 99.6063C100.264 88.4938 105.466 74.2193 107.901 69.6834L107.962 63.9453Z" fill="#EBEBEB"/>
<path d="M108.193 124.942C106.882 125.808 105.34 126.258 103.769 126.235L103.9 125.225C105.102 125.24 106.284 124.91 107.304 124.275C106.327 123.502 105.473 122.586 104.769 121.557C103.324 119.315 101.051 104.01 102.445 100.605C103.597 97.7766 106.981 91.6445 109.517 91.6445H109.578C112.154 91.7557 115.043 98.2413 115.962 101.181C117.063 104.687 113.497 119.749 111.871 121.86C111.077 122.822 110.148 123.662 109.113 124.356C110.08 125.068 111.228 125.495 112.426 125.588V126.598H112.305C110.807 126.44 109.383 125.866 108.193 124.942ZM103.375 100.989C102.102 104.121 104.284 118.931 105.617 121.002C106.344 122.044 107.23 122.964 108.244 123.729C109.323 123.058 110.285 122.215 111.093 121.234C112.608 119.284 116.043 104.707 115.033 101.484C113.79 97.5443 111.083 92.7255 109.567 92.6649C108.012 92.6548 104.941 97.1907 103.375 100.989Z" fill="#455A64"/>
<path d="M102.365 125.7C102.357 125.895 102.387 126.09 102.454 126.273C102.522 126.456 102.624 126.625 102.757 126.768C102.889 126.912 103.048 127.028 103.226 127.11C103.403 127.192 103.594 127.238 103.789 127.246C104.184 127.26 104.568 127.118 104.858 126.852C105.149 126.585 105.324 126.215 105.345 125.821C105.361 125.419 105.217 125.028 104.944 124.732C104.671 124.436 104.292 124.261 103.89 124.245C103.489 124.229 103.097 124.374 102.801 124.646C102.506 124.919 102.331 125.298 102.314 125.7H102.365Z" fill="#263238"/>
<path d="M110.992 126.034C110.974 126.428 111.114 126.813 111.38 127.103C111.646 127.394 112.017 127.567 112.411 127.585C112.805 127.602 113.19 127.462 113.48 127.196C113.771 126.93 113.944 126.559 113.962 126.165C113.97 125.97 113.941 125.776 113.874 125.592C113.807 125.409 113.705 125.24 113.573 125.096C113.441 124.952 113.283 124.835 113.106 124.753C112.929 124.67 112.737 124.623 112.542 124.615C112.347 124.606 112.153 124.636 111.969 124.703C111.786 124.769 111.617 124.871 111.473 125.003C111.329 125.135 111.212 125.294 111.13 125.471C111.047 125.648 111 125.839 110.992 126.034Z" fill="#263238"/>
<path d="M102.193 107.243L103.042 107.182C103.085 107.18 103.128 107.169 103.168 107.149C103.207 107.13 103.243 107.103 103.272 107.071C103.301 107.038 103.323 106.999 103.337 106.958C103.352 106.916 103.358 106.872 103.355 106.829C103.112 104.915 103.201 102.974 103.617 101.091C105.113 97.4336 108.204 92.8572 109.558 92.9178C110.911 92.9784 113.599 97.7972 114.791 101.565C115.063 102.424 114.972 104.505 114.568 107.303C114.554 107.391 114.574 107.48 114.625 107.552C114.677 107.624 114.754 107.673 114.841 107.687L115.69 107.819C115.734 107.824 115.778 107.821 115.821 107.809C115.863 107.798 115.903 107.778 115.938 107.75C115.973 107.723 116.002 107.689 116.023 107.651C116.045 107.612 116.059 107.57 116.064 107.526C116.528 104.384 116.589 102.222 116.235 101.111C115.609 99.0903 112.629 91.5237 109.628 91.3924C106.628 91.261 103.011 98.5549 102.213 100.484C101.769 101.565 101.637 103.717 101.839 106.889C101.837 106.937 101.844 106.984 101.86 107.028C101.877 107.072 101.903 107.112 101.936 107.146C101.97 107.179 102.01 107.205 102.054 107.222C102.099 107.239 102.146 107.246 102.193 107.243Z" fill="#50B5E5"/>
<path d="M13.8203 38.4304V50.9774L24.6904 44.7039V57.261L35.5604 50.9774V38.4304L46.4305 32.1568V19.5997L35.5301 25.9035L35.5604 13.3262L24.6904 19.5997V32.1568L13.8203 38.4304Z" fill="#50B5E5"/>
<path d="M13.8193 50.9784L9.16211 48.2912V35.7441L13.8193 38.4314V50.9784Z" fill="#50B5E5"/>
<path d="M24.6893 32.156L20.0322 29.4688L9.16211 35.7423L13.8193 38.4295L24.6893 32.156Z" fill="#50B5E5"/>
<path d="M24.6884 19.5993L20.0312 16.9121V29.4693L24.6884 32.1565V19.5993Z" fill="#50B5E5"/>
<path d="M35.5585 13.3259L30.9013 10.6387L20.0312 16.9122L24.6884 19.5994L35.5585 13.3259Z" fill="#50B5E5"/>
<path d="M24.6884 57.2603L20.0312 54.563V47.3903L24.6884 44.7031V57.2603Z" fill="#50B5E5"/>
<g opacity="0.2">
<path d="M13.8193 50.9764L9.16211 48.2892V35.7422L13.8193 38.4294V50.9764Z" fill="black"/>
<path d="M24.6884 19.5993L20.0312 16.9121V29.4693L24.6884 32.1565V19.5993Z" fill="black"/>
<path d="M24.6884 57.2603L20.0312 54.563V47.3903L24.6884 44.7031V57.2603Z" fill="black"/>
</g>
<path d="M46.4297 19.5993L41.7725 16.9121L35.5394 20.4883L35.5293 25.9032L46.4297 19.5993Z" fill="#50B5E5"/>
<g opacity="0.5">
<path d="M24.6893 32.156L20.0322 29.4688L9.16211 35.7423L13.8193 38.4295L24.6893 32.156Z" fill="white"/>
<path d="M35.5585 13.3259L30.9013 10.6387L20.0312 16.9122L24.6884 19.5994L35.5585 13.3259Z" fill="white"/>
<path d="M46.4297 19.5993L41.7725 16.9121L35.5394 20.4883L35.5293 25.9032L46.4297 19.5993Z" fill="white"/>
</g>
<path d="M410.486 19.3964C410.486 20.6289 411.304 21.8715 412.941 22.811C414.775 23.7427 416.803 24.2283 418.861 24.2283C420.918 24.2283 422.946 23.7427 424.781 22.811C426.417 21.8715 427.236 20.6289 427.236 19.3964V8.3849C427.236 6.16109 426.352 4.02836 424.78 2.45588C423.207 0.883408 421.075 0 418.851 0C416.627 0 414.494 0.883408 412.922 2.45588C411.349 4.02836 410.466 6.16109 410.466 8.3849L410.486 19.3964Z" fill="#F5F5F5"/>
<path d="M410.486 33.9337C410.486 36.1575 411.37 38.2902 412.942 39.8627C414.515 41.4352 416.647 42.3186 418.871 42.3186C421.095 42.3186 423.228 41.4352 424.8 39.8627C426.373 38.2902 427.256 36.1575 427.256 33.9337V19.3965C427.256 20.629 426.438 21.8716 424.801 22.8111C422.967 23.7428 420.939 24.2283 418.881 24.2283C416.824 24.2283 414.796 23.7428 412.961 22.8111C411.315 21.8716 410.486 20.6391 410.486 19.3965V33.9337Z" fill="#50B5E5"/>
<path opacity="0.4" d="M422.074 38.4496C421.652 38.451 421.235 38.3691 420.845 38.2088C420.456 38.0484 420.101 37.8128 419.803 37.5153C419.504 37.2177 419.268 36.8643 419.106 36.4751C418.944 36.0859 418.861 35.6686 418.861 35.2472V18.1844C420.927 18.1399 422.969 18.6269 424.791 19.5988C424.973 19.6998 425.125 19.8008 425.286 19.9119V35.2472C425.284 36.0975 424.944 36.912 424.342 37.5123C423.74 38.1126 422.924 38.4496 422.074 38.4496Z" fill="white"/>
<path d="M410.486 19.3964C410.486 20.6289 411.304 21.8715 412.941 22.811C414.775 23.7427 416.803 24.2283 418.861 24.2283C420.918 24.2283 422.946 23.7427 424.781 22.811C426.417 21.8715 427.236 20.6289 427.236 19.3964V8.3849C427.236 6.16109 426.352 4.02836 424.78 2.45588C423.207 0.883408 421.075 0 418.851 0C416.627 0 414.494 0.883408 412.922 2.45588C411.349 4.02836 410.466 6.16109 410.466 8.3849L410.486 19.3964Z" fill="#F5F5F5"/>
<path opacity="0.1" d="M424.791 22.8111C422.957 23.7428 420.929 24.2283 418.871 24.2283C416.814 24.2283 414.786 23.7428 412.951 22.8111C411.315 21.8716 410.486 20.6391 410.486 19.3965V20.6391C410.486 21.8817 411.305 23.1141 412.941 24.0637C414.775 24.9954 416.804 25.481 418.861 25.481C420.918 25.481 422.947 24.9954 424.781 24.0637C426.418 23.1141 427.236 21.8817 427.236 20.6391V19.4268C427.246 20.6391 426.428 21.8716 424.791 22.8111Z" fill="black"/>
<path d="M423.791 1.6165C422.542 0.706933 421.066 0.160655 419.525 0.0381049C417.985 -0.0844451 416.441 0.221512 415.064 0.922125C413.687 1.62274 412.53 2.69069 411.722 4.00782C410.914 5.32494 410.487 6.83989 410.486 8.38504V19.3965C410.486 20.629 411.305 21.8716 412.941 22.8111C413.695 23.2516 414.503 23.5912 415.346 23.8213V6.8798C415.356 2.0509 421.397 0.282997 423.791 1.6165Z" fill="#E0E0E0"/>
<path d="M422.074 3.95898C421.222 3.95898 420.405 4.29745 419.802 4.89991C419.2 5.50238 418.861 6.31949 418.861 7.17151V24.2343C420.927 24.2753 422.969 23.7848 424.791 22.8099C424.973 22.7088 425.125 22.6078 425.286 22.5068V7.17151C425.286 6.31949 424.948 5.50238 424.345 4.89991C423.743 4.29745 422.926 3.95898 422.074 3.95898Z" fill="white"/>
<path opacity="0.1" d="M419.912 42.2479L420.387 42.1671L420.72 42.1064L421.094 42.0054L421.478 41.8943L421.659 41.8236C422.21 41.632 422.739 41.3813 423.235 41.076C423.415 40.9733 423.587 40.8585 423.751 40.7325C421.356 42.0559 415.315 40.2981 415.315 35.4692V23.7809C414.473 23.5507 413.665 23.2111 412.911 22.7707C411.315 21.8716 410.486 20.6391 410.486 19.3965V33.9337C410.489 36.1567 411.373 38.2879 412.945 39.8598C414.517 41.4316 416.648 42.3159 418.871 42.3186C419.134 42.3186 419.397 42.3186 419.649 42.3186L419.912 42.2479Z" fill="black"/>
</svg>
