<svg width="1280" height="832" viewBox="0 0 1280 832" fill="none" xmlns="http://www.w3.org/2000/svg">
<path fill-rule="evenodd" clip-rule="evenodd" d="M1438.6 328.003C1473.73 341.229 1503.29 360.951 1531.29 391.54C1593.81 458.031 1659.99 600.349 1690.51 684.854C1718.79 764.222 1758.59 903.766 1746.39 986.503C1746.39 986.503 1742.46 1073.79 1640.14 1079.64C1634.11 1080.23 1628.07 1080.82 1621.29 1079.7C1573.29 1080.23 1541.15 1073.86 1499.99 1061.22C1432.73 1041.62 1340.72 994.088 1287.35 958.245C1204.43 902.68 1131.33 840.795 1070.65 759.244C1069.9 757.532 1069.9 757.532 1069.9 757.532C1000.94 671.434 966.697 578.366 966.697 578.366C966.697 578.366 962.967 569.804 959.509 557.048C958.017 553.623 957.271 551.91 956.525 550.198C952.796 541.635 951.575 534.017 949.608 524.687C915.77 398.843 946.414 295.85 1107.11 274.757C1103.58 276.292 1282.59 263.525 1438.6 328.003Z" fill="#50B5E5"/>
<path fill-rule="evenodd" clip-rule="evenodd" d="M-421.577 175.284C-404.246 141.995 -381.13 115.002 -347.413 90.8556C-273.924 36.7365 -124.714 -11.9543 -37.1663 -32.1463C45.0131 -50.731 188.315 -73.5668 268.999 -51.5601C268.999 -51.5601 355.187 -37.2227 348.764 65.0592C348.63 71.1211 348.495 77.183 346.571 83.7807C341.362 131.506 331.189 162.652 313.724 202.004C286.22 266.44 228.027 352.108 186.061 400.803C120.98 476.491 50.7995 541.662 -37.4222 592.163C-39.2117 592.699 -39.2117 592.699 -39.2117 592.699C-132.937 650.87 -229.431 673.741 -229.431 673.741C-229.431 673.741 -238.378 676.42 -251.456 678.329C-255.035 679.4 -256.824 679.936 -258.614 680.472C-267.561 683.151 -275.27 683.452 -284.769 684.289C-413.756 702.838 -512.347 660.1 -514.075 498.036C-512.972 501.72 -504.246 322.475 -421.577 175.284Z" fill="#50B5E5"/>
</svg>
