<svg width="1280" height="58" viewBox="0 0 1280 58" fill="none" xmlns="http://www.w3.org/2000/svg">
<g filter="url(#filter0_d_11149_239640)">
<rect width="1280" height="58" fill="white"/>
</g>
<path d="M24.036 21.636H23.124L22.788 24.216H23.592V25.044H22.668L22.416 27H21.48L21.732 25.044H19.884L19.632 27H18.696L18.948 25.044H18.18V24.216H19.068L19.404 21.636H18.624V20.796H19.512L19.752 18.972H20.688L20.448 20.796H22.296L22.536 18.972H23.472L23.232 20.796H24.036V21.636ZM21.852 24.216L22.188 21.636H20.34L20.004 24.216H21.852ZM26.8532 18.852C27.3332 18.852 27.7532 18.948 28.1132 19.14C28.4812 19.332 28.7652 19.596 28.9652 19.932C29.1652 20.26 29.2652 20.632 29.2652 21.048C29.2652 21.536 29.1532 22.004 28.9292 22.452C28.7132 22.9 28.3772 23.384 27.9212 23.904C27.4652 24.424 26.7732 25.148 25.8452 26.076H29.4572L29.3252 27H24.5852V26.124C25.6572 25.012 26.4172 24.2 26.8652 23.688C27.3132 23.168 27.6332 22.716 27.8252 22.332C28.0172 21.948 28.1132 21.536 28.1132 21.096C28.1132 20.68 27.9932 20.356 27.7532 20.124C27.5132 19.884 27.1932 19.764 26.7932 19.764C26.4652 19.764 26.1772 19.832 25.9292 19.968C25.6812 20.104 25.4172 20.328 25.1372 20.64L24.4172 20.064C24.7452 19.656 25.1092 19.352 25.5092 19.152C25.9092 18.952 26.3572 18.852 26.8532 18.852ZM33.4066 18.852C34.2946 18.852 34.9626 19.208 35.4106 19.92C35.8666 20.624 36.0946 21.648 36.0946 22.992C36.0946 24.336 35.8666 25.364 35.4106 26.076C34.9626 26.788 34.2946 27.144 33.4066 27.144C32.5186 27.144 31.8466 26.788 31.3906 26.076C30.9426 25.364 30.7186 24.336 30.7186 22.992C30.7186 21.648 30.9426 20.624 31.3906 19.92C31.8466 19.208 32.5186 18.852 33.4066 18.852ZM33.4066 19.728C32.8866 19.728 32.4986 19.984 32.2426 20.496C31.9946 21.008 31.8706 21.84 31.8706 22.992C31.8706 24.144 31.9946 24.98 32.2426 25.5C32.4986 26.012 32.8866 26.268 33.4066 26.268C33.9186 26.268 34.3026 26.012 34.5586 25.5C34.8146 24.98 34.9426 24.144 34.9426 22.992C34.9426 21.848 34.8146 21.02 34.5586 20.508C34.3026 19.988 33.9186 19.728 33.4066 19.728ZM39.3328 18.852C39.8288 18.852 40.2528 18.944 40.6048 19.128C40.9648 19.312 41.2368 19.56 41.4208 19.872C41.6128 20.184 41.7088 20.524 41.7088 20.892C41.7088 21.38 41.5648 21.784 41.2768 22.104C40.9968 22.416 40.6208 22.628 40.1488 22.74C40.6848 22.788 41.1208 22.98 41.4568 23.316C41.7928 23.652 41.9608 24.108 41.9608 24.684C41.9608 25.148 41.8488 25.568 41.6248 25.944C41.4008 26.32 41.0808 26.616 40.6648 26.832C40.2488 27.04 39.7688 27.144 39.2248 27.144C38.7368 27.144 38.2888 27.056 37.8808 26.88C37.4728 26.696 37.1168 26.424 36.8128 26.064L37.4728 25.452C37.7368 25.724 38.0048 25.924 38.2768 26.052C38.5568 26.18 38.8608 26.244 39.1888 26.244C39.6928 26.244 40.0888 26.104 40.3768 25.824C40.6648 25.536 40.8088 25.152 40.8088 24.672C40.8088 24.144 40.6728 23.772 40.4008 23.556C40.1288 23.34 39.7328 23.232 39.2128 23.232H38.6128L38.7448 22.38H39.1528C39.5688 22.38 39.9128 22.256 40.1848 22.008C40.4648 21.76 40.6048 21.412 40.6048 20.964C40.6048 20.588 40.4848 20.292 40.2448 20.076C40.0048 19.852 39.6808 19.74 39.2728 19.74C38.9608 19.74 38.6728 19.796 38.4088 19.908C38.1528 20.02 37.8888 20.204 37.6168 20.46L37.0408 19.8C37.7208 19.168 38.4848 18.852 39.3328 18.852ZM46.1924 18.972V27H45.0884V20.148L43.2164 21.288L42.7364 20.508L45.2204 18.972H46.1924ZM53.1118 27L52.4878 24.924H49.3558L48.7318 27H47.5798L50.2318 18.732H51.6718L54.3118 27H53.1118ZM49.6318 24H52.2118L50.9278 19.68L49.6318 24ZM59.2347 22.632C59.8027 22.728 60.2627 22.928 60.6147 23.232C60.9667 23.536 61.1427 24.008 61.1427 24.648C61.1427 26.216 60.0507 27 57.8667 27H55.5867V18.732H57.5427C58.5907 18.732 59.3907 18.904 59.9427 19.248C60.5027 19.592 60.7827 20.116 60.7827 20.82C60.7827 21.3 60.6307 21.7 60.3267 22.02C60.0307 22.34 59.6667 22.544 59.2347 22.632ZM56.7267 19.632V22.236H57.9747C58.4547 22.236 58.8467 22.12 59.1507 21.888C59.4627 21.656 59.6187 21.328 59.6187 20.904C59.6187 20.424 59.4547 20.092 59.1267 19.908C58.8067 19.724 58.3187 19.632 57.6627 19.632H56.7267ZM57.8667 26.088C58.5387 26.088 59.0507 25.988 59.4027 25.788C59.7627 25.588 59.9427 25.208 59.9427 24.648C59.9427 24.104 59.7707 23.712 59.4267 23.472C59.0827 23.232 58.6347 23.112 58.0827 23.112H56.7267V26.088H57.8667ZM65.7795 18.588C66.2755 18.588 66.6915 18.652 67.0275 18.78C67.3715 18.908 67.7195 19.116 68.0715 19.404L67.4475 20.136C66.9435 19.728 66.4115 19.524 65.8515 19.524C65.1635 19.524 64.6075 19.788 64.1835 20.316C63.7675 20.844 63.5595 21.692 63.5595 22.86C63.5595 23.996 63.7675 24.836 64.1835 25.38C64.5995 25.916 65.1515 26.184 65.8395 26.184C66.1915 26.184 66.4995 26.124 66.7635 26.004C67.0275 25.884 67.3075 25.716 67.6035 25.5L68.1675 26.22C67.9115 26.484 67.5835 26.704 67.1835 26.88C66.7835 27.056 66.3235 27.144 65.8035 27.144C65.1315 27.144 64.5315 26.98 64.0035 26.652C63.4835 26.316 63.0755 25.828 62.7795 25.188C62.4915 24.54 62.3475 23.764 62.3475 22.86C62.3475 21.956 62.4995 21.184 62.8035 20.544C63.1075 19.896 63.5195 19.408 64.0395 19.08C64.5595 18.752 65.1395 18.588 65.7795 18.588ZM71.516 18.852C72.404 18.852 73.072 19.208 73.52 19.92C73.976 20.624 74.204 21.648 74.204 22.992C74.204 24.336 73.976 25.364 73.52 26.076C73.072 26.788 72.404 27.144 71.516 27.144C70.628 27.144 69.956 26.788 69.5 26.076C69.052 25.364 68.828 24.336 68.828 22.992C68.828 21.648 69.052 20.624 69.5 19.92C69.956 19.208 70.628 18.852 71.516 18.852ZM71.516 19.728C70.996 19.728 70.608 19.984 70.352 20.496C70.104 21.008 69.98 21.84 69.98 22.992C69.98 24.144 70.104 24.98 70.352 25.5C70.608 26.012 70.996 26.268 71.516 26.268C72.028 26.268 72.412 26.012 72.668 25.5C72.924 24.98 73.052 24.144 73.052 22.992C73.052 21.848 72.924 21.02 72.668 20.508C72.412 19.988 72.028 19.728 71.516 19.728ZM78.4307 18.972V27H77.3267V20.148L75.4547 21.288L74.9747 20.508L77.4587 18.972H78.4307ZM84.5941 22.632C85.1621 22.728 85.6221 22.928 85.9741 23.232C86.3261 23.536 86.5021 24.008 86.5021 24.648C86.5021 26.216 85.4101 27 83.2261 27H80.9461V18.732H82.9021C83.9501 18.732 84.7501 18.904 85.3021 19.248C85.8621 19.592 86.1421 20.116 86.1421 20.82C86.1421 21.3 85.9901 21.7 85.6861 22.02C85.3901 22.34 85.0261 22.544 84.5941 22.632ZM82.0861 19.632V22.236H83.3341C83.8141 22.236 84.2061 22.12 84.5101 21.888C84.8221 21.656 84.9781 21.328 84.9781 20.904C84.9781 20.424 84.8141 20.092 84.4861 19.908C84.1661 19.724 83.6781 19.632 83.0221 19.632H82.0861ZM83.2261 26.088C83.8981 26.088 84.4101 25.988 84.7621 25.788C85.1221 25.588 85.3021 25.208 85.3021 24.648C85.3021 24.104 85.1301 23.712 84.7861 23.472C84.4421 23.232 83.9941 23.112 83.4421 23.112H82.0861V26.088H83.2261ZM92.5923 27L91.9683 24.924H88.8363L88.2123 27H87.0603L89.7123 18.732H91.1523L93.7923 27H92.5923ZM89.1123 24H91.6923L90.4083 19.68L89.1123 24Z" fill="#686464"/>
<path d="M678.876 21.972V30H677.772V23.148L675.9 24.288L675.42 23.508L677.904 21.972H678.876ZM683.299 21.852C684.147 21.852 684.791 22.132 685.231 22.692C685.671 23.244 685.891 24.004 685.891 24.972C685.891 26.068 685.743 26.952 685.447 27.624C685.151 28.288 684.699 28.82 684.091 29.22C683.483 29.612 682.659 29.96 681.619 30.264L681.367 29.436C682.439 29.132 683.259 28.72 683.827 28.2C684.403 27.68 684.711 26.988 684.751 26.124C684.567 26.412 684.319 26.644 684.007 26.82C683.695 26.996 683.343 27.084 682.951 27.084C682.535 27.084 682.159 26.98 681.823 26.772C681.487 26.556 681.219 26.256 681.019 25.872C680.827 25.48 680.731 25.024 680.731 24.504C680.731 23.96 680.847 23.488 681.079 23.088C681.311 22.688 681.619 22.384 682.003 22.176C682.395 21.96 682.827 21.852 683.299 21.852ZM683.179 26.22C683.811 26.22 684.343 25.888 684.775 25.224C684.791 24.336 684.679 23.7 684.439 23.316C684.207 22.924 683.835 22.728 683.323 22.728C682.851 22.728 682.487 22.884 682.231 23.196C681.975 23.508 681.847 23.952 681.847 24.528C681.847 25.088 681.967 25.512 682.207 25.8C682.447 26.08 682.771 26.22 683.179 26.22ZM690.876 25.692C692.004 26.148 692.568 26.868 692.568 27.852C692.568 28.292 692.448 28.688 692.208 29.04C691.976 29.384 691.648 29.656 691.224 29.856C690.8 30.048 690.32 30.144 689.784 30.144C689.24 30.144 688.76 30.048 688.344 29.856C687.928 29.664 687.604 29.396 687.372 29.052C687.148 28.708 687.036 28.316 687.036 27.876C687.036 27.38 687.168 26.964 687.432 26.628C687.704 26.292 688.1 26.012 688.62 25.788C688.196 25.572 687.88 25.312 687.672 25.008C687.472 24.696 687.372 24.332 687.372 23.916C687.372 23.484 687.484 23.112 687.708 22.8C687.94 22.488 688.24 22.252 688.608 22.092C688.984 21.932 689.384 21.852 689.808 21.852C690.224 21.852 690.616 21.928 690.984 22.08C691.36 22.232 691.664 22.464 691.896 22.776C692.128 23.08 692.244 23.448 692.244 23.88C692.244 24.28 692.132 24.624 691.908 24.912C691.684 25.2 691.34 25.46 690.876 25.692ZM689.808 22.68C689.392 22.68 689.06 22.788 688.812 23.004C688.572 23.22 688.452 23.528 688.452 23.928C688.452 24.312 688.568 24.604 688.8 24.804C689.04 25.004 689.42 25.188 689.94 25.356L690.144 25.428C690.504 25.22 690.764 25 690.924 24.768C691.084 24.536 691.164 24.252 691.164 23.916C691.164 23.54 691.044 23.24 690.804 23.016C690.572 22.792 690.24 22.68 689.808 22.68ZM689.796 29.268C690.292 29.268 690.684 29.14 690.972 28.884C691.268 28.628 691.416 28.288 691.416 27.864C691.416 27.576 691.36 27.336 691.248 27.144C691.136 26.944 690.956 26.772 690.708 26.628C690.46 26.476 690.112 26.324 689.664 26.172L689.364 26.064C688.964 26.256 688.668 26.5 688.476 26.796C688.284 27.084 688.188 27.444 688.188 27.876C688.188 28.316 688.332 28.66 688.62 28.908C688.908 29.148 689.3 29.268 689.796 29.268ZM694.533 28.476C694.773 28.476 694.973 28.556 695.133 28.716C695.293 28.876 695.373 29.072 695.373 29.304C695.373 29.536 695.293 29.736 695.133 29.904C694.973 30.064 694.773 30.144 694.533 30.144C694.301 30.144 694.105 30.064 693.945 29.904C693.785 29.736 693.705 29.536 693.705 29.304C693.705 29.072 693.785 28.876 693.945 28.716C694.105 28.556 694.301 28.476 694.533 28.476ZM698.669 21.972V30H697.565V23.148L695.693 24.288L695.213 23.508L697.697 21.972H698.669ZM703.68 24.72C704.088 24.72 704.46 24.816 704.796 25.008C705.132 25.2 705.4 25.488 705.6 25.872C705.8 26.256 705.9 26.724 705.9 27.276C705.9 27.844 705.784 28.348 705.552 28.788C705.328 29.22 705.02 29.556 704.628 29.796C704.244 30.028 703.816 30.144 703.344 30.144C702.408 30.144 701.724 29.8 701.292 29.112C700.86 28.416 700.644 27.456 700.644 26.232C700.644 25.36 700.764 24.596 701.004 23.94C701.252 23.276 701.604 22.764 702.06 22.404C702.516 22.036 703.056 21.852 703.68 21.852C704.288 21.852 704.84 22.016 705.336 22.344L704.904 23.076C704.528 22.844 704.116 22.728 703.668 22.728C703.092 22.728 702.636 23.004 702.3 23.556C701.964 24.108 701.78 24.848 701.748 25.776C702.244 25.072 702.888 24.72 703.68 24.72ZM703.344 29.268C703.808 29.268 704.164 29.092 704.412 28.74C704.66 28.388 704.784 27.912 704.784 27.312C704.784 26.168 704.352 25.596 703.488 25.596C703.136 25.596 702.812 25.696 702.516 25.896C702.22 26.088 701.968 26.356 701.76 26.7C701.784 27.58 701.92 28.228 702.168 28.644C702.424 29.06 702.816 29.268 703.344 29.268ZM710.763 25.692C711.891 26.148 712.455 26.868 712.455 27.852C712.455 28.292 712.335 28.688 712.095 29.04C711.863 29.384 711.535 29.656 711.111 29.856C710.687 30.048 710.207 30.144 709.671 30.144C709.127 30.144 708.647 30.048 708.231 29.856C707.815 29.664 707.491 29.396 707.259 29.052C707.035 28.708 706.923 28.316 706.923 27.876C706.923 27.38 707.055 26.964 707.319 26.628C707.591 26.292 707.987 26.012 708.507 25.788C708.083 25.572 707.767 25.312 707.559 25.008C707.359 24.696 707.259 24.332 707.259 23.916C707.259 23.484 707.371 23.112 707.595 22.8C707.827 22.488 708.127 22.252 708.495 22.092C708.871 21.932 709.271 21.852 709.695 21.852C710.111 21.852 710.503 21.928 710.871 22.08C711.247 22.232 711.551 22.464 711.783 22.776C712.015 23.08 712.131 23.448 712.131 23.88C712.131 24.28 712.019 24.624 711.795 24.912C711.571 25.2 711.227 25.46 710.763 25.692ZM709.695 22.68C709.279 22.68 708.947 22.788 708.699 23.004C708.459 23.22 708.339 23.528 708.339 23.928C708.339 24.312 708.455 24.604 708.687 24.804C708.927 25.004 709.307 25.188 709.827 25.356L710.031 25.428C710.391 25.22 710.651 25 710.811 24.768C710.971 24.536 711.051 24.252 711.051 23.916C711.051 23.54 710.931 23.24 710.691 23.016C710.459 22.792 710.127 22.68 709.695 22.68ZM709.683 29.268C710.179 29.268 710.571 29.14 710.859 28.884C711.155 28.628 711.303 28.288 711.303 27.864C711.303 27.576 711.247 27.336 711.135 27.144C711.023 26.944 710.843 26.772 710.595 26.628C710.347 26.476 709.999 26.324 709.551 26.172L709.251 26.064C708.851 26.256 708.555 26.5 708.363 26.796C708.171 27.084 708.075 27.444 708.075 27.876C708.075 28.316 708.219 28.66 708.507 28.908C708.795 29.148 709.187 29.268 709.683 29.268ZM714.42 28.476C714.66 28.476 714.86 28.556 715.02 28.716C715.18 28.876 715.26 29.072 715.26 29.304C715.26 29.536 715.18 29.736 715.02 29.904C714.86 30.064 714.66 30.144 714.42 30.144C714.188 30.144 713.992 30.064 713.832 29.904C713.672 29.736 713.592 29.536 713.592 29.304C713.592 29.072 713.672 28.876 713.832 28.716C713.992 28.556 714.188 28.476 714.42 28.476ZM718.556 21.972V30H717.452V23.148L715.58 24.288L715.1 23.508L717.584 21.972H718.556ZM721.299 28.476C721.539 28.476 721.739 28.556 721.899 28.716C722.059 28.876 722.139 29.072 722.139 29.304C722.139 29.536 722.059 29.736 721.899 29.904C721.739 30.064 721.539 30.144 721.299 30.144C721.067 30.144 720.871 30.064 720.711 29.904C720.551 29.736 720.471 29.536 720.471 29.304C720.471 29.072 720.551 28.876 720.711 28.716C720.871 28.556 721.067 28.476 721.299 28.476ZM725.49 21.852C725.97 21.852 726.39 21.948 726.75 22.14C727.118 22.332 727.402 22.596 727.602 22.932C727.802 23.26 727.902 23.632 727.902 24.048C727.902 24.536 727.79 25.004 727.566 25.452C727.35 25.9 727.014 26.384 726.558 26.904C726.102 27.424 725.41 28.148 724.482 29.076H728.094L727.962 30H723.222V29.124C724.294 28.012 725.054 27.2 725.502 26.688C725.95 26.168 726.27 25.716 726.462 25.332C726.654 24.948 726.75 24.536 726.75 24.096C726.75 23.68 726.63 23.356 726.39 23.124C726.15 22.884 725.83 22.764 725.43 22.764C725.102 22.764 724.814 22.832 724.566 22.968C724.318 23.104 724.054 23.328 723.774 23.64L723.054 23.064C723.382 22.656 723.746 22.352 724.146 22.152C724.546 21.952 724.994 21.852 725.49 21.852ZM731.337 21.852C731.833 21.852 732.257 21.944 732.609 22.128C732.969 22.312 733.241 22.56 733.425 22.872C733.617 23.184 733.713 23.524 733.713 23.892C733.713 24.38 733.569 24.784 733.281 25.104C733.001 25.416 732.625 25.628 732.153 25.74C732.689 25.788 733.125 25.98 733.461 26.316C733.797 26.652 733.965 27.108 733.965 27.684C733.965 28.148 733.853 28.568 733.629 28.944C733.405 29.32 733.085 29.616 732.669 29.832C732.253 30.04 731.773 30.144 731.229 30.144C730.741 30.144 730.293 30.056 729.885 29.88C729.477 29.696 729.121 29.424 728.817 29.064L729.477 28.452C729.741 28.724 730.009 28.924 730.281 29.052C730.561 29.18 730.865 29.244 731.193 29.244C731.697 29.244 732.093 29.104 732.381 28.824C732.669 28.536 732.813 28.152 732.813 27.672C732.813 27.144 732.677 26.772 732.405 26.556C732.133 26.34 731.737 26.232 731.217 26.232H730.617L730.749 25.38H731.157C731.573 25.38 731.917 25.256 732.189 25.008C732.469 24.76 732.609 24.412 732.609 23.964C732.609 23.588 732.489 23.292 732.249 23.076C732.009 22.852 731.685 22.74 731.277 22.74C730.965 22.74 730.677 22.796 730.413 22.908C730.157 23.02 729.893 23.204 729.621 23.46L729.045 22.8C729.725 22.168 730.489 21.852 731.337 21.852ZM738.196 21.972V30H737.092V23.148L735.22 24.288L734.74 23.508L737.224 21.972H738.196Z" fill="#686464"/>
<path d="M1206.37 31.732C1207.4 31.732 1208.19 31.948 1208.75 32.38C1209.31 32.804 1209.59 33.44 1209.59 34.288C1209.59 35.192 1209.3 35.864 1208.71 36.304C1208.13 36.744 1207.35 36.964 1206.38 36.964H1205.34V40H1204.2V31.732H1206.37ZM1206.34 36.064C1207 36.064 1207.5 35.936 1207.85 35.68C1208.2 35.424 1208.38 34.964 1208.38 34.3C1208.38 33.708 1208.2 33.28 1207.85 33.016C1207.5 32.752 1207.01 32.62 1206.36 32.62H1205.34V36.064H1206.34ZM1213.13 33.532C1214.01 33.532 1214.7 33.828 1215.19 34.42C1215.69 35.012 1215.93 35.816 1215.93 36.832C1215.93 37.488 1215.82 38.068 1215.6 38.572C1215.37 39.068 1215.05 39.456 1214.63 39.736C1214.2 40.008 1213.7 40.144 1213.11 40.144C1212.23 40.144 1211.53 39.848 1211.04 39.256C1210.54 38.664 1210.29 37.86 1210.29 36.844C1210.29 36.188 1210.41 35.612 1210.63 35.116C1210.85 34.612 1211.18 34.224 1211.6 33.952C1212.03 33.672 1212.53 33.532 1213.13 33.532ZM1213.13 34.42C1212.03 34.42 1211.48 35.228 1211.48 36.844C1211.48 38.452 1212.03 39.256 1213.11 39.256C1214.2 39.256 1214.75 38.448 1214.75 36.832C1214.75 35.224 1214.21 34.42 1213.13 34.42ZM1224.98 33.676L1223.54 40H1222.04L1220.94 34.672L1219.8 40H1218.33L1216.86 33.676H1217.96L1219.1 39.232L1220.35 33.676H1221.59L1222.77 39.232L1223.93 33.676H1224.98ZM1231.13 36.652C1231.13 36.836 1231.13 37.024 1231.11 37.216H1227.08C1227.13 37.912 1227.3 38.424 1227.61 38.752C1227.91 39.08 1228.3 39.244 1228.78 39.244C1229.09 39.244 1229.37 39.2 1229.62 39.112C1229.88 39.024 1230.15 38.884 1230.43 38.692L1230.91 39.352C1230.23 39.88 1229.5 40.144 1228.7 40.144C1227.82 40.144 1227.13 39.856 1226.63 39.28C1226.15 38.704 1225.9 37.912 1225.9 36.904C1225.9 36.248 1226.01 35.668 1226.21 35.164C1226.43 34.652 1226.73 34.252 1227.13 33.964C1227.53 33.676 1227.99 33.532 1228.53 33.532C1229.37 33.532 1230.01 33.808 1230.46 34.36C1230.91 34.912 1231.13 35.676 1231.13 36.652ZM1230.04 36.328C1230.04 35.704 1229.92 35.228 1229.67 34.9C1229.42 34.572 1229.05 34.408 1228.55 34.408C1227.65 34.408 1227.16 35.072 1227.08 36.4H1230.04V36.328ZM1235.65 33.532C1235.87 33.532 1236.08 33.556 1236.27 33.604L1236.07 34.684C1235.87 34.636 1235.69 34.612 1235.51 34.612C1235.12 34.612 1234.81 34.756 1234.57 35.044C1234.33 35.332 1234.14 35.78 1234 36.388V40H1232.9V33.676H1233.85L1233.95 34.96C1234.12 34.488 1234.35 34.132 1234.64 33.892C1234.93 33.652 1235.26 33.532 1235.65 33.532ZM1241.94 36.652C1241.94 36.836 1241.93 37.024 1241.92 37.216H1237.88C1237.93 37.912 1238.11 38.424 1238.41 38.752C1238.72 39.08 1239.11 39.244 1239.59 39.244C1239.89 39.244 1240.17 39.2 1240.43 39.112C1240.68 39.024 1240.95 38.884 1241.23 38.692L1241.71 39.352C1241.04 39.88 1240.3 40.144 1239.5 40.144C1238.62 40.144 1237.94 39.856 1237.44 39.28C1236.95 38.704 1236.71 37.912 1236.71 36.904C1236.71 36.248 1236.81 35.668 1237.02 35.164C1237.24 34.652 1237.54 34.252 1237.93 33.964C1238.33 33.676 1238.8 33.532 1239.34 33.532C1240.18 33.532 1240.82 33.808 1241.27 34.36C1241.72 34.912 1241.94 35.676 1241.94 36.652ZM1240.85 36.328C1240.85 35.704 1240.72 35.228 1240.48 34.9C1240.23 34.572 1239.86 34.408 1239.36 34.408C1238.46 34.408 1237.96 35.072 1237.88 36.4H1240.85V36.328ZM1248.6 31.132V40H1247.63L1247.52 39.124C1247.31 39.444 1247.05 39.696 1246.74 39.88C1246.43 40.056 1246.08 40.144 1245.69 40.144C1244.94 40.144 1244.35 39.848 1243.93 39.256C1243.51 38.664 1243.31 37.868 1243.31 36.868C1243.31 36.22 1243.41 35.644 1243.61 35.14C1243.81 34.636 1244.09 34.244 1244.47 33.964C1244.85 33.676 1245.29 33.532 1245.79 33.532C1246.44 33.532 1247.01 33.792 1247.49 34.312V31L1248.6 31.132ZM1245.93 39.268C1246.27 39.268 1246.56 39.192 1246.8 39.04C1247.04 38.88 1247.27 38.644 1247.49 38.332V35.236C1247.29 34.964 1247.06 34.76 1246.82 34.624C1246.59 34.48 1246.33 34.408 1246.03 34.408C1245.54 34.408 1245.16 34.612 1244.89 35.02C1244.63 35.428 1244.49 36.036 1244.49 36.844C1244.49 37.66 1244.62 38.268 1244.87 38.668C1245.11 39.068 1245.47 39.268 1245.93 39.268ZM1256.94 33.532C1257.66 33.532 1258.23 33.824 1258.66 34.408C1259.08 34.984 1259.29 35.792 1259.29 36.832C1259.29 37.488 1259.19 38.068 1258.99 38.572C1258.79 39.068 1258.51 39.456 1258.13 39.736C1257.75 40.008 1257.31 40.144 1256.81 40.144C1256.15 40.144 1255.59 39.864 1255.13 39.304L1255.02 40H1254.05V31.132L1255.15 31V34.468C1255.61 33.844 1256.21 33.532 1256.94 33.532ZM1256.55 39.268C1257.03 39.268 1257.41 39.072 1257.69 38.68C1257.97 38.28 1258.11 37.664 1258.11 36.832C1258.11 35.976 1257.98 35.36 1257.72 34.984C1257.47 34.6 1257.1 34.408 1256.63 34.408C1256.07 34.408 1255.58 34.736 1255.15 35.392V38.416C1255.32 38.68 1255.53 38.888 1255.77 39.04C1256.01 39.192 1256.27 39.268 1256.55 39.268ZM1263.66 40.036C1263.41 40.772 1263.06 41.352 1262.62 41.776C1262.18 42.208 1261.54 42.468 1260.72 42.556L1260.6 41.692C1261.02 41.62 1261.35 41.516 1261.6 41.38C1261.84 41.244 1262.04 41.068 1262.18 40.852C1262.34 40.644 1262.48 40.36 1262.6 40H1262.23L1260.11 33.676H1261.28L1262.98 39.196L1264.63 33.676H1265.77L1263.66 40.036Z" fill="#686464"/>
<path d="M582.044 21.684L580.652 30H578.096L577.064 23.652L575.972 30H573.476L572.108 21.684H574.076L574.904 28.512L576.056 21.684H578.12L579.2 28.512L580.172 21.684H582.044ZM587.605 28.152C587.605 28.392 587.637 28.568 587.701 28.68C587.773 28.792 587.885 28.876 588.037 28.932L587.641 30.168C587.249 30.136 586.929 30.052 586.681 29.916C586.433 29.772 586.241 29.548 586.105 29.244C585.689 29.884 585.049 30.204 584.185 30.204C583.553 30.204 583.049 30.02 582.673 29.652C582.297 29.284 582.109 28.804 582.109 28.212C582.109 27.516 582.365 26.984 582.877 26.616C583.389 26.248 584.129 26.064 585.097 26.064H585.745V25.788C585.745 25.412 585.665 25.156 585.505 25.02C585.345 24.876 585.065 24.804 584.665 24.804C584.457 24.804 584.205 24.836 583.909 24.9C583.613 24.956 583.309 25.036 582.997 25.14L582.565 23.892C582.965 23.74 583.373 23.624 583.789 23.544C584.213 23.464 584.605 23.424 584.965 23.424C585.877 23.424 586.545 23.612 586.969 23.988C587.393 24.364 587.605 24.928 587.605 25.68V28.152ZM584.737 28.848C585.169 28.848 585.505 28.644 585.745 28.236V27.108H585.277C584.845 27.108 584.521 27.184 584.305 27.336C584.097 27.488 583.993 27.724 583.993 28.044C583.993 28.3 584.057 28.5 584.185 28.644C584.321 28.78 584.505 28.848 584.737 28.848ZM591.242 23.424C591.698 23.424 592.126 23.492 592.526 23.628C592.926 23.764 593.278 23.956 593.582 24.204L592.886 25.272C592.366 24.944 591.842 24.78 591.314 24.78C591.066 24.78 590.874 24.824 590.738 24.912C590.61 24.992 590.546 25.108 590.546 25.26C590.546 25.38 590.574 25.48 590.63 25.56C590.694 25.632 590.818 25.708 591.002 25.788C591.186 25.868 591.47 25.964 591.854 26.076C592.518 26.268 593.01 26.52 593.33 26.832C593.658 27.136 593.822 27.56 593.822 28.104C593.822 28.536 593.698 28.912 593.45 29.232C593.202 29.544 592.862 29.784 592.43 29.952C591.998 30.12 591.518 30.204 590.99 30.204C590.454 30.204 589.954 30.12 589.49 29.952C589.034 29.784 588.646 29.552 588.326 29.256L589.25 28.224C589.786 28.64 590.35 28.848 590.942 28.848C591.23 28.848 591.454 28.796 591.614 28.692C591.782 28.588 591.866 28.44 591.866 28.248C591.866 28.096 591.834 27.976 591.77 27.888C591.706 27.8 591.582 27.72 591.398 27.648C591.214 27.568 590.922 27.472 590.522 27.36C589.89 27.176 589.418 26.92 589.106 26.592C588.794 26.264 588.638 25.856 588.638 25.368C588.638 25 588.742 24.672 588.95 24.384C589.166 24.088 589.47 23.856 589.862 23.688C590.262 23.512 590.722 23.424 591.242 23.424ZM598.531 23.424C599.083 23.424 599.515 23.592 599.827 23.928C600.139 24.264 600.295 24.736 600.295 25.344V30H598.399V25.668C598.399 25.348 598.347 25.128 598.243 25.008C598.139 24.88 597.991 24.816 597.799 24.816C597.415 24.816 597.047 25.088 596.695 25.632V30H594.799V21.096L596.695 20.904V24.312C596.959 24.016 597.239 23.796 597.535 23.652C597.831 23.5 598.163 23.424 598.531 23.424ZM603.62 23.628V30H601.724V23.628H603.62ZM602.66 20.268C602.988 20.268 603.256 20.372 603.464 20.58C603.68 20.78 603.788 21.036 603.788 21.348C603.788 21.66 603.68 21.92 603.464 22.128C603.256 22.328 602.988 22.428 602.66 22.428C602.332 22.428 602.064 22.328 601.856 22.128C601.648 21.92 601.544 21.66 601.544 21.348C601.544 21.036 601.648 20.78 601.856 20.58C602.064 20.372 602.332 20.268 602.66 20.268ZM608.843 23.424C609.395 23.424 609.827 23.592 610.139 23.928C610.451 24.264 610.607 24.736 610.607 25.344V30H608.711V25.668C608.711 25.348 608.659 25.128 608.555 25.008C608.459 24.88 608.311 24.816 608.111 24.816C607.727 24.816 607.359 25.092 607.007 25.644V30H605.111V23.628H606.767L606.899 24.384C607.171 24.064 607.463 23.824 607.775 23.664C608.095 23.504 608.451 23.424 608.843 23.424ZM617.905 24C617.489 24.168 616.877 24.252 616.069 24.252C616.485 24.428 616.789 24.644 616.981 24.9C617.173 25.156 617.269 25.488 617.269 25.896C617.269 26.304 617.161 26.672 616.945 27C616.729 27.32 616.417 27.572 616.009 27.756C615.609 27.94 615.137 28.032 614.593 28.032C614.337 28.032 614.093 28.008 613.861 27.96C613.797 27.992 613.745 28.044 613.705 28.116C613.673 28.18 613.657 28.248 613.657 28.32C613.657 28.44 613.701 28.536 613.789 28.608C613.885 28.672 614.073 28.704 614.353 28.704H615.313C615.801 28.704 616.229 28.784 616.597 28.944C616.965 29.104 617.249 29.324 617.449 29.604C617.649 29.884 617.749 30.2 617.749 30.552C617.749 31.216 617.461 31.732 616.885 32.1C616.317 32.476 615.493 32.664 614.413 32.664C613.637 32.664 613.025 32.58 612.577 32.412C612.129 32.252 611.813 32.024 611.629 31.728C611.453 31.432 611.365 31.06 611.365 30.612H613.069C613.069 30.804 613.105 30.956 613.177 31.068C613.257 31.18 613.397 31.264 613.597 31.32C613.797 31.376 614.085 31.404 614.461 31.404C614.981 31.404 615.341 31.34 615.541 31.212C615.741 31.092 615.841 30.916 615.841 30.684C615.841 30.492 615.765 30.34 615.613 30.228C615.461 30.116 615.233 30.06 614.929 30.06H614.005C613.349 30.06 612.857 29.944 612.529 29.712C612.209 29.472 612.049 29.168 612.049 28.8C612.049 28.568 612.117 28.344 612.253 28.128C612.389 27.904 612.573 27.72 612.805 27.576C612.405 27.36 612.113 27.108 611.929 26.82C611.753 26.524 611.665 26.168 611.665 25.752C611.665 25.04 611.921 24.476 612.433 24.06C612.945 23.636 613.621 23.424 614.461 23.424C615.101 23.44 615.641 23.376 616.081 23.232C616.529 23.088 616.989 22.876 617.461 22.596L617.905 24ZM614.509 24.672C614.213 24.672 613.977 24.768 613.801 24.96C613.633 25.144 613.549 25.4 613.549 25.728C613.549 26.072 613.633 26.34 613.801 26.532C613.977 26.716 614.213 26.808 614.509 26.808C614.821 26.808 615.057 26.716 615.217 26.532C615.385 26.348 615.469 26.072 615.469 25.704C615.469 25.016 615.149 24.672 614.509 24.672ZM622.642 29.7C622.41 29.86 622.138 29.984 621.826 30.072C621.522 30.16 621.218 30.204 620.914 30.204C619.522 30.196 618.826 29.428 618.826 27.9V24.948H617.926V23.628H618.826V22.248L620.722 22.032V23.628H622.186L621.982 24.948H620.722V27.876C620.722 28.172 620.77 28.384 620.866 28.512C620.962 28.64 621.114 28.704 621.322 28.704C621.538 28.704 621.766 28.636 622.006 28.5L622.642 29.7ZM625.824 23.424C626.8 23.424 627.564 23.724 628.116 24.324C628.668 24.916 628.944 25.748 628.944 26.82C628.944 27.5 628.816 28.096 628.56 28.608C628.312 29.112 627.952 29.504 627.48 29.784C627.016 30.064 626.464 30.204 625.824 30.204C624.856 30.204 624.092 29.908 623.532 29.316C622.98 28.716 622.704 27.88 622.704 26.808C622.704 26.128 622.828 25.536 623.076 25.032C623.332 24.52 623.692 24.124 624.156 23.844C624.628 23.564 625.184 23.424 625.824 23.424ZM625.824 24.816C625.44 24.816 625.152 24.98 624.96 25.308C624.768 25.628 624.672 26.128 624.672 26.808C624.672 27.504 624.764 28.012 624.948 28.332C625.14 28.652 625.432 28.812 625.824 28.812C626.208 28.812 626.496 28.652 626.688 28.332C626.88 28.004 626.976 27.5 626.976 26.82C626.976 26.124 626.88 25.616 626.688 25.296C626.504 24.976 626.216 24.816 625.824 24.816ZM633.804 23.424C634.356 23.424 634.788 23.592 635.1 23.928C635.412 24.264 635.568 24.736 635.568 25.344V30H633.672V25.668C633.672 25.348 633.62 25.128 633.516 25.008C633.42 24.88 633.272 24.816 633.072 24.816C632.688 24.816 632.32 25.092 631.968 25.644V30H630.072V23.628H631.728L631.86 24.384C632.132 24.064 632.424 23.824 632.736 23.664C633.056 23.504 633.412 23.424 633.804 23.424ZM642.198 21.684C643.502 21.684 644.546 21.98 645.33 22.572C646.122 23.156 646.518 24.232 646.518 25.8C646.518 27.344 646.134 28.432 645.366 29.064C644.598 29.688 643.602 30 642.378 30H639.882V21.684H642.198ZM641.85 23.112V28.572H642.498C643.146 28.572 643.638 28.372 643.974 27.972C644.31 27.564 644.478 26.84 644.478 25.8C644.478 25.088 644.394 24.536 644.226 24.144C644.058 23.752 643.83 23.484 643.542 23.34C643.254 23.188 642.898 23.112 642.474 23.112H641.85ZM651.094 21.48C651.614 21.48 652.074 21.556 652.474 21.708C652.882 21.86 653.266 22.088 653.626 22.392L652.69 23.508C652.442 23.316 652.198 23.172 651.958 23.076C651.718 22.98 651.462 22.932 651.19 22.932C650.63 22.932 650.186 23.168 649.858 23.64C649.538 24.112 649.378 24.84 649.378 25.824C649.378 26.792 649.538 27.512 649.858 27.984C650.186 28.448 650.638 28.68 651.214 28.68C651.518 28.68 651.794 28.624 652.042 28.512C652.29 28.392 652.558 28.224 652.846 28.008L653.722 29.136C653.41 29.448 653.03 29.704 652.582 29.904C652.142 30.104 651.654 30.204 651.118 30.204C650.35 30.204 649.682 30.036 649.114 29.7C648.546 29.364 648.102 28.868 647.782 28.212C647.47 27.548 647.314 26.752 647.314 25.824C647.314 24.92 647.474 24.14 647.794 23.484C648.122 22.828 648.57 22.332 649.138 21.996C649.714 21.652 650.366 21.48 651.094 21.48Z" fill="#686464"/>
<path d="M1227.95 11.7388C1227.95 12.0762 1228.02 12.3675 1228.18 12.6588C1230.25 16.1548 1232.35 19.6508 1234.47 23.1622C1234.57 23.3155 1234.5 23.4995 1234.33 23.5915C1234.28 23.6222 1234.22 23.6375 1234.17 23.6375L1229.03 23.5762C1228.97 23.5762 1228.9 23.5455 1228.87 23.4842L1223.22 14.0848C1223.2 14.0542 1223.2 14.0082 1223.22 13.9775L1226.62 8.53416C1226.7 8.41149 1226.8 8.35016 1226.95 8.36549C1227.95 8.39616 1228.92 8.33483 1229.9 8.35016C1232.85 8.38083 1235.78 8.44216 1238.72 8.51883C1238.85 8.51883 1238.98 8.59549 1239.05 8.70283L1244.8 18.1175C1244.87 18.2248 1244.87 18.3322 1244.78 18.4395L1243.5 20.2795C1243.48 20.3102 1243.43 20.3102 1243.42 20.2948L1243.4 20.2795L1237.52 11.2942C1237.47 11.2022 1237.37 11.1562 1237.27 11.1562C1234.43 11.1102 1231.65 11.0488 1228.88 10.9875C1228.43 10.9875 1227.97 11.3248 1227.95 11.7388Z" fill="url(#paint0_linear_11149_239640)"/>
<path d="M1228.05 25.2159C1230.75 25.2006 1233.52 25.2159 1236.35 25.2466C1236.68 25.2466 1236.92 25.1852 1237.1 25.0626C1237.55 24.7252 1237.53 24.1732 1237.27 23.7439C1236.07 21.7199 1234.92 19.8339 1233.8 18.0859C1233.02 16.8746 1232.32 15.6172 1231.55 14.4212C1231.32 14.0379 1230.92 13.5319 1230.7 13.0106C1230.65 12.8726 1230.72 12.7039 1230.88 12.6579C1230.92 12.6426 1230.95 12.6426 1231 12.6426C1232.72 12.6886 1234.38 12.7039 1236 12.6579C1236.13 12.6579 1236.27 12.7192 1236.33 12.8266C1236.82 13.5626 1237.27 14.2526 1237.68 14.9272C1239.1 17.1659 1240.58 19.5426 1242.15 22.0572C1242.17 22.0879 1242.17 22.1339 1242.15 22.1646L1238.77 27.7766C1238.73 27.8226 1238.68 27.8532 1238.63 27.8532C1235.05 27.8379 1231.45 27.8379 1227.83 27.8532C1227.5 27.8532 1227.13 27.8686 1226.75 27.8839C1226.63 27.8839 1226.52 27.8379 1226.45 27.7306L1220.45 18.2852C1220.42 18.2239 1220.42 18.1626 1220.45 18.1166L1221.77 16.1999C1221.8 16.1386 1221.85 16.1386 1221.88 16.1999L1227.93 25.1546C1227.97 25.1852 1228 25.2159 1228.05 25.2159Z" fill="url(#paint1_linear_11149_239640)"/>
<defs>
<filter id="filter0_d_11149_239640" x="-4" y="0" width="1288" height="66" filterUnits="userSpaceOnUse" color-interpolation-filters="sRGB">
<feFlood flood-opacity="0" result="BackgroundImageFix"/>
<feColorMatrix in="SourceAlpha" type="matrix" values="0 0 0 0 0 0 0 0 0 0 0 0 0 0 0 0 0 0 127 0" result="hardAlpha"/>
<feOffset dy="4"/>
<feGaussianBlur stdDeviation="2"/>
<feComposite in2="hardAlpha" operator="out"/>
<feColorMatrix type="matrix" values="0 0 0 0 0 0 0 0 0 0 0 0 0 0 0 0 0 0 0.25 0"/>
<feBlend mode="normal" in2="BackgroundImageFix" result="effect1_dropShadow_11149_239640"/>
<feBlend mode="normal" in="SourceGraphic" in2="effect1_dropShadow_11149_239640" result="shape"/>
</filter>
<linearGradient id="paint0_linear_11149_239640" x1="1231.04" y1="15.993" x2="1252.61" y2="15.993" gradientUnits="userSpaceOnUse">
<stop offset="0.0396273" stop-color="#4D7CB0"/>
<stop offset="0.1289" stop-color="#5189B4"/>
<stop offset="0.2705" stop-color="#5599B8"/>
<stop offset="0.3846" stop-color="#579EBA"/>
</linearGradient>
<linearGradient id="paint1_linear_11149_239640" x1="1220.14" y1="20.2304" x2="1241.89" y2="20.2304" gradientUnits="userSpaceOnUse">
<stop offset="0.3125" stop-color="#579EBA"/>
<stop offset="0.5109" stop-color="#5188B4"/>
<stop offset="0.6638" stop-color="#4D7CB0"/>
</linearGradient>
</defs>
</svg>
