<svg width="521" height="487" viewBox="0 0 521 487" fill="none" xmlns="http://www.w3.org/2000/svg">
<path d="M89.9276 91.7755C111.706 91.7755 129.361 74.1206 129.361 52.3421C129.361 30.5635 111.706 12.9086 89.9276 12.9086C68.1491 12.9086 50.4941 30.5635 50.4941 52.3421C50.4941 74.1206 68.1491 91.7755 89.9276 91.7755Z" fill="#EBEBEB"/>
<path d="M118.336 79.8256C133.032 65.1301 133.032 41.304 118.336 26.6085C103.641 11.913 79.8147 11.913 65.1193 26.6085C50.4238 41.304 50.4238 65.1301 65.1193 79.8256C79.8147 94.521 103.641 94.521 118.336 79.8256Z" fill="#DBDBDB"/>
<path d="M104.98 85.8868C123.02 78.5688 131.712 58.012 124.394 39.9719C117.076 21.9318 96.519 13.2399 78.4789 20.5578C60.4388 27.8758 51.7469 48.4326 59.0648 66.4727C66.3828 84.5128 86.9396 93.2048 104.98 85.8868Z" fill="white"/>
<path d="M92.1883 20.5305H91.2866V25.8685H92.1883V20.5305Z" fill="#EBEBEB"/>
<path d="M75.7702 24.6916L74.9893 25.1423L77.6574 29.7656L78.4384 29.3149L75.7702 24.6916Z" fill="#EBEBEB"/>
<path d="M63.6353 36.472L63.1846 37.2529L67.8078 39.9211L68.2585 39.1401L63.6353 36.472Z" fill="#EBEBEB"/>
<path d="M64.3809 52.7756H59.043V53.6773H64.3809V52.7756Z" fill="#EBEBEB"/>
<path d="M68.2426 67.041L63.5986 69.71L64.0495 70.4944L68.6935 67.8254L68.2426 67.041Z" fill="#EBEBEB"/>
<path d="M77.6636 76.6909L74.9971 81.3151L75.7782 81.7655L78.4447 77.1413L77.6636 76.6909Z" fill="#EBEBEB"/>
<path d="M92.1883 80.5703H91.2866V85.9083H92.1883V80.5703Z" fill="#EBEBEB"/>
<path d="M105.797 76.7102L105.017 77.161L107.686 81.7838L108.466 81.333L105.797 76.7102Z" fill="#EBEBEB"/>
<path d="M115.649 66.5104L115.198 67.2913L119.821 69.9602L120.271 69.1794L115.649 66.5104Z" fill="#EBEBEB"/>
<path d="M124.432 52.7756H119.083V53.6773H124.432V52.7756Z" fill="#EBEBEB"/>
<path d="M120.458 36.896L115.814 39.5649L116.265 40.3494L120.909 37.6804L120.458 36.896Z" fill="#EBEBEB"/>
<path d="M107.692 24.6979L105.026 29.3221L105.807 29.7726L108.474 25.1484L107.692 24.6979Z" fill="#EBEBEB"/>
<path d="M96.9618 41.9175L81.4985 72.3184L82.3022 72.7272L97.7655 42.3263L96.9618 41.9175Z" fill="#EBEBEB"/>
<path d="M89.9318 41.104L88.7529 41.34L95.3464 74.2771L96.5252 74.0411L89.9318 41.104Z" fill="#DBDBDB"/>
<path d="M514.884 40.8372H344.01V364.144H514.884V40.8372Z" fill="#EBEBEB"/>
<path d="M500.254 56.9229H358.642V262.193H500.254V56.9229Z" fill="white"/>
<path d="M367.682 396.676H356.393V364.144H376.482L367.682 396.676Z" fill="#EBEBEB"/>
<path d="M376.482 364.144L373.236 376.13H356.38V364.144H376.482Z" fill="#C7C7C7"/>
<path d="M491.2 396.676H502.489V364.144H482.399L491.2 396.676Z" fill="#EBEBEB"/>
<path d="M482.399 364.144L485.645 376.13H502.501V364.144H482.399Z" fill="#C7C7C7"/>
<path d="M500.253 276.849C489.637 277.066 479.033 277.186 468.43 277.27C457.826 277.354 447.21 277.366 436.606 277.426L437.183 276.849C437.183 282.175 437.183 287.513 437.183 292.851V308.853C437.063 319.529 436.955 330.193 436.691 340.869C436.414 330.193 436.306 319.529 436.186 308.853L436.125 292.851C436.125 287.513 436.125 282.175 436.125 276.849V276.26H436.703C447.306 276.32 457.91 276.26 468.526 276.416C479.142 276.573 489.637 276.621 500.253 276.849Z" fill="#C7C7C7"/>
<path d="M436.606 350.042C447.21 349.813 457.814 349.693 468.43 349.609C479.046 349.525 489.637 349.513 500.253 349.453L499.652 350.042C499.652 344.8 499.652 339.57 499.652 334.34L499.724 318.639C499.832 308.168 499.94 297.708 500.217 287.237C500.481 297.708 500.59 308.168 500.698 318.639L500.77 334.34C500.77 339.57 500.83 344.8 500.77 350.042V350.619H500.193C489.577 350.559 478.973 350.619 468.37 350.475C457.766 350.33 447.21 350.222 436.606 350.042Z" fill="#C7C7C7"/>
<path d="M443.724 321.536H448.545V303.069H443.724V321.536Z" fill="#C7C7C7"/>
<path d="M358.642 276.849C369.245 276.621 379.849 276.501 390.465 276.416C401.081 276.332 411.672 276.32 422.288 276.26H422.853V276.849C422.853 282.175 422.853 287.513 422.853 292.851L422.781 308.853C422.673 319.529 422.565 330.193 422.288 340.869C422.012 330.193 421.904 319.529 421.783 308.853L421.723 292.851C421.723 287.513 421.723 282.175 421.723 276.849L422.3 277.426C411.684 277.366 401.081 277.426 390.477 277.27C379.873 277.114 369.245 277.066 358.642 276.849Z" fill="#C7C7C7"/>
<path d="M422.287 350.042C411.671 350.258 401.068 350.378 390.464 350.475C379.86 350.571 369.244 350.559 358.641 350.619H358.063V350.042C358.063 344.8 358.063 339.57 358.063 334.34L358.136 318.639C358.244 308.168 358.352 297.708 358.629 287.237C358.893 297.708 359.001 308.168 359.109 318.639L359.182 334.34C359.182 339.57 359.242 344.8 359.182 350.042L358.604 349.453C369.208 349.453 379.812 349.453 390.428 349.609C401.044 349.765 411.671 349.777 422.287 350.042Z" fill="#C7C7C7"/>
<path d="M415.159 303.057H410.338V321.524H415.159V303.057Z" fill="#C7C7C7"/>
<path d="M500.254 122.482H358.642V124.682H500.254V122.482Z" fill="#C7C7C7"/>
<path d="M500.254 167.036H358.642V169.236H500.254V167.036Z" fill="#C7C7C7"/>
<path d="M500.254 211.591H358.642V213.791H500.254V211.591Z" fill="#C7C7C7"/>
<path d="M431.075 56.9229H427.817V262.193H431.075V56.9229Z" fill="#EBEBEB"/>
<path d="M170.154 273.218L173.028 290.471L192.516 395.715H195.654L181.491 290.471L179.388 273.218H170.154Z" fill="#EBEBEB"/>
<path d="M179.388 273.218H170.154L173.028 290.471H181.491L179.388 273.218Z" fill="#C7C7C7"/>
<path d="M108.96 395.715H112.098L131.586 290.471L134.459 273.218H125.226L123.122 290.471L108.96 395.715Z" fill="#EBEBEB"/>
<path d="M125.226 273.218L123.122 290.471H131.585L134.459 273.218H125.226Z" fill="#C7C7C7"/>
<path d="M50.5068 395.715H53.6447L73.133 290.471L76.0064 273.218H66.7731L64.6692 290.471L50.5068 395.715Z" fill="#EBEBEB"/>
<path d="M64.6699 290.471H73.1337L76.007 273.218H66.7738L64.6699 290.471Z" fill="#C7C7C7"/>
<path d="M55.4844 281.333H198.286V269.744L144.823 266.281L126.861 162.66H60.9305L55.4844 281.333Z" fill="#EBEBEB"/>
<path d="M55.4844 281.333H63.2749L68.3483 162.66H60.9305L55.4844 281.333Z" fill="#C7C7C7"/>
<path d="M260.405 486.929C350.268 486.929 423.116 474.716 423.116 459.65C423.116 444.584 350.268 432.371 260.405 432.371C170.542 432.371 97.6938 444.584 97.6938 459.65C97.6938 474.716 170.542 486.929 260.405 486.929Z" fill="#EBEBEB"/>
<path d="M66.6881 471.155C99.8206 471.155 126.68 465.487 126.68 458.496C126.68 451.504 99.8206 445.836 66.6881 445.836C33.5555 445.836 6.69629 451.504 6.69629 458.496C6.69629 465.487 33.5555 471.155 66.6881 471.155Z" fill="#EBEBEB"/>
<path d="M441.222 471.155C474.355 471.155 501.214 465.487 501.214 458.496C501.214 451.504 474.355 445.836 441.222 445.836C408.09 445.836 381.23 451.504 381.23 458.496C381.23 465.487 408.09 471.155 441.222 471.155Z" fill="#EBEBEB"/>
<path d="M0 396.675L65.1013 396.386L130.203 396.278L260.405 396.086L390.608 396.278L455.709 396.386L520.811 396.675L455.709 396.976L390.608 397.084L260.405 397.276L130.203 397.084L65.1013 396.976L0 396.675Z" fill="#263238"/>
<path d="M288.826 226.908H196.518V396.496H288.826V226.908Z" fill="#455A64"/>
<path d="M288.826 226.908H196.518V237.969H288.826V226.908Z" fill="#263238"/>
<path d="M328.464 217.999H9.9668V226.92H328.464V217.999Z" fill="#455A64"/>
<path d="M29.6589 226.919L29.3584 237.968L25.4751 396.507H18.418V226.919H29.6589Z" fill="#455A64"/>
<path d="M18.418 226.919H29.6589L29.3584 237.968H18.418V226.919Z" fill="#263238"/>
<path d="M320.108 226.908H288.826V396.496H320.108V226.908Z" fill="#37474F"/>
<path d="M320.108 226.908H288.826V237.969H320.108V226.908Z" fill="#263238"/>
<path d="M103.189 327.631C99.1017 323.627 93.8238 318.794 87.5602 320.513C81.6932 322.136 79.445 328.556 78.3871 333.894C77.0406 340.771 75.9826 347.72 74.8885 354.657C73.7945 361.594 72.7486 368.663 71.7387 375.672C71.1776 379.631 70.6166 383.587 70.0555 387.538L69.25 393.477C68.9855 395.425 68.6609 397.36 68.5527 399.32C68.5527 399.945 69.5025 400.041 69.6348 399.44C70.3922 396.134 70.7047 392.708 71.1856 389.354C71.6665 385.999 72.1595 382.621 72.6644 379.243C73.6422 372.55 74.6401 365.862 75.658 359.177C76.6759 352.493 77.7178 345.804 78.7838 339.112C79.6855 333.437 80.1063 326.404 85.1316 322.665C86.4937 321.73 88.0719 321.157 89.717 321.001C91.3621 320.845 93.0198 321.112 94.5331 321.776C97.8393 323.038 100.544 325.382 103.069 327.787C103.153 327.823 103.261 327.703 103.189 327.631Z" fill="#263238"/>
<path d="M97.5982 323.591C97.5982 323.591 89.2547 320.585 85.131 326.669C81.0073 332.752 85.9365 348.309 123.939 356.989C122.82 345.111 119.728 333.502 114.79 322.641C106.651 304.836 92.092 311.568 97.5982 323.591Z" fill="#50B5E5"/>
<path d="M121.751 354.416C121.178 353.347 120.54 352.315 119.839 351.326C119.202 350.352 118.565 349.378 117.916 348.405C117.423 347.671 116.93 346.95 116.425 346.228C116.425 346.048 116.425 345.868 116.497 345.687C116.569 345.507 116.581 345.026 116.629 344.702C116.726 343.98 116.822 343.271 116.93 342.562C117.038 341.852 117.146 341.155 117.291 340.446C117.375 339.685 117.541 338.935 117.784 338.21C117.784 338.101 117.639 338.041 117.615 338.21C117.536 338.619 117.423 339.021 117.279 339.412L117.026 340.374C116.846 341.095 116.666 341.816 116.497 342.55C116.329 343.283 116.221 343.884 116.112 344.569C116.056 344.898 116.008 345.223 115.968 345.543C115.283 344.569 114.598 343.62 113.888 342.682C111.869 340.025 109.729 337.464 107.528 334.963C107.528 334.963 107.528 334.964 107.528 334.903C107.733 330.9 107.637 326.957 108.526 323.025C108.526 322.917 108.382 322.857 108.358 322.965C107.353 326.667 106.876 330.491 106.939 334.326C106.146 333.437 105.352 332.559 104.535 331.693C102.683 329.698 100.796 327.742 98.8724 325.826C98.8002 325.754 98.68 325.826 98.7522 325.947C101.95 329.385 104.992 332.98 107.949 336.635C105.634 336.599 103.319 336.683 101.012 336.887C98.4275 337.079 95.8788 337.416 93.318 337.765C93.2098 337.765 93.2339 337.945 93.318 337.933C95.8647 337.567 98.4291 337.338 101 337.248C103.489 337.14 105.954 337.248 108.43 337.248C110.029 339.231 111.616 341.227 113.167 343.259H111.075C109.873 343.259 108.755 343.367 107.613 343.463C105.252 343.654 102.906 344.004 100.592 344.509C100.569 344.509 100.548 344.518 100.532 344.534C100.516 344.55 100.507 344.571 100.507 344.593C100.507 344.616 100.516 344.637 100.532 344.653C100.548 344.669 100.569 344.678 100.592 344.678C102.924 344.413 105.268 344.197 107.613 344.113C108.731 344.113 109.849 344.113 110.979 344.113H112.722C113.045 344.159 113.374 344.13 113.684 344.028C114.706 345.351 115.728 346.685 116.738 348.02C117.539 349.078 118.341 350.148 119.142 351.23C119.948 352.336 120.669 353.538 121.547 354.572C121.679 354.584 121.787 354.5 121.751 354.416Z" fill="#263238"/>
<path d="M101.229 332.175C99.8827 331.993 98.5233 331.924 97.1655 331.971C95.8069 331.971 94.4604 331.971 93.1019 332.055C92.9817 332.055 92.9817 332.235 93.1019 332.223C94.4724 332.127 95.843 332.103 97.2256 332.127C98.6081 332.151 99.8825 332.271 101.217 332.235C101.277 332.235 101.277 332.175 101.229 332.175Z" fill="#263238"/>
<path d="M113.155 335.228C113.311 333.929 113.48 332.631 113.756 331.356C113.756 331.236 113.6 331.188 113.588 331.356C113.395 332.631 113.143 333.893 112.951 335.18C112.854 335.817 112.77 336.454 112.698 337.103C112.58 337.697 112.528 338.301 112.542 338.906C112.542 338.935 112.553 338.963 112.574 338.983C112.594 339.003 112.621 339.015 112.65 339.015C112.679 339.015 112.706 339.003 112.727 338.983C112.747 338.963 112.758 338.935 112.758 338.906C112.874 338.308 112.943 337.701 112.963 337.091C113.023 336.466 113.083 335.853 113.155 335.228Z" fill="#263238"/>
<path d="M110.654 320.85C110.329 322.052 109.993 323.399 109.764 324.685C109.644 325.334 109.548 325.983 109.452 326.645C109.333 327.279 109.293 327.925 109.331 328.568C109.331 328.568 109.416 328.568 109.428 328.568C109.577 327.968 109.678 327.357 109.728 326.741C109.812 326.104 109.908 325.479 110.017 324.853C110.245 323.531 110.486 322.22 110.822 320.91C110.846 320.802 110.69 320.742 110.654 320.85Z" fill="#263238"/>
<path d="M61.1827 397.913C60.9663 395.508 60.7379 393.104 60.4854 390.699C59.9925 385.962 59.4034 381.237 58.7782 376.525C58.153 371.812 57.576 367.111 56.7825 362.422C56.4955 360.258 56.0085 358.125 55.3278 356.051C55.0779 355.151 54.6219 354.322 53.9958 353.629C53.3698 352.936 52.5909 352.399 51.721 352.059C47.2487 350.508 44.2431 355.149 42.4277 358.431C42.4277 358.527 42.5239 358.599 42.584 358.515C43.666 356.952 46.6476 352.6 50.0379 352.792C52.3222 352.937 54.1496 354.548 55.2436 360.246C57.9727 374.421 60.4373 403.19 60.7258 405.066C60.8701 406.064 61.5794 406.028 61.5914 404.958C61.6636 402.613 61.3871 400.257 61.1827 397.913Z" fill="#263238"/>
<path d="M43.7011 356.677C43.7011 356.677 47.6084 342.827 38.9643 349.776C24.5374 361.257 24.0806 386.24 24.0806 386.24C24.0806 386.24 49.6402 371.392 52.8141 361.606C57.5509 347.023 43.7011 356.677 43.7011 356.677Z" fill="#50B5E5"/>
<path d="M48.5348 363.444C46.527 363.853 44.4952 364.117 42.5236 364.418L39.6382 364.815C39.001 364.911 38.3398 364.971 37.6906 365.043C39.5901 362.422 41.5137 359.813 43.3411 357.132C43.4132 357.036 43.2449 356.928 43.1608 357.012C41.6465 358.574 40.2216 360.219 38.8928 361.941L37.7627 358.731C37.3299 357.529 36.861 356.267 36.5605 355.004C36.5605 354.896 36.3681 354.944 36.3921 355.004C36.7408 356.267 36.9933 357.553 37.3299 358.828C37.6665 360.102 38.0272 361.232 38.46 362.434C37.5223 363.636 36.6206 364.899 35.755 366.149C35.3101 364.947 34.7691 363.745 34.3844 362.434C34.3844 362.326 34.18 362.434 34.2161 362.434C34.6729 363.841 34.9254 365.296 35.3582 366.702C34.7691 367.556 34.156 368.421 33.615 369.287C32.5931 370.874 31.6193 372.497 30.6575 374.096C30.5851 374.129 30.5251 374.184 30.4862 374.253C30.4473 374.322 30.4314 374.402 30.4411 374.481C28.818 377.282 27.2912 380.119 25.7764 382.969C25.7764 383.077 25.8725 383.161 25.9206 383.053C27.4355 380.227 29.1306 377.486 30.8859 374.781C31.159 374.693 31.4414 374.636 31.7275 374.613L32.6051 374.421C33.2663 374.276 33.9276 374.108 34.5768 373.952C35.8752 373.627 37.1616 373.315 38.472 373.098C38.5802 373.098 38.472 372.906 38.472 372.93C36.9211 373.218 35.3702 373.399 33.8073 373.579C33.074 373.663 32.3406 373.759 31.6072 373.88H31.499C32.4127 372.485 33.3505 371.102 34.2882 369.732C35.226 368.361 36.1757 367.051 37.1375 365.728C38.0152 365.596 38.8928 365.368 39.7825 365.199L42.74 364.622C44.7237 364.226 46.6954 363.781 48.679 363.42C48.6911 363.588 48.643 363.42 48.5348 363.444Z" fill="#263238"/>
<path d="M33.1825 364.803C33.0743 364.442 32.9541 364.082 32.8459 363.709C32.6073 362.951 32.4107 362.18 32.2568 361.401C32.2568 361.293 32.0645 361.341 32.0885 361.401C32.2568 362.182 32.4372 362.952 32.6175 363.733C32.7829 364.515 33.008 365.282 33.2907 366.029C33.3093 366.059 33.3373 366.082 33.3704 366.094C33.4035 366.106 33.4397 366.106 33.473 366.095C33.5064 366.084 33.5351 366.062 33.5543 366.033C33.5736 366.003 33.5824 365.968 33.5793 365.933C33.4591 365.585 33.3028 365.2 33.1825 364.803Z" fill="#263238"/>
<path d="M51.2152 360.259C50.013 360.427 48.8108 360.512 47.6927 360.608C46.5746 360.704 45.2882 360.884 44.1821 361.053V361.161C45.3844 361.077 46.5866 360.992 47.7047 360.836C48.8228 360.68 50.037 360.512 51.2152 360.427C51.2152 360.415 51.2152 360.235 51.2152 360.259Z" fill="#263238"/>
<path d="M79.9854 380.444C79.5406 370.285 78.8913 360.15 77.8694 350.027C77.3645 344.99 76.7994 339.952 76.0901 334.939C75.4539 330.008 74.4777 325.128 73.1687 320.332C72.2837 316.609 70.6473 313.107 68.3597 310.041C67.2213 308.55 65.7223 307.374 64.0039 306.624C62.2855 305.873 60.4043 305.572 58.5374 305.749C54.0891 306.302 50.5064 309.103 47.4167 312.144C43.9422 315.559 40.7563 319.286 37.5463 322.965C36.7288 323.89 35.9233 324.816 35.1418 325.754C35.0697 325.838 35.1418 325.958 35.2741 325.874C38.4119 322.267 41.682 318.745 45.1084 315.39C48.2583 312.289 51.5163 308.898 55.9285 307.612C57.9635 306.964 60.1417 306.914 62.2042 307.468C63.8427 307.986 65.3177 308.923 66.4842 310.185C68.8119 312.887 70.4606 316.106 71.2932 319.574C74.0343 328.916 75.0081 338.702 76.018 348.344C77.0279 357.986 77.7492 367.964 78.2421 377.799C78.7351 387.633 79.1198 397.6 80.0695 407.458C80.1898 408.66 80.3461 409.863 80.5023 411.065C80.6105 411.882 81.8729 411.882 81.8128 411.065C80.9111 400.858 80.4422 390.663 79.9854 380.444Z" fill="#263238"/>
<path d="M46.8038 313.251C46.8038 313.251 52.6106 302.515 45.7578 299.065C38.9051 295.615 15.9543 321.186 9.25781 358.672C9.25781 358.672 46.3109 342.286 58.8983 325.947C71.4858 309.609 57.2272 306.014 46.8038 313.251Z" fill="#50B5E5"/>
<path d="M52.2622 321.98C48.0904 321.98 43.9427 321.667 39.7709 321.691L42.1754 319.01C43.3412 317.823 44.4295 316.562 45.4335 315.235C45.4335 315.139 45.4335 315.019 45.2892 315.091C44.1566 316.059 43.1033 317.117 42.1393 318.253C41.0934 319.359 40.0474 320.465 39.0255 321.583C37.4266 323.302 35.8636 325.058 34.3128 326.813C34.3128 326.645 34.3128 326.476 34.3128 326.308C34.3128 325.575 34.3128 324.853 34.3128 324.12V319.888C34.3128 317.015 34.3128 314.141 34.5412 311.28C34.5412 311.172 34.3729 311.184 34.3608 311.28C34.1685 314.153 33.8679 317.003 33.7237 319.888C33.7237 321.295 33.6275 322.713 33.6034 324.12C33.6034 324.853 33.6034 325.587 33.6034 326.308C33.6034 326.705 33.6034 327.125 33.6034 327.51C33.363 327.787 33.1105 328.051 32.858 328.328C29.5399 332.127 26.378 336.058 23.3002 340.05C23.3002 339.833 23.3002 339.605 23.3002 339.388L23.156 338.066C23.0478 337.116 22.9155 336.166 22.7712 335.217C22.627 334.267 22.4947 333.425 22.3505 332.536C22.2062 331.646 21.9297 330.516 21.8575 329.506C21.8575 329.484 21.8487 329.462 21.8329 329.446C21.8171 329.431 21.7957 329.422 21.7734 329.422C21.7511 329.422 21.7297 329.431 21.7139 329.446C21.6981 329.462 21.6892 329.484 21.6892 329.506C21.8654 330.516 21.9818 331.536 22.0379 332.56L22.2904 335.313C22.3745 336.226 22.4587 337.14 22.5548 338.066C22.5548 338.499 22.639 338.944 22.6871 339.376L22.7592 340.038C22.7798 340.225 22.8414 340.406 22.9396 340.567L21.3526 342.634C19.2607 345.412 17.1929 348.225 15.125 351.05C15.125 351.134 15.125 351.254 15.2572 351.17C17.2049 348.622 19.2126 346.121 21.2684 343.644C22.7953 343.644 24.3462 343.644 25.873 343.572C27.3999 343.5 29.083 343.572 30.682 343.572C30.7043 343.572 30.7257 343.563 30.7415 343.547C30.7573 343.532 30.7661 343.51 30.7661 343.488C30.7661 343.466 30.7573 343.444 30.7415 343.428C30.7257 343.413 30.7043 343.404 30.682 343.404H25.873C24.4063 343.404 22.9035 343.332 21.4488 343.404C23.2441 341.232 25.0475 339.064 26.8589 336.9C27.5201 336.118 28.1934 335.337 28.8546 334.495C29.4678 334.581 30.0885 334.601 30.706 334.555H32.9061C34.2647 334.555 35.6352 334.555 37.0058 334.495C39.831 334.495 42.6683 334.363 45.4936 334.351C45.5159 334.351 45.5373 334.342 45.5531 334.326C45.5689 334.311 45.5777 334.289 45.5777 334.267C45.5777 334.244 45.5689 334.223 45.5531 334.207C45.5373 334.191 45.5159 334.183 45.4936 334.183C42.6563 334.183 39.831 334.026 36.9937 333.954C35.6232 333.954 34.2526 333.87 32.8821 333.858H30.694C30.2732 333.858 29.8524 333.858 29.4918 333.858C31.0427 332.019 32.5936 330.167 34.1565 328.328C34.1906 328.302 34.2192 328.269 34.2406 328.232C35.7554 326.436 37.2783 324.649 38.8091 322.87L39.4463 322.148C43.7624 322.28 48.0784 321.992 52.3945 322.076C52.4016 322.059 52.4027 322.039 52.3976 322.021C52.3924 322.003 52.3814 321.987 52.3661 321.976C52.3509 321.965 52.3323 321.959 52.3135 321.96C52.2947 321.961 52.2766 321.968 52.2622 321.98Z" fill="#263238"/>
<path d="M50.1215 329.337H49.1116C49.0155 329.337 49.0275 329.493 49.1116 329.493H50.1215C50.2417 329.518 50.2417 329.337 50.1215 329.337Z" fill="#263238"/>
<path d="M47.8857 329.349C46.5512 329.349 45.2167 329.349 43.8822 329.265L41.8745 329.205C41.2598 329.126 40.6377 329.126 40.023 329.205C40.0071 329.205 39.9918 329.211 39.9805 329.222C39.9692 329.233 39.9629 329.249 39.9629 329.265C39.9629 329.281 39.9692 329.296 39.9805 329.307C39.9918 329.318 40.0071 329.325 40.023 329.325C40.6353 329.453 41.2622 329.498 41.8865 329.457H43.8822H47.8857C47.8965 329.441 47.9023 329.422 47.9023 329.403C47.9023 329.384 47.8965 329.365 47.8857 329.349Z" fill="#263238"/>
<path d="M36.2359 341.852C33.5241 341.41 30.7839 341.164 28.0366 341.119V341.179C30.7657 341.443 33.4948 341.588 36.1878 342.02C36.2101 342.027 36.2341 342.024 36.2544 342.013C36.2747 342.001 36.2896 341.983 36.296 341.96C36.3024 341.938 36.2996 341.914 36.2884 341.894C36.2771 341.873 36.2582 341.858 36.2359 341.852Z" fill="#263238"/>
<path d="M25.0908 329.938C25.0908 329.697 25.0908 329.457 25.0067 329.216C24.9466 328.687 24.8624 328.146 24.7783 327.617C24.6099 326.596 24.4296 325.586 24.2373 324.576C24.2373 324.48 24.0569 324.504 24.0689 324.576C24.2012 325.622 24.3094 326.668 24.4176 327.726C24.4176 328.243 24.5017 328.76 24.5498 329.264C24.5293 329.786 24.6026 330.307 24.7662 330.803C24.8384 330.96 25.0788 330.888 25.1269 330.743C25.1742 330.475 25.1619 330.2 25.0908 329.938Z" fill="#263238"/>
<path d="M79.6248 299.461C78.3024 296.985 76.6072 293.727 73.3011 293.931C70.572 294.111 69.3337 296.901 68.7566 299.197C66.9412 306.326 66.845 313.852 66.4723 321.186C65.727 336.635 65.0537 352.096 64.9575 367.556C64.9575 371.836 64.9575 376.128 64.9575 380.408C64.9575 384.688 64.9575 389.185 65.2581 393.549C65.2725 393.623 65.3122 393.689 65.3703 393.737C65.4284 393.785 65.5014 393.811 65.5767 393.811C65.652 393.811 65.7249 393.785 65.7831 393.737C65.8412 393.689 65.8808 393.623 65.8953 393.549C65.8953 389.81 65.7871 386.071 65.775 382.332C65.763 378.593 65.775 375.034 65.8472 371.38C65.9674 363.998 66.1638 356.612 66.4363 349.222C66.7128 341.877 67.0374 334.543 67.35 327.197L67.8188 316.197C67.9872 312.59 68.1314 309.079 68.5402 305.545C68.7686 303.561 69.0692 301.589 69.4779 299.63C69.686 298.183 70.2752 296.818 71.1851 295.674C71.8167 295.058 72.6458 294.685 73.5259 294.621C74.406 294.558 75.2802 294.807 75.9941 295.326C77.5188 296.389 78.7243 297.848 79.4806 299.546C79.5287 299.642 79.6729 299.546 79.6248 299.461Z" fill="#263238"/>
<path d="M78.735 298.343C78.735 298.343 76.0059 288.726 82.0291 293.534C92.0438 301.529 92.3924 318.938 92.3924 318.938C92.3924 318.938 74.5872 308.599 72.3751 301.77C69.081 291.551 78.735 298.343 78.735 298.343Z" fill="#50B5E5"/>
<path d="M88.6533 311.737L88.1484 310.955C88.1665 310.683 88.1665 310.41 88.1484 310.138C88.1484 309.717 88.1484 309.308 88.1484 308.936C88.1484 308.118 88.1484 307.313 88.2326 306.531C88.2326 306.423 88.0763 306.423 88.0643 306.531C88.0643 307.337 87.9921 308.13 87.9681 308.936V310.138C87.9681 310.282 87.9681 310.462 87.9681 310.643C87.2708 309.561 86.5494 308.491 85.804 307.433C85.5876 307.12 85.3712 306.82 85.1428 306.519C85.0586 305.475 85.0586 304.426 85.1428 303.381C85.1428 302.263 85.1428 301.145 85.1428 300.039C85.1428 299.919 84.9745 299.931 84.9745 300.039C84.9745 301.241 84.8903 302.359 84.8302 303.526C84.7582 304.349 84.7341 305.176 84.7581 306.002C83.0389 303.67 81.2115 301.41 79.3721 299.173C79.3119 299.101 79.1797 299.173 79.2398 299.282C80.3819 300.724 81.476 302.215 82.546 303.718C80.4541 303.225 78.3261 302.948 76.1981 302.636C76.0899 302.636 76.0418 302.792 76.1981 302.804C78.4583 303.141 80.6705 303.706 82.8946 304.199C83.7362 305.401 84.5898 306.603 85.4193 307.806C85.768 308.298 86.0926 308.803 86.4292 309.296H86.333L85.6477 309.2C85.1548 309.14 84.6619 309.104 84.169 309.068C83.1351 308.984 82.1132 308.936 81.0792 308.876C81.0569 308.876 81.0355 308.884 81.0197 308.9C81.0039 308.916 80.9951 308.937 80.9951 308.96C80.9951 308.982 81.0039 309.003 81.0197 309.019C81.0355 309.035 81.0569 309.044 81.0792 309.044C82.1011 309.044 83.099 309.152 84.1089 309.26C84.6379 309.26 85.1669 309.392 85.7079 309.453L86.3931 309.537H86.5975L88.3167 312.061C89.3146 313.54 90.2163 315.139 91.2863 316.57C91.3584 316.654 91.4786 316.57 91.4305 316.486C90.5939 314.852 89.6668 313.267 88.6533 311.737Z" fill="#263238"/>
<path d="M84.2165 300.881C84.2165 300.508 84.2165 300.135 84.2165 299.762C84.1986 298.96 84.2307 298.157 84.3127 297.358C84.3127 297.336 84.3038 297.314 84.2881 297.298C84.2723 297.283 84.2509 297.274 84.2285 297.274C84.2062 297.274 84.1848 297.283 84.169 297.298C84.1533 297.314 84.1444 297.336 84.1444 297.358C84.1444 298.127 84.0602 298.909 84.0242 299.69C84.0242 300.075 84.0242 300.472 84.0242 300.893C84.0242 301.073 84.0242 301.253 84.0242 301.434C83.9939 301.617 83.9939 301.804 84.0242 301.987C84.0242 302.006 84.0318 302.024 84.0453 302.038C84.0588 302.051 84.0772 302.059 84.0963 302.059C84.1154 302.059 84.1338 302.051 84.1473 302.038C84.1608 302.024 84.1684 302.006 84.1684 301.987C84.1983 301.816 84.1983 301.641 84.1684 301.47L84.2165 300.881Z" fill="#263238"/>
<path d="M82.0177 304.872C81.3525 304.768 80.6823 304.7 80.0099 304.668C79.2766 304.596 78.5432 304.536 77.8098 304.439C77.6896 304.439 77.6656 304.608 77.8098 304.608C79.2165 304.704 80.6231 304.956 82.0297 305.005C82.0422 304.998 82.0524 304.988 82.0591 304.975C82.0658 304.963 82.0687 304.948 82.0674 304.934C82.0662 304.92 82.0608 304.907 82.0519 304.896C82.0431 304.885 82.0312 304.877 82.0177 304.872Z" fill="#263238"/>
<path d="M87.6078 304.92C87.6318 305.043 87.6318 305.17 87.6078 305.293V305.557C87.6078 305.786 87.6078 306.002 87.6078 306.231V306.904C87.5716 307.098 87.5716 307.298 87.6078 307.493C87.6078 307.493 87.6078 307.493 87.68 307.493C87.7034 307.398 87.7034 307.299 87.68 307.204V306.904C87.68 306.675 87.68 306.447 87.68 306.231V305.245C87.68 305.149 87.68 304.956 87.68 304.872C87.68 304.788 87.4996 304.764 87.6078 304.92Z" fill="#263238"/>
<path d="M80.0691 350.737C76.3181 347.936 72.9519 343.896 67.9145 343.692C63.7667 343.535 60.8453 346.661 59.1862 350.148C58.3503 352.001 57.6668 353.919 57.1424 355.882C56.397 358.511 55.6917 361.156 55.0265 363.817C53.704 369.059 52.5819 374.325 51.6602 379.615C51.1552 382.572 50.6864 385.53 50.3137 388.511C49.8415 391.529 49.5485 394.572 49.436 397.624C49.4447 397.735 49.4918 397.84 49.5692 397.921C49.6466 398.001 49.7495 398.052 49.8603 398.065C49.9712 398.077 50.083 398.051 50.1766 397.991C50.2703 397.93 50.34 397.839 50.3738 397.733C50.8787 395.244 51.0831 392.671 51.4558 390.158C51.8285 387.646 52.2012 385.097 52.658 382.572C53.5076 377.523 54.5015 372.505 55.6396 367.52C56.7096 362.807 57.7676 358.022 59.2463 353.43C60.3283 350.148 62.0836 346.301 65.6302 345.122C71.0403 343.319 75.9454 347.9 79.9008 350.869C80.0691 350.929 80.1292 350.809 80.0691 350.737Z" fill="#263238"/>
<path d="M76.1617 348.056C76.1617 348.056 72.7113 338.197 77.7006 336.262C85.1905 333.364 104.775 355.425 100.94 389.16C100.94 389.16 85.8037 380.829 74.6349 371.451C63.466 362.074 60.6047 349.811 65.5219 346.661C70.439 343.511 76.1617 348.056 76.1617 348.056Z" fill="#50B5E5"/>
<path d="M98.6808 381.972C98.1553 380.795 97.5446 379.658 96.8533 378.57C96.2162 377.367 95.5669 376.261 94.9057 375.119C93.6073 372.895 92.3089 370.659 90.9744 368.459L90.3252 367.389C90.3252 367.256 90.3252 367.124 90.4093 366.992L90.6257 366.018C90.7941 365.285 90.9263 364.539 91.0585 363.806C91.3351 362.363 91.5755 360.897 91.9722 359.478C91.9722 359.456 91.9634 359.434 91.9476 359.418C91.9318 359.403 91.9104 359.394 91.8881 359.394C91.8658 359.394 91.8444 359.403 91.8286 359.418C91.8128 359.434 91.8039 359.456 91.8039 359.478C91.4914 360.921 91.0345 362.351 90.6017 363.758C90.3853 364.455 90.1689 365.153 89.9765 365.862C89.9765 366.102 89.8563 366.343 89.7842 366.583C88.1852 363.938 86.5501 361.317 84.7828 358.781C84.896 358.431 84.9528 358.066 84.9512 357.699L85.1315 356.22C85.2637 355.102 85.384 353.996 85.5523 352.89C85.8389 350.71 86.2402 348.547 86.7545 346.41C86.7545 346.301 86.6223 346.277 86.5862 346.41C86.0572 348.538 85.4681 350.666 85.0594 352.818C84.867 353.876 84.6746 354.945 84.5304 356.003C84.4582 356.544 84.4102 357.073 84.35 357.614C84.35 357.771 84.35 357.939 84.35 358.095C83.809 357.326 83.268 356.569 82.691 355.823C80.9717 353.551 79.1804 351.327 77.365 349.115C77.365 349.03 77.1606 349.115 77.2328 349.211C80.3274 353.17 83.1665 357.322 85.7326 361.642C86.2376 362.435 86.7185 363.229 87.2114 364.046L86.7185 363.986C86.0933 363.914 85.4441 363.866 84.8189 363.806L80.9958 363.481C78.447 363.277 75.8863 363.121 73.3495 362.844C73.2413 362.844 73.2053 363.001 73.3495 363.013C75.9344 363.313 78.4951 363.722 81.0559 364.095C82.2581 364.275 83.5806 364.443 84.855 364.599C85.8129 364.793 86.7872 364.894 87.7644 364.9C88.7743 366.503 89.7762 368.13 90.77 369.781C90.546 369.763 90.3208 369.763 90.0967 369.781H86.49C84.843 369.781 83.2079 369.781 81.5608 369.781C81.4526 369.781 81.4767 369.949 81.5608 369.949C83.2199 369.949 84.879 370.058 86.5381 370.142C87.3316 370.142 88.1131 370.226 88.9426 370.286L90.1448 370.37C90.4857 370.443 90.8379 370.443 91.1788 370.37C92.0324 371.753 92.898 373.135 93.7395 374.518C94.5811 375.901 95.3145 377.067 96.144 378.329C96.9049 379.677 97.7648 380.967 98.7168 382.188C98.731 382.186 98.7446 382.181 98.7568 382.173C98.7691 382.166 98.7797 382.156 98.788 382.144C98.7964 382.132 98.8024 382.119 98.8057 382.105C98.8089 382.091 98.8094 382.076 98.807 382.062C98.8046 382.048 98.7995 382.034 98.7918 382.022C98.7842 382.01 98.7743 381.999 98.7625 381.991C98.7508 381.982 98.7376 381.976 98.7235 381.973C98.7095 381.97 98.695 381.969 98.6808 381.972Z" fill="#263238"/>
<path d="M91.4664 354.657C91.3138 355.745 91.0889 356.821 90.7932 357.879C90.5046 358.973 90.192 360.055 89.8314 361.125C89.8266 361.138 89.8246 361.153 89.8253 361.167C89.8261 361.181 89.8297 361.195 89.8358 361.208C89.8419 361.221 89.8505 361.232 89.8611 361.242C89.8717 361.251 89.8841 361.259 89.8975 361.263C89.9109 361.268 89.9251 361.27 89.9393 361.269C89.9536 361.269 89.9675 361.265 89.9803 361.259C89.9932 361.253 90.0047 361.244 90.0142 361.234C90.0237 361.223 90.031 361.211 90.0358 361.197C90.3724 360.127 90.6729 359.057 90.9374 357.963C91.2019 356.869 91.3702 355.775 91.6347 354.693C91.6588 354.585 91.4784 354.549 91.4664 354.657Z" fill="#263238"/>
<path d="M80.3465 361.257C80.1172 361.065 79.8281 360.958 79.5289 360.956L78.0983 360.764L75.4413 360.439C73.5899 360.223 71.7504 360.043 69.899 359.814C69.7908 359.814 69.7667 359.97 69.899 359.982C71.6422 360.187 73.3614 360.451 75.1047 360.68L77.6534 361.016L78.8557 361.149C79.3308 361.149 79.8024 361.231 80.2503 361.389C80.3465 361.437 80.4066 361.317 80.3465 361.257Z" fill="#263238"/>
<path d="M91.4422 376.128C90.5646 376.044 89.687 376.02 88.8213 375.995H87.4989H86.8617C86.5897 376.02 86.3161 376.02 86.0442 375.995C85.9119 375.995 85.8999 376.188 86.0442 376.164C86.3001 376.14 86.5577 376.14 86.8136 376.164H87.4989L88.8213 376.248C89.699 376.248 90.5766 376.356 91.4422 376.356C91.5384 376.308 91.5504 376.128 91.4422 376.128Z" fill="#263238"/>
<path d="M96.7681 372.341C96.8803 371.844 96.9765 371.351 97.0567 370.862L97.5977 367.929C97.5977 367.907 97.5888 367.885 97.573 367.869C97.5572 367.854 97.5358 367.845 97.5135 367.845C97.4912 367.845 97.4698 367.854 97.454 367.869C97.4382 367.885 97.4294 367.907 97.4294 367.929L96.7801 370.778C96.6719 371.247 96.5758 371.728 96.4676 372.197C96.4676 372.425 96.3834 372.642 96.3353 372.858C96.264 373.083 96.2394 373.32 96.2632 373.555C96.2632 373.639 96.3954 373.7 96.4435 373.555C96.6267 373.174 96.7368 372.763 96.7681 372.341Z" fill="#263238"/>
<path d="M94.7612 401.471L93.9196 415.441L91.431 456.678H40.444L37.9553 415.441L37.1138 401.471H94.7612Z" fill="#455A64"/>
<path d="M94.7612 401.471L93.9196 415.441H37.9553L37.1138 401.471H94.7612Z" fill="#263238"/>
<path d="M98.6677 391.589H33.2178V405.571H98.6677V391.589Z" fill="#455A64"/>
<path d="M252.734 388.007C252.734 388.007 245.701 439.764 245.701 439.8C245.569 449.706 245.28 458.387 244.715 462.859C244.721 462.883 244.721 462.907 244.715 462.931C244.705 463.992 244.441 465.035 243.946 465.973L243.886 466.045C240.916 467.993 161.773 469.291 158.996 468.449C156.218 467.608 158.527 459.589 161.556 457.088C164.586 454.588 194.678 440.533 194.678 440.533L202.204 388.837L252.734 388.007Z" fill="#AD6359"/>
<path d="M245.593 446.22C245.436 453.434 245.16 459.445 244.715 462.907C244.721 462.931 244.721 462.956 244.715 462.98C244.705 464.04 244.441 465.083 243.946 466.021C243.946 466.021 243.946 466.021 243.946 466.081C240.964 468.041 161.821 469.327 159.043 468.486C156.266 467.644 158.575 459.625 161.604 457.125C163.059 455.922 170.705 452.099 178.279 448.42C175.875 450.308 173.47 452.628 174.564 453.566C176.452 455.129 224.445 453.434 245.593 446.22Z" fill="#263238"/>
<path d="M182.679 446.219C182.679 446.219 196.685 439.847 220.706 451.377L182.679 446.219Z" fill="#263238"/>
<path d="M264.564 423.679L195.592 422.573L230.3 163.778H277.056L264.564 423.679Z" fill="#263238"/>
<path d="M277.055 163.778L268.195 348.13L244.943 163.778H277.055Z" fill="#37474F"/>
<path d="M261.246 411.691C259.166 411.463 257.038 411.475 254.946 411.391C252.854 411.306 250.93 411.282 248.935 411.246C244.775 411.174 240.627 411.102 236.467 411.054C228.256 410.982 220.045 410.922 211.833 410.946C207.169 410.946 202.528 411.102 197.863 411.306C197.839 411.314 197.818 411.33 197.804 411.35C197.789 411.371 197.781 411.395 197.781 411.421C197.781 411.446 197.789 411.471 197.804 411.491C197.818 411.512 197.839 411.527 197.863 411.535C206.123 412.028 214.37 412.16 222.642 412.268C230.913 412.376 239.064 412.4 247.276 412.388C249.584 412.388 251.88 412.388 254.188 412.388C256.497 412.388 258.925 412.388 261.246 412.172C261.309 412.172 261.37 412.147 261.416 412.102C261.461 412.056 261.486 411.995 261.486 411.932C261.486 411.868 261.461 411.807 261.416 411.762C261.37 411.716 261.309 411.691 261.246 411.691Z" fill="#455A64"/>
<path d="M239.125 177.267C235.062 206.662 231.299 236.081 227.307 265.488C223.316 294.895 219.108 324.001 214.852 353.251C212.448 369.662 209.959 386.049 207.759 402.543C207.759 402.796 208.107 402.892 208.156 402.639C213.53 373.461 217.773 344.066 222.041 314.708C226.309 285.349 230.217 256.182 233.835 226.86C235.867 210.389 237.839 193.906 239.51 177.4C239.534 177.099 239.161 177.051 239.125 177.267Z" fill="#455A64"/>
<path d="M277.116 388.765C277.116 388.765 283.753 438.117 283.753 438.153C283.813 448.047 284.041 456.727 284.582 461.212C284.577 461.236 284.577 461.26 284.582 461.284C284.599 462.345 284.853 463.388 285.328 464.338C285.328 464.338 285.328 464.338 285.388 464.398C288.345 466.369 359.013 468.173 361.802 467.307C364.591 466.441 362.331 458.447 359.313 455.922C356.296 453.397 334.764 439.163 334.764 439.163L326.456 387.466L277.116 388.765Z" fill="#AD6359"/>
<path d="M361.814 467.307C359.037 468.173 288.369 466.369 285.4 464.398C285.4 464.398 285.4 464.398 285.4 464.326C284.909 463.382 284.65 462.335 284.642 461.272C284.637 461.248 284.637 461.223 284.642 461.2C284.067 456.011 283.818 450.791 283.897 445.571C295.439 452.892 325.326 456.15 334.824 454.07C343.24 452.219 341.388 445.438 339.633 442.385C346.149 446.725 357.27 454.191 359.398 455.958C362.343 458.435 364.603 466.441 361.814 467.307Z" fill="#263238"/>
<path d="M339.56 442.348C339.56 442.348 315.779 438.477 299.513 451.329L339.56 442.348Z" fill="#263238"/>
<path d="M235.049 163.694C235.254 164.655 238.524 179.828 241.914 192.86C244.379 202.382 246.915 210.749 248.37 211.615C250.017 212.589 258.048 216.147 260.741 217.265L271.225 423.197L342.59 421.598L305.32 197.068L299.045 163.694H235.049Z" fill="#263238"/>
<path d="M244.114 209.571C249.844 211.657 255.383 214.236 260.668 217.278C260.709 217.302 260.739 217.34 260.753 217.385C260.767 217.43 260.765 217.479 260.745 217.522C260.726 217.565 260.692 217.599 260.649 217.618C260.606 217.638 260.557 217.64 260.512 217.626C254.934 215.222 249.247 212.938 243.813 210.233C243.725 210.193 243.657 210.12 243.623 210.029C243.589 209.939 243.593 209.839 243.633 209.752C243.673 209.664 243.746 209.596 243.836 209.562C243.926 209.528 244.026 209.532 244.114 209.571Z" fill="#455A64"/>
<path d="M242.431 171.376C242.431 171.183 242.78 171.135 242.78 171.376C242.78 178 243.164 183.831 243.717 190.011C243.982 192.884 246.29 208.765 251.267 207.611C252.109 207.407 252.47 206.589 252.662 205.339C252.644 203.695 252.422 202.059 252.001 200.47C251.448 197.14 251.003 193.81 250.714 190.455C250.139 184.201 250.207 177.905 250.919 171.664C250.928 171.629 250.95 171.597 250.979 171.575C251.008 171.553 251.044 171.541 251.081 171.541C251.118 171.541 251.154 171.553 251.183 171.575C251.212 171.597 251.234 171.629 251.243 171.664C251.092 180.33 251.598 188.995 252.758 197.585C253.383 201.72 255.463 207.936 251.147 208.573C246.831 209.21 243.934 198.811 243.357 195.962C241.99 187.84 241.679 179.577 242.431 171.376Z" fill="#455A64"/>
<path d="M251.136 207.996C251.585 209.066 251.959 210.167 252.254 211.29C252.575 212.155 252.734 213.072 252.723 213.995C252.716 214.032 252.698 214.067 252.671 214.094C252.644 214.121 252.61 214.14 252.573 214.148C252.535 214.156 252.496 214.152 252.461 214.138C252.426 214.123 252.395 214.099 252.374 214.067C251.844 213.254 251.439 212.367 251.172 211.434C250.799 210.412 250.39 209.402 250.042 208.38C249.991 208.235 249.999 208.076 250.066 207.937C250.132 207.798 250.251 207.692 250.396 207.641C250.541 207.59 250.701 207.599 250.839 207.665C250.978 207.732 251.085 207.85 251.136 207.996Z" fill="#455A64"/>
<path d="M338.55 411.764C336.47 411.595 334.33 411.656 332.238 411.631C330.146 411.607 328.234 411.631 326.227 411.631C322.079 411.631 317.919 411.728 313.771 411.8C305.56 411.956 297.349 412.136 289.138 412.389C284.473 412.533 279.832 412.81 275.192 413.146C275.167 413.154 275.147 413.169 275.132 413.19C275.117 413.211 275.109 413.235 275.109 413.26C275.109 413.286 275.117 413.31 275.132 413.331C275.147 413.352 275.167 413.367 275.192 413.375C283.463 413.639 291.71 413.531 299.982 413.375C308.253 413.218 316.404 413.038 324.604 412.798L331.517 412.557C333.849 412.461 336.253 412.425 338.562 412.136C338.593 412.116 338.619 412.088 338.637 412.055C338.655 412.022 338.663 411.984 338.662 411.947C338.661 411.909 338.65 411.872 338.63 411.84C338.61 411.808 338.583 411.782 338.55 411.764Z" fill="#455A64"/>
<path d="M307.292 384.053C306.679 377.765 306.005 371.477 305.356 365.189C304.058 352.734 302.719 340.287 301.341 327.848C298.608 302.961 295.802 278.075 292.925 253.189C291.326 239.231 290.004 225.225 288.188 211.291C288.188 211.17 287.972 211.17 287.984 211.291C289.066 223.89 290.605 236.441 291.879 249.017C293.154 261.592 294.38 273.915 295.678 286.359C298.259 311.261 300.912 336.151 303.637 361.03C304.406 368.015 305.176 375 306.042 381.985C306.907 388.97 307.833 395.943 308.71 402.928C308.71 403.096 308.999 403.096 308.975 402.928C308.374 396.628 307.905 390.34 307.292 384.053Z" fill="#455A64"/>
<path d="M229.748 192.163L241.926 192.944L277.428 195.252L305.344 197.068L299.045 163.694H235.049H230.24L229.748 192.163Z" fill="#263238"/>
<path d="M246.795 33.5389C235.133 43.5296 238.379 58.1127 233.51 65.9994C230.528 70.8084 220.838 75.942 218.903 81.5083C215.741 90.6694 223.495 93.9515 221.764 98.9288C219.36 105.974 209.874 105.433 208.167 116.962C206.46 128.492 219.155 140.755 249.271 144.085C279.387 147.415 295.918 136.379 297 126.592C298.082 116.806 288.068 113.56 287.382 106.25C286.95 101.586 293.129 98.3277 293.394 89.7437C293.658 81.1597 285.339 78.3585 284.136 71.0609C282.934 63.7633 286.805 46.0302 276.081 36.9774C265.357 27.9245 252.541 28.6098 246.795 33.5389Z" fill="#263238"/>
<path d="M248.142 33.8511C244.882 36.1588 242.226 39.2189 240.4 42.7718C238.513 46.5396 237.068 50.5134 236.096 54.6138C235.594 57.0561 234.811 59.4323 233.764 61.695C232.723 63.5843 231.356 65.2737 229.724 66.6843C226.466 69.6298 222.571 71.878 219.649 75.1842C216.728 78.4903 214.72 82.5178 215.826 86.7858C216.427 89.1061 217.966 91.0056 218.916 93.1697C219.866 95.3337 220.118 97.7863 218.423 99.4935C216.908 100.948 214.732 101.621 213.025 102.812C211.337 103.987 209.851 105.428 208.625 107.08C207.384 108.711 206.497 110.583 206.018 112.576C205.54 114.569 205.482 116.64 205.848 118.657C207.627 128.023 216.415 133.349 224.53 136.691C225.661 137.16 226.791 137.617 227.933 138.061C228.113 138.133 228.257 137.881 228.077 137.809C219.938 134.202 210.488 129.886 207.362 120.773C206.638 118.786 206.383 116.658 206.617 114.556C206.85 112.454 207.566 110.434 208.709 108.655C209.861 106.902 211.319 105.371 213.013 104.134C214.648 102.932 216.548 102.174 218.207 101.032C219.034 100.508 219.707 99.7724 220.157 98.9021C220.607 98.0318 220.818 97.0575 220.767 96.0791C220.512 93.9258 219.745 91.8649 218.531 90.0679C217.266 88.2117 216.595 86.0146 216.608 83.7682C216.852 81.5842 217.683 79.507 219.012 77.757C221.549 74.1502 225.3 71.8179 228.63 69.1008C232.077 66.5756 234.643 63.03 235.964 58.9659C236.589 56.8139 236.974 54.6018 237.515 52.4378C238 50.4024 238.598 48.3956 239.306 46.4266C240.636 42.5037 242.811 38.9208 245.678 35.931C246.431 35.1661 247.261 34.4812 248.154 33.8872C248.383 33.8511 248.239 33.7309 248.142 33.8511Z" fill="#263238"/>
<path d="M298.335 119.427C297.968 117.834 297.258 116.341 296.255 115.051C295.209 113.728 293.947 112.646 292.781 111.444C291.595 110.342 290.742 108.93 290.316 107.368C290.104 105.46 290.577 103.539 291.651 101.946C292.669 100.264 293.569 98.5124 294.344 96.7046C295.362 93.9459 295.721 90.9875 295.394 88.0653C295.066 85.1431 294.06 82.3378 292.456 79.8732C291.434 78.1901 290.28 76.5911 289.234 74.92C288.089 73.0994 287.192 71.1345 286.565 69.0771C285.207 64.5447 284.918 59.7597 283.812 55.1672C282.643 50.462 281.004 45.8865 278.919 41.5097C278.919 41.4015 278.702 41.5097 278.763 41.6059C280.614 45.5563 282.045 49.6908 283.03 53.9409C283.992 57.9684 284.365 62.0801 285.074 66.1436C285.389 68.1448 285.9 70.11 286.601 72.0106C287.316 73.7653 288.189 75.4514 289.21 77.048C291.254 80.3661 293.346 83.6362 293.911 87.5796C294.472 91.4448 293.795 95.3885 291.975 98.8446C290.388 101.838 288.176 105.144 289.571 108.643C290.773 111.612 293.562 113.452 295.45 115.856C296.439 117.211 297.131 118.76 297.481 120.4C297.832 122.041 297.831 123.737 297.481 125.378C295.858 133.794 287.419 137.99 279.508 138.41C279.457 138.41 279.408 138.431 279.372 138.467C279.336 138.503 279.316 138.552 279.316 138.603C279.316 138.654 279.336 138.703 279.372 138.739C279.408 138.775 279.457 138.795 279.508 138.795C286.385 138.711 293.875 135.693 297.097 129.249C298.641 126.219 299.079 122.745 298.335 119.427Z" fill="#263238"/>
<path d="M253.54 93.5794C251.4 102.332 225.973 184.373 220.935 185.515C206.112 188.857 188.295 191.31 188.559 179.143C188.98 160.051 224.867 109.798 242.059 93.0985C253.372 82.098 255.656 84.9353 253.54 93.5794Z" fill="#AD6359"/>
<path d="M253.54 93.5794C251.4 102.332 225.973 184.373 220.935 185.515C206.112 188.857 188.295 191.31 188.559 179.143C188.98 160.051 224.867 109.798 242.059 93.0985C253.372 82.098 255.656 84.9353 253.54 93.5794Z" fill="#AD6359"/>
<path d="M188.462 183.518C182.306 161.878 234.327 98.2672 244.45 90.1641C254.573 82.061 255.884 84.5977 253.828 94.8288C251.772 105.06 227.174 182.508 221.932 185.333C216.691 188.159 191.251 193.328 188.462 183.518Z" fill="#EBEBEB"/>
<path d="M230.973 142.666L225.263 181.955C225.263 181.955 289.294 182.905 305.188 181.787C305.188 181.787 292.227 108.33 275.132 89.7797C266.584 80.4984 256.545 81.1836 250.149 87.6757C248.538 89.3228 229.218 114.846 227.186 124.597C225.407 133.193 230.973 142.666 230.973 142.666Z" fill="#50B5E5"/>
<path d="M268.052 84.3461C268.052 84.3461 260.598 289.16 264.553 298.886C268.509 308.612 328.031 318.266 328.031 318.266C328.031 318.266 310.563 171.665 294.717 127.17C280.026 85.909 268.052 84.3461 268.052 84.3461Z" fill="#EBEBEB"/>
<path d="M307.821 210.269C302.417 211.015 296.973 211.44 291.519 211.543C283.897 211.543 276.334 210.798 274.146 210.773C273.954 210.773 273.858 211.411 273.99 211.423C279.765 212.118 285.571 212.519 291.387 212.625C296.71 212.587 302.02 212.084 307.256 211.122C307.256 212.733 307.256 213.995 307.256 215.619C301.882 216.652 291.519 218.444 274.796 216.292C274.736 215.619 274.796 212.024 274.687 211.038C274.687 210.894 274.038 210.858 274.014 211.038C273.882 212.012 273.485 220.656 273.473 222.411C273.473 226.739 273.738 238.954 274.808 241.322C277.212 246.684 287.684 246.696 290.581 246.72C293.478 246.745 302.784 247.033 306.27 243.619C308.134 241.803 308.53 231.897 308.254 223.181C308.074 218.997 308.062 210.353 307.821 210.269ZM291.35 245.711C282.117 245.711 278.126 243.787 276.683 241.851C275.024 239.615 274.88 235.696 274.76 231.38C274.663 227.99 274.76 217.374 274.76 217.157C280.134 218.239 294.332 219.718 307.22 216.725C307.22 221.75 307.22 225.777 307.22 230.815C307.22 234.422 306.992 240.577 305.14 242.705C303.685 244.484 298.023 245.699 291.35 245.711Z" fill="#A6A6A6"/>
<path d="M228.797 299.787C225.503 307.578 205.81 312.867 205.81 312.867L230.624 141.957C227.484 136.812 226.258 130.724 227.162 124.765C228.833 115.147 248.898 87.3632 252.144 85.9325C248.795 100.28 246.468 114.848 245.183 129.526C239.617 189.602 232.404 291.287 228.797 299.787Z" fill="#EBEBEB"/>
<path d="M233.487 111.781C235.278 108.932 237.093 106.107 238.873 103.246C238.873 103.161 238.789 103.065 238.728 103.149C236.937 105.554 235.194 107.874 233.463 110.267C234.04 108.992 234.593 107.706 235.11 106.395C235.11 106.251 234.965 106.119 234.893 106.275C234.1 107.958 233.378 109.665 232.669 111.385C231.122 113.524 229.755 115.788 228.582 118.153C226.006 123.059 225.235 128.715 226.405 134.131C226.772 135.641 227.309 137.105 228.004 138.495C228.485 139.445 230.024 141.501 230.012 141.561C229.014 147.163 228.257 152.826 227.463 158.464C226.67 164.103 225.852 169.862 225.191 175.584C224.819 178.83 224.578 182.088 224.097 185.31C224.097 185.431 224.265 185.479 224.29 185.31C224.698 182.497 225.299 179.72 225.804 176.895C226.309 174.069 226.778 171.292 227.223 168.479C228.137 162.805 228.954 157.118 229.772 151.431C230.241 148.209 230.746 144.999 231.106 141.813C230.579 140.593 229.964 139.411 229.267 138.279C228.688 137.089 228.218 135.85 227.86 134.576C227.121 131.996 226.892 129.297 227.187 126.629C227.812 121.195 230.625 116.35 233.487 111.781Z" fill="#263238"/>
<path d="M251.989 86.5583C250.105 89.4197 248.189 92.253 246.242 95.0582C244.282 97.8594 242.371 100.697 240.375 103.474V102.813L245.184 107.85L245.581 108.259L245.16 108.668C243.14 110.627 241.084 112.539 239.04 114.474L239.209 113.969C239.954 119.175 240.748 124.381 241.409 129.599C242.07 134.816 242.779 140.046 243.356 145.228C242.359 140.058 241.457 134.876 240.591 129.683C239.726 124.489 238.908 119.295 238.079 114.054V113.765L238.295 113.561C240.327 111.613 242.347 109.653 244.402 107.742V108.559L239.569 103.582L239.269 103.257L239.521 102.909C241.541 100.156 243.645 97.4507 245.689 94.7216C247.733 91.9925 249.861 89.2393 251.989 86.5583Z" fill="#A6A6A6"/>
<path d="M273.486 98.8569C278.956 106.07 303.626 134.72 305.189 137.244C306.247 138.94 300.296 146.934 300.38 148.065C300.909 152.753 310.563 182.845 314.554 179.563C319.808 175.259 343.997 145.263 340.486 132.351C336.976 119.439 281.901 88.4215 273.437 85.9088C264.974 83.3961 268.075 91.7998 273.486 98.8569Z" fill="#AD6359"/>
<path d="M304.552 137.641C304.552 135.814 275.698 105.096 270.396 94.8292C265.094 84.562 267.787 82.3739 281.324 88.9622C294.861 95.5505 336.423 119.679 341.352 131.678C346.281 143.676 319.231 176.654 319.231 176.654L300.308 144.806C300.308 144.806 304.527 139.144 304.552 137.641Z" fill="#EBEBEB"/>
<path d="M322.922 167.469C316.393 155.339 307.701 143.581 306.331 141.429C306.258 141.32 306.102 141.429 306.174 141.537C307.629 143.581 316.117 158.104 322.753 167.589C322.789 167.698 322.922 167.589 322.922 167.469Z" fill="#263238"/>
<path d="M293.839 124.356C292.636 122.865 291.506 121.338 290.232 119.872C288.958 118.405 287.707 116.914 286.421 115.459C283.832 112.502 281.195 109.592 278.51 106.731C278.51 106.731 278.402 106.731 278.438 106.731C279.817 108.478 281.215 110.202 282.634 111.901C281.744 111.155 280.794 110.47 279.833 109.809C279.833 109.809 279.748 109.809 279.833 109.881C280.662 110.698 281.528 111.504 282.429 112.285L283.752 113.367C283.875 113.474 284.003 113.575 284.137 113.668C284.714 114.353 285.339 115.039 285.856 115.712C287.058 117.191 288.369 118.669 289.667 120.124C290.965 121.579 292.384 123.009 293.731 124.476C293.767 124.548 293.911 124.44 293.839 124.356Z" fill="#263238"/>
<path d="M297.301 187.45C294.487 185.046 298.96 183.086 298.96 183.086C298.96 183.086 291.854 184.288 289.919 180.681C287.983 177.075 293.526 175.043 293.934 174.887C293.562 174.947 287.009 175.909 285.434 172.061C283.86 168.214 289.678 166.868 290.063 166.784C289.69 166.784 284.761 165.942 284.232 162.756C283.331 157.274 297.625 158.332 301.064 155.446C301.064 155.446 300.499 148.233 300.414 148.077C301.147 149.745 302.416 151.121 304.021 151.984C307.003 153.186 309.708 154.04 310.79 155.663C311.282 156.373 311.537 157.221 311.518 158.085C311.498 158.949 311.206 159.785 310.682 160.472C310.682 160.472 314.625 160.472 315.959 163.465C316.633 164.992 314.757 167.445 314.757 167.445C315.649 167.495 316.51 167.789 317.246 168.296C317.982 168.803 318.564 169.503 318.929 170.318C319.758 172.482 317.727 174.61 317.727 174.61C317.727 174.61 320.696 176.149 320.804 178.638C321.165 183.723 303.336 192.632 297.301 187.45Z" fill="#AD6359"/>
<path d="M317.584 175.054C317.644 175.054 317.692 175.054 317.644 175.138C312.307 179.689 305.71 182.507 298.733 183.217C298.504 183.217 298.384 182.881 298.624 182.821C305.287 181.163 311.673 178.547 317.584 175.054Z" fill="#263238"/>
<path d="M314.937 167.505C315.009 167.505 315.07 167.565 315.01 167.625C309.072 172.581 301.56 175.254 293.826 175.163C293.562 175.163 293.321 174.874 293.634 174.862C298.875 174.682 309.443 170.907 314.937 167.505Z" fill="#263238"/>
<path d="M289.523 166.591C297.085 166.591 303.89 164.187 310.526 160.737C310.611 160.737 310.659 160.821 310.599 160.869C307.821 163.454 303.385 165.233 299.778 166.315C296.47 167.387 292.938 167.574 289.535 166.856C289.379 166.82 289.355 166.591 289.523 166.591Z" fill="#263238"/>
<path d="M318.04 174.669C318.726 174.112 319.245 173.375 319.54 172.542C319.835 171.708 319.894 170.81 319.711 169.945C319.458 169.118 318.916 168.41 318.184 167.949C317.285 167.518 316.295 167.311 315.299 167.348C315.931 166.642 316.336 165.762 316.46 164.822C316.585 163.883 316.423 162.928 315.996 162.082C315.505 161.337 314.748 160.808 313.88 160.603C312.877 160.393 311.85 160.316 310.827 160.375C311.303 159.935 311.669 159.389 311.894 158.781C312.12 158.173 312.199 157.52 312.125 156.876C312.018 156.17 311.743 155.5 311.325 154.92C310.907 154.341 310.357 153.87 309.721 153.546C308.229 152.8 306.655 152.231 305.032 151.851C304.194 151.628 303.387 151.305 302.627 150.889C301.954 150.48 301.004 149.687 300.908 148.881C300.908 148.713 300.656 148.821 300.74 148.881C301.067 149.433 301.424 149.967 301.81 150.48C302.263 150.973 302.781 151.401 303.349 151.755C304.777 152.487 306.256 153.118 307.773 153.642C309.1 154.151 310.218 155.091 310.947 156.311C311.274 156.949 311.415 157.665 311.356 158.379C311.296 159.093 311.038 159.776 310.61 160.351C310.598 160.365 310.591 160.383 310.589 160.402C310.587 160.421 310.591 160.44 310.6 160.457C310.609 160.474 310.623 160.487 310.64 160.496C310.656 160.505 310.675 160.509 310.694 160.507C311.61 160.605 312.511 160.815 313.375 161.132C314.088 161.416 314.699 161.905 315.131 162.539C315.512 163.315 315.682 164.179 315.623 165.043C315.564 165.906 315.278 166.738 314.794 167.456C315.77 167.651 316.706 168.013 317.559 168.526C318.11 168.948 318.527 169.52 318.761 170.173C319.024 170.92 319.073 171.725 318.903 172.498C318.733 173.271 318.351 173.981 317.8 174.549V174.609C317.8 174.609 318.737 175.138 318.785 175.15C318.834 175.162 318.785 175.15 318.785 175.09C318.545 174.937 318.296 174.796 318.04 174.669Z" fill="#263238"/>
<path d="M269.001 85.9803C270.455 89.0701 271.886 92.1839 273.269 95.3097C274.651 98.4356 276.058 101.549 277.38 104.699L277.549 105.096L277.188 105.336L271.429 109.232L271.597 108.426C273.16 110.759 274.675 113.127 276.202 115.495L276.346 115.724L276.274 115.976C274.723 120.785 273.232 125.594 271.621 130.319C270.01 135.044 268.411 139.853 266.716 144.59C268.015 139.72 269.397 134.887 270.816 130.067C272.235 125.246 273.713 120.449 275.18 115.64V116.121C273.629 113.716 272.078 111.432 270.563 109.063L270.239 108.57L270.72 108.258L276.551 104.471L276.358 105.108C275.048 101.946 273.846 98.7481 272.571 95.5742C271.297 92.4003 270.179 89.1543 269.001 85.9803Z" fill="#A6A6A6"/>
<path d="M275.133 91.9315C274.832 84.9345 266.116 83.1071 260.838 82.9628C254.574 82.7945 250.535 83.7683 248.226 90.068C245.822 96.7164 244.968 104.218 244.512 111.252C244.497 111.523 244.376 111.777 244.174 111.958C243.972 112.14 243.707 112.234 243.436 112.219C243.165 112.205 242.91 112.084 242.729 111.882C242.547 111.68 242.453 111.414 242.468 111.143C242.997 103.04 243.393 87.9882 250.823 82.7945C257.676 77.9855 276.671 80.1736 277.176 92.0397C277.176 93.3501 275.181 93.242 275.133 91.9315Z" fill="#455A64"/>
<path d="M238.595 114.823C238.549 115.751 238.779 116.673 239.256 117.471C239.733 118.268 240.437 118.907 241.277 119.305C242.117 119.703 243.056 119.843 243.976 119.708C244.896 119.572 245.755 119.167 246.444 118.543C247.134 117.919 247.622 117.105 247.849 116.203C248.076 115.301 248.03 114.353 247.717 113.477C247.405 112.601 246.84 111.838 246.093 111.284C245.347 110.729 244.453 110.409 243.524 110.362C242.281 110.307 241.066 110.744 240.143 111.579C239.22 112.414 238.664 113.58 238.595 114.823Z" fill="#263238"/>
<path d="M240.472 114.919C240.444 115.477 240.582 116.03 240.869 116.51C241.155 116.989 241.578 117.373 242.082 117.612C242.587 117.851 243.151 117.936 243.704 117.855C244.256 117.774 244.772 117.531 245.187 117.157C245.601 116.782 245.896 116.294 246.033 115.752C246.169 115.211 246.143 114.641 245.956 114.115C245.769 113.588 245.431 113.129 244.983 112.795C244.536 112.461 243.999 112.267 243.441 112.238C243.07 112.217 242.698 112.27 242.347 112.394C241.996 112.517 241.673 112.709 241.397 112.959C241.121 113.208 240.897 113.51 240.738 113.846C240.579 114.183 240.489 114.547 240.472 114.919Z" fill="#EBEBEB"/>
<path d="M270.479 114.473C267.497 134.563 268.82 139.239 270.683 141.307C272.082 142.727 273.789 143.805 275.673 144.457L276.129 143.099C274.475 142.512 272.974 141.559 271.741 140.309C270.395 138.819 268.94 134.539 271.885 114.654L270.479 114.473Z" fill="#C7C7C7"/>
<path d="M273.955 142.799L273.811 143.143C273.527 143.824 273.848 144.605 274.528 144.889L276.625 145.764C277.305 146.048 278.087 145.727 278.371 145.047L278.514 144.703C278.798 144.023 278.477 143.241 277.797 142.958L275.7 142.082C275.02 141.798 274.239 142.119 273.955 142.799Z" fill="#263238"/>
<path d="M283.248 113.548C288.742 127.831 290.569 135.778 288.994 138.567C288.064 140.053 286.81 141.311 285.327 142.246L286.061 143.448C287.752 142.379 289.178 140.94 290.233 139.24C292.108 135.922 290.473 128.324 284.582 113.019L283.248 113.548Z" fill="#C7C7C7"/>
<path d="M283.344 144.26L283.559 144.564C283.985 145.166 284.817 145.309 285.419 144.884L287.275 143.572C287.876 143.146 288.019 142.314 287.594 141.712L287.379 141.407C286.953 140.806 286.12 140.663 285.519 141.088L283.663 142.4C283.062 142.825 282.919 143.658 283.344 144.26Z" fill="#263238"/>
<path d="M285.014 112.37C284.006 109.184 282.802 106.064 281.408 103.028C280.635 101.706 279.523 100.614 278.186 99.8662C277.909 99.8662 277.753 97.3776 277.669 95.3338C277.609 93.5424 277.56 91.4385 277.068 90.9095C276.79 90.6738 276.433 90.5546 276.07 90.577C275.706 90.5994 275.366 90.7617 275.12 91.0298C274.687 91.6068 274.892 93.6987 275.024 95.4901C275.18 97.5339 275.324 100.023 275.024 100.047C273.89 101.002 273 102.214 272.427 103.581C271.4 106.843 270.624 110.179 270.107 113.56C269.89 115.7 270.6 115.88 271.225 116.024C272.102 116.217 272.583 115.58 272.992 113.199C273.641 109.412 274.29 103.088 276.839 102.824C279.4 102.824 281.155 109.22 282.369 112.778C283.127 115.002 283.572 115.183 284.485 114.87C285.038 114.678 285.652 114.401 285.014 112.37Z" fill="#263238"/>
<path d="M266.584 85.5482C266.116 86.7504 261.511 94.8174 255.764 94.8174C252.158 94.8174 253.023 82.3983 253.023 82.3983V81.6289L252.182 70.8087L265.647 64.6773L267.57 63.8838C267.57 63.8838 267.57 66.8653 267.57 70.5682V71.1213C267.57 71.3377 267.57 71.53 267.57 71.7224C267.57 72.2754 267.57 72.8405 267.57 73.4055C267.57 73.9706 267.57 74.2591 267.57 74.704C267.57 75.1488 267.57 75.5936 267.57 76.0505C267.457 79.235 267.127 82.4082 266.584 85.5482Z" fill="#AD6359"/>
<path d="M267.546 70.5684C266.062 73.3622 263.987 75.7996 261.467 77.7116C258.947 79.6236 256.041 80.9645 252.95 81.6411L252.109 70.8209L265.574 64.6895L267.498 63.896C267.498 63.896 267.534 66.8655 267.546 70.5684Z" fill="#263238"/>
<path d="M238.572 54.6857C236.793 73.6691 247.974 76.8791 252.061 77.2518C255.776 77.6004 268.472 78.2857 272.199 59.5909C275.926 40.896 267.618 34.0673 259.203 32.841C250.787 31.6147 240.339 35.7024 238.572 54.6857Z" fill="#AD6359"/>
<path d="M244.775 50.4663C245.208 50.4145 245.637 50.3383 246.062 50.2378C246.532 50.225 246.985 50.0558 247.348 49.757C247.441 49.6385 247.491 49.4925 247.491 49.3422C247.491 49.1918 247.441 49.0458 247.348 48.9274C247.14 48.7132 246.88 48.558 246.592 48.4777C246.305 48.3975 246.001 48.395 245.713 48.4706C245.102 48.5407 244.538 48.8314 244.126 49.2881C244.039 49.4012 243.986 49.5374 243.975 49.6798C243.964 49.8223 243.995 49.9649 244.064 50.09C244.133 50.2152 244.237 50.3175 244.363 50.3843C244.49 50.4512 244.633 50.4796 244.775 50.4663Z" fill="#263238"/>
<path d="M257.783 50.9707C257.353 50.8866 256.927 50.7783 256.509 50.6461C256.058 50.5901 255.637 50.3922 255.307 50.0811C255.216 49.9618 255.167 49.8161 255.167 49.6663C255.167 49.5165 255.216 49.3708 255.307 49.2515C255.53 49.0517 255.803 48.9152 256.097 48.856C256.39 48.7968 256.695 48.8172 256.978 48.9149C257.582 49.0277 258.122 49.3621 258.493 49.8527C258.572 49.9691 258.615 50.1061 258.617 50.2468C258.62 50.3875 258.581 50.5259 258.505 50.6447C258.43 50.7636 258.321 50.8578 258.193 50.9157C258.065 50.9736 257.922 50.9928 257.783 50.9707Z" fill="#263238"/>
<path d="M254.874 55.6837C254.874 55.6837 254.97 55.6837 254.97 55.8039C254.85 57.0903 254.97 58.5931 256.077 59.0981C256.077 59.0981 256.077 59.1822 256.077 59.1702C254.646 58.8817 254.562 56.886 254.874 55.6837Z" fill="#263238"/>
<path d="M256.112 54.3979C258.216 54.3979 258.12 58.5577 256.185 58.5817C254.249 58.6058 254.393 54.422 256.112 54.3979Z" fill="#263238"/>
<path d="M256.93 54.6385C257.291 54.8789 257.639 55.3117 258.132 55.3598C258.625 55.4079 259.034 54.9992 259.335 54.5784H259.407C259.407 55.3839 259.07 56.2014 258.205 56.2976C257.339 56.3938 256.87 55.6724 256.69 54.8549C256.654 54.7587 256.798 54.5423 256.93 54.6385Z" fill="#263238"/>
<path d="M247.047 55.2998C247.047 55.2998 246.939 55.2998 246.939 55.42C246.939 56.7185 246.77 58.2092 245.592 58.618C245.592 58.618 245.592 58.7022 245.592 58.6901C247.035 58.5098 247.275 56.5261 247.047 55.2998Z" fill="#263238"/>
<path d="M245.906 53.9295C243.814 53.7492 243.598 57.933 245.534 58.1013C247.469 58.2696 247.65 54.0858 245.906 53.9295Z" fill="#263238"/>
<path d="M245.016 54.1572C244.679 54.3616 244.33 54.7463 243.934 54.7583C243.537 54.7703 243.152 54.2894 242.888 53.8446C242.888 53.8446 242.828 53.8446 242.816 53.8446C242.756 54.6501 242.972 55.4917 243.729 55.684C244.487 55.8764 244.932 55.2031 245.208 54.4818C245.256 54.2894 245.16 54.073 245.016 54.1572Z" fill="#263238"/>
<path d="M253.817 66.0118C253.516 66.3244 253.216 66.7451 252.747 66.7932C252.267 66.794 251.792 66.6958 251.352 66.5047C251.352 66.5047 251.268 66.5047 251.292 66.5047C251.482 66.7565 251.736 66.952 252.028 67.0706C252.321 67.1892 252.639 67.2263 252.951 67.1779C253.218 67.1001 253.456 66.944 253.634 66.7297C253.812 66.5154 253.922 66.2528 253.949 65.9757C253.973 65.9877 253.865 65.9637 253.817 66.0118Z" fill="#263238"/>
<path d="M248.551 61.1302C248.551 61.1302 248.226 63.0658 248.19 63.9795C248.19 64.0637 248.407 64.1118 248.719 64.1358C249.499 64.3035 250.31 64.253 251.063 63.99C251.816 63.727 252.481 63.2617 252.987 62.6451C253.059 62.5609 252.987 62.4647 252.867 62.5128C251.673 63.2762 250.264 63.6307 248.851 63.5227C248.851 63.2702 249.537 60.2406 249.392 60.2165C248.681 60.2627 247.978 60.4 247.301 60.6253C247.878 56.5858 249.092 52.6785 249.609 48.6029C249.609 48.571 249.596 48.5404 249.574 48.5179C249.551 48.4953 249.521 48.4827 249.489 48.4827C249.457 48.4827 249.426 48.4953 249.404 48.5179C249.381 48.5404 249.368 48.571 249.368 48.6029C247.935 52.7553 246.92 57.0405 246.339 61.3947C246.279 61.8997 248.19 61.2745 248.551 61.1302Z" fill="#263238"/>
<path d="M249.343 63.6665C249.785 64.3429 250.394 64.8936 251.111 65.2655C251.486 65.4372 251.904 65.4956 252.313 65.4338C253.263 65.2655 253.347 64.4239 253.226 63.6786C253.171 63.2654 253.062 62.8613 252.902 62.4763C251.873 63.2426 250.626 63.6597 249.343 63.6665Z" fill="#263238"/>
<path d="M251.111 65.2659C251.487 65.4375 251.905 65.496 252.314 65.4342C253.263 65.2659 253.347 64.4243 253.227 63.6789C252.749 63.6743 252.283 63.8272 251.901 64.114C251.518 64.4009 251.241 64.8057 251.111 65.2659Z" fill="#FF9CBD"/>
<path d="M239.689 47.9778C241.926 48.6992 249.896 43.7459 253.094 36.6166C253.651 40.7692 255.641 44.5967 258.721 47.4368C263.915 52.2458 268.844 52.6064 268.844 52.6064C268.844 52.6064 270.383 61.1904 271.801 61.3828C273.22 61.5752 282.153 32.1804 257.17 31.8438C257.17 31.8438 249.86 31.1104 245.292 35.3783C240.723 39.6463 239.689 47.9778 239.689 47.9778Z" fill="#263238"/>
<path d="M269.048 58.8937C269.048 58.8937 273.244 52.9787 275.937 54.4694C278.63 55.9602 275.444 64.5803 272.258 65.7464C271.861 65.9225 271.432 66.0164 270.997 66.0224C270.562 66.0284 270.131 65.9463 269.729 65.7812C269.327 65.6161 268.962 65.3713 268.657 65.0616C268.352 64.7519 268.113 64.3837 267.954 63.9792L269.048 58.8937Z" fill="#AD6359"/>
<path d="M274.964 56.9231C274.964 56.9231 275.024 56.9231 274.964 57.0073C272.74 57.8969 271.55 59.9407 270.72 62.0807C270.851 61.8585 271.028 61.6674 271.24 61.5204C271.451 61.3735 271.692 61.2743 271.946 61.2297C272.2 61.1851 272.461 61.1962 272.71 61.2622C272.959 61.3282 273.191 61.4475 273.389 61.6118C273.449 61.6118 273.389 61.7441 273.329 61.72C272.938 61.5973 272.519 61.5971 272.127 61.7196C271.736 61.8421 271.392 62.0814 271.141 62.4053C270.725 62.9498 270.37 63.5384 270.083 64.1606C269.975 64.365 269.614 64.2568 269.698 64.0283C269.686 61.143 271.922 57.1876 274.964 56.9231Z" fill="#263238"/>
<path d="M252.914 85.3912C252.085 85.824 253.299 101.285 253.828 102.15C254.02 102.475 264.167 94.4561 267.545 84.1168C267.545 84.1529 261.606 80.8949 252.914 85.3912Z" fill="#AD6359"/>
<path d="M235.123 116.349L188.839 130.756L207.591 190.998L253.875 176.591L235.123 116.349Z" fill="#455A64"/>
<path d="M201.928 130.576L223.856 123.721L221.779 117.077L199.851 123.933L201.928 130.576Z" fill="#A6A6A6"/>
<path d="M204.837 122.372L207.542 121.531L206.581 118.465L213.145 116.409L214.107 119.475L216.8 118.633L215.056 113.055L203.058 116.806L204.837 122.372Z" fill="#A6A6A6"/>
<path d="M244.091 139.299C244.805 140.03 245.279 140.962 245.448 141.97C245.618 142.978 245.476 144.013 245.041 144.938C246.74 145.29 248.263 146.226 249.345 147.583C251.136 150.059 248.034 153.967 248.034 153.967C249.723 154.697 251.152 155.921 252.134 157.477C253.613 160.014 251.052 164.402 251.052 164.402C252.23 165.933 252.819 167.836 252.711 169.764C252.218 174.898 245.161 178.408 240.689 180.693C236.216 182.977 221.453 185.273 218.676 185.994L203.78 157.489C203.78 157.489 220.876 141.572 226.502 139.636C231.251 138.001 241.254 136.606 244.091 139.299Z" fill="#AD6359"/>
<path d="M205.811 155.638C200.713 159.558 185.373 174.646 188.979 182.328C192.586 190.01 204.897 189.241 221.933 185.334L205.811 155.638Z" fill="#AD6359"/>
<path d="M205.81 155.638C200.713 159.558 184.603 174.285 188.678 184.156C191.924 191.994 206.399 192.944 223.483 188.965L205.81 155.638Z" fill="#EBEBEB"/>
<path d="M214.719 189.29C209.381 176.606 201.831 164.043 200.677 161.794C200.674 161.78 200.666 161.766 200.657 161.755C200.647 161.743 200.634 161.735 200.62 161.729C200.606 161.723 200.591 161.721 200.576 161.722C200.561 161.723 200.546 161.728 200.534 161.736C200.521 161.744 200.51 161.755 200.502 161.768C200.494 161.781 200.489 161.795 200.488 161.81C200.487 161.825 200.489 161.84 200.495 161.854C200.501 161.868 200.51 161.881 200.521 161.891C201.723 164.067 208.828 179.323 214.539 189.41C214.587 189.518 214.719 189.422 214.719 189.29Z" fill="#263238"/>
<path d="M244.596 144.59C239.15 145.107 234.148 147.222 229.039 149.05C229.016 149.058 228.998 149.074 228.988 149.096C228.978 149.117 228.977 149.142 228.985 149.164C228.993 149.186 229.009 149.205 229.031 149.215C229.052 149.225 229.077 149.226 229.099 149.218C234.16 147.355 239.534 146.501 244.656 144.842C244.684 144.829 244.706 144.807 244.72 144.78C244.733 144.752 244.737 144.721 244.73 144.691C244.723 144.661 244.705 144.635 244.681 144.616C244.657 144.598 244.626 144.588 244.596 144.59Z" fill="#263238"/>
<path d="M247.757 153.643C246.527 153.886 245.335 154.291 244.21 154.845C243.008 155.362 241.806 155.879 240.604 156.432C238.199 157.526 235.795 158.668 233.45 159.895C233.342 159.895 233.45 160.123 233.45 160.063C235.855 158.981 238.259 157.935 240.736 156.949C241.938 156.456 243.14 155.975 244.427 155.506C245.619 155.128 246.767 154.624 247.853 154.004C247.901 153.991 247.942 153.96 247.967 153.917C247.992 153.874 247.998 153.823 247.986 153.775C247.973 153.727 247.942 153.687 247.899 153.662C247.856 153.637 247.805 153.63 247.757 153.643Z" fill="#263238"/>
<path d="M250.943 164.438C249.84 164.658 248.783 165.064 247.817 165.64L244.535 167.179C242.347 168.201 240.159 169.211 237.935 170.161C237.827 170.161 237.935 170.377 237.995 170.329C240.267 169.391 242.539 168.478 244.8 167.516L248.118 166.073C249.164 165.72 250.14 165.187 251.003 164.498C251.003 164.498 251.003 164.438 250.943 164.438Z" fill="#263238"/>
<path d="M205.101 155.903C203.314 157.22 201.619 158.658 200.028 160.207L198.826 161.41L198.309 161.746C197.587 162.227 196.866 162.72 196.193 163.261C194.888 164.324 193.651 165.468 192.49 166.687C192.406 166.784 192.49 166.904 192.634 166.82C193.903 165.676 195.258 164.631 196.686 163.694L197.239 163.321C196.566 164.054 195.916 164.812 195.315 165.593C193.694 167.669 192.2 169.841 190.843 172.097C190.783 172.206 190.951 172.29 191.011 172.182C193.5 168.19 204.344 157.514 205.534 156.228C206.724 154.941 206.039 155.17 205.101 155.903Z" fill="#263238"/>
<path d="M371.011 67.8619C363.39 78.0521 353.669 86.4858 342.505 92.5919C331.352 86.4815 321.639 78.0482 314.024 67.8619C303.998 54.6372 304.491 33.8024 318.833 29.306C334.751 24.3408 342.542 48.2774 342.542 48.2774C342.542 48.2774 350.464 24.2325 366.226 29.3661C380.532 33.9587 381.073 54.5891 371.011 67.8619Z" fill="#50B5E5"/>
<path d="M331.348 82.0965L327.032 64.0869L324.207 70.4347H306.727V68.4029H322.885L327.597 57.7872L330.976 71.8293L335.749 42.7351L339.957 65.746L343.287 56.1401L348.528 71.8654L349.695 68.3909H378.392V70.4227H351.149L348.528 78.2854L343.251 62.4519L339.343 73.7289L335.857 54.6373L331.348 82.0965Z" fill="white"/>
<path d="M461.311 373.99V392.409H453.953V381.925H428.453V392.409H421.096V373.99H461.311Z" fill="#50B5E5"/>
<path opacity="0.1" d="M428.453 384.306H421.096V392.409H428.453V384.306Z" fill="black"/>
<path opacity="0.1" d="M461.311 384.306H453.953V392.409H461.311V384.306Z" fill="black"/>
<path d="M495.743 456.572H386.688L392.699 388.357H489.732L495.743 456.572Z" fill="#50B5E5"/>
<path opacity="0.1" d="M441.221 456.572H386.688L392.699 388.357H441.221V456.572Z" fill="black"/>
<path d="M458.005 418.497V426.431H445.189V439.247H437.254V426.431H424.438V418.497H437.254V405.681H445.189V418.497H458.005Z" fill="#FFFFFD"/>
</svg>
