<svg width="343" height="793" viewBox="0 0 343 793" fill="none" xmlns="http://www.w3.org/2000/svg">
<path fill-rule="evenodd" clip-rule="evenodd" d="M501.604 54.0027C536.726 67.2287 566.29 86.9511 594.294 117.54C656.811 184.031 722.993 326.349 753.507 410.854C781.784 490.222 821.59 629.766 809.388 712.503C809.388 712.503 805.458 799.786 703.142 805.639C697.107 806.23 691.073 806.821 684.292 805.699C636.287 806.234 604.148 799.858 562.99 787.223C495.728 767.621 403.716 720.088 350.354 684.245C267.427 628.68 194.333 566.795 133.645 485.244C132.899 483.532 132.899 483.532 132.899 483.532C63.9399 397.434 29.6958 304.366 29.6958 304.366C29.6958 304.366 25.9663 295.804 22.5079 283.048C21.0161 279.623 20.2702 277.91 19.5243 276.198C15.7947 267.635 14.574 260.017 12.6074 250.687C-21.231 124.843 9.41308 21.8496 170.108 0.756649C166.582 2.2923 345.584 -10.4751 501.604 54.0027Z" fill="#50B5E5"/>
</svg>
