<svg width="14" height="14" viewBox="0 0 14 14" fill="none" xmlns="http://www.w3.org/2000/svg">
<path d="M13 9.47917C12.1 9.47917 11.125 9.3375 10.3 9.05417C10.225 9.05417 10.15 9.05417 10.075 9.05417C9.85 9.05417 9.7 9.125 9.55 9.26667L7.9 10.825C5.8 9.7625 4 8.13333 2.95 6.15L4.6 4.59167C4.825 4.37917 4.9 4.09583 4.75 3.88333C4.525 3.10417 4.375 2.18333 4.375 1.33333C4.375 0.979167 4 0.625 3.625 0.625H1C0.625 0.625 0.25 0.979167 0.25 1.33333C0.25 7.99167 5.95 13.375 13 13.375C13.375 13.375 13.75 13.0208 13.75 12.6667V10.1875C13.75 9.83333 13.375 9.47917 13 9.47917ZM1.75 2.04167H2.875C2.95 2.67917 3.1 3.31667 3.25 3.88333L2.35 4.73333C2.05 3.88333 1.825 2.9625 1.75 2.04167ZM12.25 11.9583C11.275 11.8875 10.3 11.675 9.4 11.3917L10.3 10.5417C10.9 10.6833 11.575 10.825 12.25 10.825V11.9583Z" fill="#2B647F"/>
</svg>
