<svg width="213" height="216" viewBox="0 0 213 216" fill="none" xmlns="http://www.w3.org/2000/svg">
<path d="M53.4488 1.24686H12.1534V44.2931H53.4488V1.24686Z" fill="#E0E0E0"/>
<path d="M50.6532 1.24686H9.35779V44.2931H50.6532V1.24686Z" fill="#EBEBEB"/>
<path d="M45.1034 7.0345H14.9113V38.5058H45.1034V7.0345Z" fill="#FAFAFA"/>
<path d="M14.9114 38.7151C14.6893 39.0322 14.4368 39.3271 14.1576 39.5954C13.6712 40.0817 12.9904 40.7869 12.2122 41.5407C11.4341 42.2946 10.7532 42.9608 10.2668 43.4326C10.0038 43.7055 9.71556 43.9531 9.40601 44.1718C9.61944 43.8536 9.86557 43.5586 10.1404 43.2916C10.6267 42.8052 11.3076 42.0952 12.0858 41.3462C12.8639 40.5972 13.5448 39.9261 14.0554 39.4494C14.3131 39.1741 14.6001 38.9278 14.9114 38.7151Z" fill="#E0E0E0"/>
<path d="M45.1045 38.6221C45.4132 38.8455 45.6998 39.0979 45.9605 39.3759C46.4468 39.8623 47.152 40.5432 47.9058 41.3213C48.6597 42.0995 49.3211 42.7803 49.7977 43.2667C50.072 43.5284 50.3197 43.8168 50.5369 44.1275C50.2258 43.909 49.9389 43.6579 49.681 43.3785C49.1946 42.8922 48.4894 42.2113 47.7356 41.4332C46.9818 40.655 46.3204 39.9741 45.8437 39.4878C45.5675 39.2261 45.3197 38.9359 45.1045 38.6221Z" fill="#E0E0E0"/>
<path d="M45.0219 7.11657C45.2434 6.80637 45.496 6.51956 45.7757 6.2606C46.262 5.77426 46.938 5.06906 47.6967 4.31523C48.4554 3.5614 49.1558 2.89511 49.6664 2.42335C49.9304 2.1495 50.2203 1.90192 50.5321 1.68411C50.3096 1.99205 50.0571 2.27714 49.7783 2.53521C49.2919 3.02156 48.6159 3.73162 47.8329 4.48059C47.0499 5.22955 46.3739 5.90071 45.8584 6.37733C45.6052 6.65135 45.3249 6.89903 45.0219 7.11657Z" fill="#E0E0E0"/>
<path d="M14.8281 7.19469C14.5194 6.9713 14.2327 6.71887 13.9721 6.44086C13.4858 5.95452 12.7757 5.27364 12.0267 4.49549C11.2778 3.71734 10.6066 3.03646 10.13 2.55011C9.85615 2.2893 9.61004 2.00082 9.39563 1.68929C9.70318 1.91046 9.98825 2.16132 10.2467 2.43825C10.7331 2.9246 11.4431 3.60548 12.1921 4.38363C12.9411 5.16178 13.6122 5.84266 14.0888 6.329C14.3651 6.5907 14.6129 6.88088 14.8281 7.19469Z" fill="#E0E0E0"/>
<path d="M45.0215 38.5055C45.0215 38.5055 45.0215 38.452 45.0215 38.3547C45.0215 38.2574 45.0215 38.1018 45.0215 37.917C45.0215 37.5231 45.0215 36.9443 45.0215 36.2197C45.0215 34.7315 45.0215 32.5624 45.0215 29.8048C45.0215 24.2945 44.9923 16.4401 44.968 7.03421L45.0701 7.13148H14.9606L15.0724 7.01962C15.0724 18.5703 15.0724 29.3914 15.0724 38.4909L14.9752 38.3936L36.7828 38.4423L42.901 38.4714H44.5205H42.9253H36.8217L14.9363 38.5201H14.839V38.4228C14.839 29.3087 14.839 18.4827 14.839 6.95153V6.83481H14.9557H45.0652H45.1625V6.93694C45.1625 16.3671 45.1236 24.2459 45.1139 29.7951C45.1139 32.5429 45.1139 34.7023 45.0847 36.1856C45.0847 36.9151 45.0847 37.4793 45.0847 37.8635C45.0847 38.0483 45.0847 38.1894 45.0847 38.2915C45.0847 38.3936 45.0215 38.5055 45.0215 38.5055Z" fill="#E0E0E0"/>
<path d="M22.8778 20.1798C22.8778 20.1798 22.2309 27.9613 30.6593 27.9613C30.669 23.8128 27.2403 20.53 22.8778 20.1798Z" fill="#EBEBEB"/>
<path d="M38.3187 20.1861C38.3187 20.1861 30.5372 19.5393 30.5372 27.9676C34.6857 27.9822 37.9686 24.5486 38.3187 20.1861Z" fill="#EBEBEB"/>
<path d="M30.2944 15.9208C30.2944 15.9208 23.9282 21.6354 30.6446 27.9724C33.7669 24.6653 33.4848 19.476 30.2944 15.9208Z" fill="#E0E0E0"/>
<path d="M159.769 158.876C157.199 157.269 154.296 156.271 151.282 155.958C149.896 155.817 148.364 155.856 147.265 156.697C147.137 156.772 147.032 156.88 146.96 157.009C146.887 157.138 146.85 157.283 146.851 157.431C146.921 157.635 147.06 157.808 147.245 157.918C150.698 160.549 155.922 160.884 159.769 158.866" fill="#E0E0E0"/>
<path d="M159.55 158.632C157.585 157.19 155.75 155.577 154.069 153.812C152.381 152.035 151.194 149.841 150.63 147.456C150.485 146.731 150.441 145.904 150.903 145.33C155.28 148.735 158.684 153.156 159.55 158.632Z" fill="#E0E0E0"/>
<path d="M159.726 158.842C159.32 156.457 159.353 154.017 159.823 151.644C160.373 149.295 161.652 147.048 163.66 145.706C164.414 147.471 164.088 149.504 163.558 151.347C162.734 154.205 161.449 156.909 159.755 159.352" fill="#E0E0E0"/>
<path d="M164.005 166.53C161.408 166.847 159.141 168.218 157.196 169.974C155.247 171.752 153.889 174.084 153.305 176.656C155.859 176.5 158.023 174.711 159.589 172.688C161.155 170.664 162.249 168.456 163.966 166.569" fill="#E0E0E0"/>
<path d="M164.939 167.741C163.916 165.142 163.558 162.329 163.898 159.557C164.238 156.785 165.264 154.142 166.885 151.867C168.368 157.134 167.823 163.087 164.939 167.741Z" fill="#E0E0E0"/>
<path d="M170.595 174.483C168.219 174.335 165.851 174.89 163.788 176.078C161.724 177.266 160.056 179.036 158.991 181.166C158.845 181.452 158.719 181.817 158.913 182.075C159.014 182.172 159.136 182.243 159.27 182.282C159.404 182.321 159.545 182.327 159.682 182.299C161.968 182.153 163.996 180.776 165.669 179.21C167.342 177.644 168.801 175.83 170.649 174.478" fill="#E0E0E0"/>
<path d="M170.415 174.118C169.198 170.195 169.124 166.006 170.201 162.042C170.625 160.485 171.34 158.851 172.779 158.122C172.836 158.083 172.901 158.057 172.969 158.045C173.037 158.034 173.106 158.037 173.173 158.054C173.289 158.115 173.377 158.217 173.421 158.341C173.903 159.428 174.112 160.617 174.029 161.803C173.943 162.985 173.76 164.158 173.484 165.31C173.032 167.455 172.794 169.76 171.617 171.608C171.338 172.052 171.087 172.513 170.868 172.989C170.644 173.476 170.644 173.626 170.44 174.001" fill="#E0E0E0"/>
<path d="M185.395 176.35C184.286 172.124 185.463 167.008 188.123 163.545C188.322 163.292 188.58 163.02 188.901 163.059C189.388 163.102 189.519 163.759 189.495 164.25C189.295 168.592 187.874 172.79 185.395 176.36" fill="#E0E0E0"/>
<path d="M186.747 177.269C191.878 178.607 197.763 177.308 202.028 174.162C199.471 172.88 196.55 172.523 193.76 173.15C190.998 173.782 188.473 175.018 186.752 177.269" fill="#E0E0E0"/>
<path d="M187.885 174.458C190.759 169.774 196.264 166.72 201.755 166.443C201.123 168.675 199.285 170.406 197.218 171.457C195.151 172.507 192.841 172.96 190.56 173.402C189.675 173.572 188.459 173.762 187.885 174.458Z" fill="#E0E0E0"/>
<path d="M185.682 160.82C186.46 158.155 187.243 155.471 187.457 152.698C187.671 149.926 187.272 147.042 185.838 144.664C183.153 149.858 182.885 155.923 185.599 161.098" fill="#E0E0E0"/>
<path d="M194.717 156.253C197.854 150.549 204.255 145.996 210.733 145.354C208.233 151.58 201.419 156.385 194.717 156.253Z" fill="#E0E0E0"/>
<path d="M192.743 157.372C197.421 158.082 201.409 161.073 205.782 162.882C206.697 163.326 207.714 163.521 208.729 163.446C209.202 163.444 209.663 163.296 210.05 163.022C210.436 162.749 210.729 162.363 210.888 161.917C211.047 161.472 211.066 160.988 210.94 160.531C210.815 160.075 210.552 159.668 210.188 159.366C209.568 158.795 208.841 158.353 208.048 158.067C203.282 156.083 198.175 156.034 193.156 157.236" fill="#E0E0E0"/>
<path d="M190.035 160.655C191.095 160.957 191.455 161.506 192.296 162.221C195.157 164.653 198.541 166.39 202.184 167.299C202.563 167.391 203.054 167.43 203.244 167.09C203.434 166.749 203.2 166.428 202.986 166.166C201.398 164.302 199.336 162.9 197.019 162.11C194.733 161.263 192.758 160.237 190.035 160.456" fill="#E0E0E0"/>
<path d="M186.976 140.827C188.896 142.594 191.166 143.94 193.637 144.777C196.109 145.615 198.729 145.926 201.328 145.691C201.566 145.695 201.798 145.612 201.98 145.457C202.339 145.063 201.907 144.455 201.493 144.129C197.272 140.842 192.165 139.475 186.981 140.808" fill="#E0E0E0"/>
<path d="M190.598 139.505C193.138 137.635 196.085 136.392 199.197 135.878C202.309 135.364 205.499 135.594 208.505 136.548C206.248 138.771 203.121 139.952 199.97 140.293C196.824 140.581 193.652 140.314 190.598 139.505Z" fill="#E0E0E0"/>
<path d="M189.158 130.396C188.745 126.184 189.012 122.862 188.721 118.631C188.721 118.291 188.628 117.887 188.312 117.765C187.869 117.595 187.505 118.135 187.339 118.582C186.726 120.544 186.569 122.619 186.88 124.65C187.191 126.682 187.962 128.615 189.134 130.303" fill="#E0E0E0"/>
<path d="M188.857 130.857C191.712 129.092 193.852 126.792 195.832 124.083C197.208 122.196 198.37 119.939 198.059 117.624C196.114 117.585 194.285 118.65 193.025 120.124C191.825 121.649 190.953 123.406 190.462 125.284C189.903 127.137 189.514 129.038 188.857 130.857Z" fill="#E0E0E0"/>
<path d="M195.71 128.956C201.988 126.631 207.801 123.203 212.874 118.835C210.826 118.008 208.496 118.504 206.429 119.321C201.746 121.213 197.918 124.404 195.623 128.897" fill="#E0E0E0"/>
<path d="M190.784 133.162C193.955 133.507 197.174 133.736 200.316 133.211C203.458 132.685 206.327 131.47 209.211 130.254C209.469 130.175 209.686 130.001 209.819 129.767C209.864 129.634 209.867 129.489 209.828 129.354C209.789 129.218 209.71 129.098 209.6 129.009C209.379 128.832 209.119 128.71 208.842 128.654C205.705 127.773 202.315 128.167 199.227 129.228C196.284 130.226 193.454 131.53 190.784 133.118" fill="#E0E0E0"/>
<path d="M172.692 140.974C170.532 136.597 170.673 131.519 172.536 127.021C173.854 129.024 173.995 131.573 173.771 133.961C173.548 136.349 172.799 138.795 172.76 141.193" fill="#E0E0E0"/>
<path d="M164.054 136.616C161.348 136.581 158.665 137.111 156.175 138.172C153.685 139.233 151.444 140.802 149.595 142.778C152.29 143.201 155.062 142.506 157.513 141.319C159.964 140.132 162.143 138.445 164.322 136.777" fill="#E0E0E0"/>
<path d="M158.253 134.675C155.612 134.461 153.068 134.135 150.529 134.913C147.991 135.691 145.666 137.457 144.65 139.903C147.141 140.103 149.64 139.631 151.886 138.536C154.119 137.441 156.25 136.149 158.253 134.675Z" fill="#E0E0E0"/>
<path d="M166.845 134.764C164.472 133.208 162.031 131.627 159.268 130.98C156.506 130.333 153.296 130.81 151.365 132.896C153.607 134.209 156.321 134.355 158.918 134.355C161.515 134.355 164.696 134.321 167.142 135.187" fill="#E0E0E0"/>
<path d="M166.86 134.89C162.799 130.902 161.263 123.738 162.897 118.291C166.101 123.197 167.502 129.065 166.86 134.89Z" fill="#E0E0E0"/>
<path d="M178.026 123.591C178.794 121.811 179.329 119.944 180.02 118.13C180.645 116.291 181.607 114.584 182.855 113.096C184.127 111.601 185.934 110.665 187.889 110.489C187.263 113.236 186.072 115.822 184.391 118.083C182.711 120.344 180.578 122.23 178.128 123.62" fill="#E0E0E0"/>
<path d="M176.009 125.946C174.739 124.205 173.275 121.836 171.559 120.533C169.842 119.229 167.6 118.441 165.504 118.942C166.59 120.846 168.105 122.47 169.929 123.685C171.752 124.901 173.834 125.675 176.009 125.946Z" fill="#E0E0E0"/>
<path d="M176.412 123.734C175.581 121.623 174.744 119.488 174.409 117.246C174.073 115.004 174.277 112.606 175.425 110.651C177.653 114.863 178.372 119.405 176.524 123.782" fill="#E0E0E0"/>
<path d="M178.047 110.655C179.311 106.477 183.134 103.399 187.263 101.988C187.776 101.78 188.331 101.697 188.882 101.745C189.156 101.777 189.415 101.888 189.627 102.065C189.839 102.243 189.994 102.478 190.074 102.742C190.225 103.452 189.636 104.089 189.101 104.561C185.872 107.317 182.118 109.39 178.066 110.655" fill="#E0E0E0"/>
<path d="M178.094 107.236C178.254 104.547 178.42 101.813 179.295 99.26C180.171 96.7067 181.863 94.3139 184.319 93.2002C184.737 95.9189 183.536 98.6229 182.087 100.982C180.637 103.34 178.896 105.529 178.026 108.141" fill="#E0E0E0"/>
<path d="M178.025 109.094C176.985 106.049 176.873 102.183 175.054 99.5274C173.78 97.6745 171.737 96.41 170.638 94.45C169.975 96.3321 170.067 98.3978 170.896 100.213C171.724 102.01 172.865 103.645 174.266 105.043C175.618 106.502 176.771 107.567 178.025 109.094Z" fill="#E0E0E0"/>
<path d="M178.046 198.742C177.968 198.742 177.895 178.432 177.89 153.39C177.885 128.349 177.944 108.029 178.026 108.029C178.109 108.029 178.177 128.334 178.182 153.39C178.187 178.447 178.128 198.742 178.046 198.742Z" fill="#E0E0E0"/>
<path d="M195.792 137.909C195.547 138.028 195.292 138.125 195.029 138.196L192.928 138.906C191.157 139.509 188.721 140.365 186.08 141.464C183.439 142.563 180.998 143.497 179.592 144.713C179.033 145.182 178.587 145.773 178.289 146.439C178.089 146.926 178.055 147.208 178.026 147.203C178.014 147.132 178.014 147.06 178.026 146.989C178.058 146.787 178.108 146.588 178.177 146.396C178.442 145.688 178.878 145.056 179.446 144.557C180.294 143.841 181.243 143.253 182.262 142.811C183.386 142.286 184.635 141.737 185.958 141.192C188.609 140.107 191.065 139.246 192.855 138.707C193.75 138.429 194.479 138.22 194.99 138.084C195.251 138 195.52 137.942 195.792 137.909Z" fill="#E0E0E0"/>
<path d="M201.609 123.621C201.609 123.621 201.545 123.708 201.395 123.849L200.743 124.462L198.311 126.67L190.214 133.882C187.052 136.694 184.324 139.383 182.432 141.406C181.484 142.418 180.735 143.254 180.224 143.838C179.991 144.11 179.796 144.324 179.636 144.509C179.475 144.694 179.427 144.743 179.417 144.733C179.467 144.642 179.526 144.555 179.592 144.475C179.713 144.31 179.893 144.067 180.137 143.765C180.623 143.157 181.348 142.306 182.277 141.265C184.72 138.595 187.305 136.058 190.019 133.664C193.19 130.853 196.079 128.314 198.175 126.514L200.67 124.374L201.356 123.805C201.433 123.734 201.518 123.672 201.609 123.621Z" fill="#E0E0E0"/>
<path d="M186.804 136.742C186.721 136.703 187.378 135.181 188.039 133.25C188.701 131.319 189.012 129.695 189.099 129.71C189.187 129.724 188.988 131.392 188.316 133.347C188.036 134.175 187.711 134.987 187.344 135.779C187.211 136.124 187.029 136.449 186.804 136.742Z" fill="#E0E0E0"/>
<path d="M178.066 149.022C177.884 148.851 177.721 148.662 177.579 148.457L176.329 146.857C175.284 145.5 173.834 143.633 172.21 141.585C170.586 139.538 169.093 137.695 168.013 136.377L166.744 134.806C166.577 134.621 166.43 134.418 166.306 134.203C166.498 134.361 166.674 134.539 166.831 134.733C167.157 135.083 167.619 135.603 168.178 136.25C169.302 137.549 170.824 139.363 172.448 141.415C174.073 143.467 175.503 145.354 176.509 146.741C176.996 147.436 177.409 148 177.681 148.399C177.827 148.595 177.956 148.803 178.066 149.022Z" fill="#E0E0E0"/>
<path d="M174.175 144.037C174.126 144.091 173.091 142.856 172.546 140.988C172.239 139.992 172.114 138.95 172.176 137.91H172.303C172.249 138.143 172.205 138.269 172.181 138.265C172.157 138.26 172.157 138.128 172.181 137.89H172.312C172.373 138.903 172.548 139.907 172.833 140.881C173.353 142.7 174.253 143.989 174.175 144.037Z" fill="#E0E0E0"/>
<path d="M169.176 137.719C168.826 137.451 168.444 137.229 168.038 137.058C167.013 136.752 165.936 136.665 164.876 136.805C163.804 136.888 162.74 137.06 161.696 137.32C161.268 137.457 160.831 137.561 160.387 137.632C160.778 137.4 161.201 137.228 161.642 137.121C162.687 136.796 163.766 136.592 164.857 136.513C165.955 136.367 167.073 136.487 168.115 136.863C168.559 137.015 168.934 137.318 169.176 137.719Z" fill="#E0E0E0"/>
<path d="M167.959 136.188C167.959 136.232 167.297 135.921 166.218 135.551C163.393 134.583 160.368 134.354 157.429 134.885C156.306 135.084 155.625 135.293 155.61 135.245C155.753 135.155 155.909 135.089 156.072 135.05C156.503 134.899 156.944 134.776 157.39 134.68C160.358 134.029 163.451 134.264 166.286 135.356C166.711 135.52 167.127 135.708 167.531 135.921C167.818 136.076 167.968 136.169 167.959 136.188Z" fill="#E0E0E0"/>
<path d="M178.026 129.709C177.948 129.709 177.379 127.764 176.757 125.293C176.134 122.823 175.687 120.824 175.784 120.804C175.881 120.785 176.431 122.75 177.053 125.22C177.676 127.691 178.104 129.69 178.026 129.709Z" fill="#E0E0E0"/>
<path d="M178.11 129.709C178.022 129.739 177.652 128.416 176.699 127.064C176.101 126.265 175.403 125.545 174.622 124.924C174.918 124.998 175.193 125.139 175.425 125.337C176.014 125.768 176.525 126.296 176.937 126.898C177.567 127.717 177.971 128.686 178.11 129.709Z" fill="#E0E0E0"/>
<path d="M178.045 187.929C178.016 187.929 177.953 187.443 177.724 186.577C177.389 185.363 176.935 184.185 176.367 183.061C174.967 180.196 172.413 176.558 169.17 172.921C167.56 171.082 166.003 169.351 164.681 167.692C163.492 166.232 162.418 164.682 161.466 163.057C160.829 161.961 160.287 160.813 159.846 159.624C159.696 159.196 159.589 158.87 159.525 158.651C159.483 158.525 159.457 158.395 159.448 158.262C159.477 158.262 159.623 158.748 159.958 159.556C160.439 160.721 161.004 161.849 161.651 162.931C162.62 164.53 163.704 166.056 164.895 167.498C166.222 169.137 167.783 170.863 169.393 172.702C172.647 176.354 175.195 180.031 176.562 182.949C177.116 184.092 177.545 185.293 177.841 186.528C177.922 186.863 177.982 187.203 178.021 187.545C178.044 187.672 178.052 187.801 178.045 187.929Z" fill="#E0E0E0"/>
<path d="M194.086 169.805C193.816 169.983 193.535 170.146 193.245 170.291C192.484 170.724 191.756 171.212 191.066 171.75C190.044 172.544 189.086 173.417 188.201 174.362C187.195 175.422 186.159 176.657 185.103 177.975C182.993 180.626 181.018 182.97 179.836 184.842C179.233 185.771 178.795 186.554 178.509 187.104C178.376 187.397 178.222 187.68 178.047 187.95C178.06 187.867 178.087 187.787 178.124 187.712C178.188 187.561 178.275 187.333 178.406 187.055C178.777 186.257 179.195 185.481 179.656 184.731C180.809 182.814 182.769 180.436 184.875 177.79C185.935 176.468 186.981 175.232 188.007 174.172C188.906 173.231 189.882 172.365 190.925 171.585C191.634 171.061 192.387 170.6 193.177 170.208C193.454 170.067 193.663 169.98 193.833 169.917C193.909 169.862 193.995 169.824 194.086 169.805Z" fill="#E0E0E0"/>
<path d="M194.397 175.679C193.812 175.81 193.219 175.897 192.621 175.937C191.195 176.085 189.786 176.362 188.41 176.764C187.05 177.208 185.774 177.877 184.636 178.743C183.765 179.419 183.357 179.974 183.318 179.94C183.379 179.788 183.468 179.649 183.58 179.531C183.856 179.178 184.166 178.852 184.504 178.558C185.629 177.622 186.924 176.91 188.317 176.462C189.712 176.049 191.15 175.794 192.602 175.704C193.198 175.64 193.799 175.632 194.397 175.679Z" fill="#E0E0E0"/>
<path d="M183.833 179.298C183.74 179.245 184.543 178.019 185.161 176.38C185.778 174.741 185.88 173.268 185.987 173.282C186.033 173.606 186.023 173.935 185.958 174.255C185.869 175.021 185.695 175.775 185.438 176.502C185.169 177.223 184.823 177.912 184.407 178.559C184.257 178.835 184.063 179.085 183.833 179.298Z" fill="#E0E0E0"/>
<path d="M199.281 154.027C199.19 154.086 199.094 154.137 198.994 154.178L198.157 154.557C197.792 154.713 197.35 154.912 196.849 155.175C196.348 155.438 195.764 155.7 195.151 156.07L194.179 156.619C193.843 156.814 193.508 157.043 193.157 157.261C192.443 157.699 191.728 158.234 190.964 158.774C187.693 161.217 184.838 164.173 182.511 167.528C181.996 168.311 181.485 169.046 181.077 169.775C180.868 170.135 180.649 170.475 180.469 170.816L179.948 171.789C179.603 172.411 179.36 173.004 179.117 173.515C178.874 174.026 178.684 174.488 178.543 174.848L178.193 175.694C178.157 175.796 178.11 175.894 178.052 175.986C178.066 175.879 178.094 175.774 178.134 175.674C178.217 175.446 178.314 175.159 178.436 174.804C178.59 174.345 178.767 173.893 178.966 173.452C179.195 172.931 179.428 172.328 179.764 171.696L180.25 170.694C180.425 170.349 180.639 170.004 180.848 169.634C181.247 168.895 181.753 168.175 182.268 167.363C184.585 163.965 187.463 160.987 190.779 158.555C191.557 158.01 192.282 157.48 193.007 157.052C193.367 156.833 193.702 156.61 194.043 156.42L195.015 155.88C195.633 155.525 196.231 155.267 196.742 155.024C197.176 154.808 197.62 154.615 198.074 154.446L198.935 154.12C199.045 154.072 199.162 154.041 199.281 154.027Z" fill="#E0E0E0"/>
<path d="M186.585 162.528C186.704 162.119 186.947 161.757 187.281 161.492C188.062 160.81 189.06 160.427 190.096 160.412C191.111 160.406 192.116 160.602 193.053 160.991C193.45 161.117 193.827 161.298 194.172 161.531C193.773 161.452 193.382 161.335 193.005 161.181C192.076 160.863 191.102 160.699 190.121 160.695C189.148 160.715 188.208 161.046 187.436 161.638C187.132 161.914 186.848 162.212 186.585 162.528Z" fill="#E0E0E0"/>
<path d="M184.689 164.489C184.607 164.445 185.322 163.394 185.487 161.891C185.652 160.389 185.22 159.202 185.307 159.178C185.395 159.153 185.502 159.44 185.638 159.936C185.984 161.244 185.823 162.634 185.186 163.827C184.938 164.275 184.738 164.508 184.689 164.489Z" fill="#E0E0E0"/>
<path d="M164.02 190.848C164.457 198.63 166.797 206.504 170.396 214.484H186.037C189.47 206.557 191.644 198.678 192.033 190.848H164.02Z" fill="#E0E0E0"/>
<path d="M189.499 203.38C189.499 203.463 184.349 203.531 177.992 203.531C171.636 203.531 166.49 203.463 166.49 203.38C166.49 203.298 171.64 203.234 177.992 203.234C184.344 203.234 189.499 203.302 189.499 203.38Z" fill="#FAFAFA"/>
<path d="M189.149 206.191C189.149 206.274 184.32 206.342 178.367 206.342C172.414 206.342 167.58 206.274 167.58 206.191C167.58 206.109 172.409 206.046 178.367 206.046C184.325 206.046 189.149 206.114 189.149 206.191Z" fill="#FAFAFA"/>
<path d="M170.633 195.92C170.828 198.318 170.828 200.729 170.633 203.127C170.551 203.127 170.487 201.513 170.487 199.524C170.487 197.534 170.565 195.92 170.633 195.92Z" fill="#FAFAFA"/>
<path d="M179.029 195.92C179.112 195.92 179.175 197.588 179.175 199.65C179.175 201.712 179.112 203.38 179.029 203.38C178.946 203.38 178.883 201.712 178.883 199.65C178.883 197.588 178.946 195.92 179.029 195.92Z" fill="#FAFAFA"/>
<path d="M186.898 195.858C186.981 195.858 187.044 197.56 187.044 199.661C187.044 201.762 186.981 203.469 186.898 203.469C186.815 203.469 186.752 201.767 186.752 199.661C186.752 197.555 186.815 195.858 186.898 195.858Z" fill="#FAFAFA"/>
<path d="M191.546 195.921C191.546 196.004 185.506 196.067 178.055 196.067C170.604 196.067 164.564 196.004 164.564 195.921C164.564 195.838 170.599 195.775 178.055 195.775C185.511 195.775 191.546 195.838 191.546 195.921Z" fill="#FAFAFA"/>
<path d="M183.143 118.494H5.88037V123.956H183.143V118.494Z" fill="#EBEBEB"/>
<path d="M21.2144 123.285L7.93237 214.46H10.7823L27.1624 123.956L21.2144 123.285Z" fill="#EBEBEB"/>
<path d="M170.623 122.707L184.635 214.46H181.79L164.671 123.543L170.623 122.707Z" fill="#EBEBEB"/>
<path d="M12.6117 96.4968V108.792H10.5593V110.114H12.6117V118.343H50.9939V110.854H48.1537V109.22H50.9939V106.788H52.2584V105.679H50.7507V96.4968H12.6117Z" fill="#F5F5F5"/>
<path d="M40.7957 96.5171V118.203H50.9845V110.718H48.1443V109.225L50.9845 109.274V106.828H52.2734L52.249 105.563L50.7511 105.529V96.4831L40.7957 96.5171Z" fill="#E0E0E0"/>
<path d="M41.5201 109.935C41.5201 110.013 34.58 110.071 26.0155 110.071C17.451 110.071 10.506 110.013 10.506 109.935C10.506 109.857 17.451 109.799 26.0155 109.799C34.58 109.799 41.5201 109.862 41.5201 109.935Z" fill="#E0E0E0"/>
<path d="M41.5201 108.685C41.5201 108.763 34.58 108.821 26.0155 108.821C17.451 108.821 10.506 108.763 10.506 108.685C10.506 108.607 17.451 108.549 26.0155 108.549C34.58 108.549 41.5201 108.612 41.5201 108.685Z" fill="#E0E0E0"/>
<path d="M43.5136 105.325C43.5136 105.403 36.5686 105.461 28.009 105.461C19.4494 105.461 12.4995 105.403 12.4995 105.325C12.4995 105.247 19.4396 105.189 28.009 105.189C36.5784 105.189 43.5136 105.252 43.5136 105.325Z" fill="#E0E0E0"/>
<path d="M43.6978 114.492C43.6978 114.57 36.7577 114.633 28.1932 114.633C19.6287 114.633 12.6837 114.57 12.6837 114.492C12.6837 114.414 19.6238 114.356 28.1932 114.356C36.7626 114.356 43.6978 114.409 43.6978 114.492Z" fill="#E0E0E0"/>
<path d="M53.8279 88.2492H47.1359V96.2058H53.8279V88.2492Z" fill="#F5F5F5"/>
<path d="M47.3659 87.7293H17.1251V96.7023H47.3659V87.7293Z" fill="#E0E0E0"/>
<path d="M54.0291 88.4872H46.554V87.7431H54.0291C54.1297 87.7431 54.2262 87.783 54.2973 87.8542C54.3684 87.9253 54.4084 88.0218 54.4084 88.1224C54.4046 88.2205 54.363 88.3133 54.2923 88.3813C54.2215 88.4493 54.1272 88.4872 54.0291 88.4872Z" fill="#E0E0E0"/>
<path d="M54.0291 96.7064H46.554V95.9477H54.0291C54.1297 95.9477 54.2262 95.9877 54.2973 96.0588C54.3684 96.1299 54.4084 96.2264 54.4084 96.327C54.4084 96.4276 54.3684 96.5241 54.2973 96.5953C54.2262 96.6664 54.1297 96.7064 54.0291 96.7064Z" fill="#E0E0E0"/>
<path d="M44.9917 87.7293H41.4171V96.7023H44.9917V87.7293Z" fill="#EBEBEB"/>
<path d="M23.578 87.8309H20.0034V96.8039H23.578V87.8309Z" fill="#EBEBEB"/>
<path d="M53.8294 89.5669C53.8294 89.5669 52.3704 89.6058 50.5952 89.6058C48.8201 89.6058 47.3562 89.6058 47.3562 89.5669C47.3562 89.528 48.8152 89.5231 50.5952 89.5231C52.3753 89.5231 53.8294 89.5425 53.8294 89.5669Z" fill="#E0E0E0"/>
<path d="M53.8294 90.7584C53.8294 90.7584 52.3704 90.7973 50.5952 90.7973C48.8201 90.7973 47.3562 90.7973 47.3562 90.7584C47.3562 90.7195 48.8152 90.7195 50.5952 90.7195C52.3753 90.7195 53.8294 90.7341 53.8294 90.7584Z" fill="#E0E0E0"/>
<path d="M53.8294 92.2269C53.8294 92.2269 52.3704 92.2658 50.5952 92.2658C48.8201 92.2658 47.3562 92.2658 47.3562 92.2269C47.3562 92.188 48.8152 92.188 50.5952 92.188C52.3753 92.188 53.8294 92.2025 53.8294 92.2269Z" fill="#E0E0E0"/>
<path d="M53.8294 93.6953C53.8294 93.6953 52.3704 93.7342 50.5952 93.7342C48.8201 93.7342 47.3562 93.7342 47.3562 93.6953C47.3562 93.6564 48.8152 93.6564 50.5952 93.6564C52.3753 93.6564 53.8294 93.671 53.8294 93.6953Z" fill="#E0E0E0"/>
<path d="M53.8294 95.1637C53.8294 95.1637 52.3704 95.2026 50.5952 95.2026C48.8201 95.2026 47.3562 95.2026 47.3562 95.1637C47.3562 95.1248 48.8152 95.1248 50.5952 95.1248C52.3753 95.1248 53.8294 95.1394 53.8294 95.1637Z" fill="#E0E0E0"/>
<path d="M39.4923 91.4202H25.8893V93.0348H39.4923V91.4202Z" fill="#EBEBEB"/>
<path d="M41.0144 79.0186L44.7787 87.8603H42.3567L40.6837 83.1379L41.0144 79.0186Z" fill="#E0E0E0"/>
<path d="M29.4573 71.0223L28.0032 87.8595H40.3028L41.6548 71.0223H29.4573Z" fill="#EBEBEB"/>
<path d="M30.6598 72.3547L29.3856 86.4587L38.6213 86.5803L39.8663 72.2721L30.6598 72.3547Z" fill="#FAFAFA"/>
<path d="M32.6202 74.3103L31.8955 84.0128H36.8222L37.6879 74.3103H32.6202Z" fill="#E0E0E0"/>
<path d="M173.96 8.43875L169.413 8.46335L169.536 31.0926L174.083 31.068L173.96 8.43875Z" fill="#E0E0E0"/>
<path d="M141.791 8.49602L130.012 8.55975L130.079 21.0537L141.858 20.99L141.791 8.49602Z" fill="#EBEBEB"/>
<path d="M153.511 8.43749L141.732 8.50122L141.799 20.9952L153.578 20.9315L153.511 8.43749Z" fill="#F5F5F5"/>
<path d="M130.03 12.0199C137.855 12.0879 145.704 12.0199 153.53 11.9129C153.558 11.9072 153.584 11.8917 153.603 11.8691C153.621 11.8464 153.631 11.8181 153.631 11.7888C153.631 11.7596 153.621 11.7312 153.603 11.7086C153.584 11.686 153.558 11.6705 153.53 11.6648C145.706 11.6194 137.874 11.6664 130.034 11.8059C130.006 11.8059 129.979 11.8171 129.959 11.8372C129.939 11.8573 129.927 11.8845 129.927 11.9129C129.927 11.9412 129.939 11.9685 129.959 11.9885C129.979 12.0086 130.006 12.0199 130.034 12.0199H130.03Z" fill="#E0E0E0"/>
<path d="M144.07 20.787L122.671 20.9028L122.726 31.0818L144.125 30.9661L144.07 20.787Z" fill="#EBEBEB"/>
<path d="M165.367 20.6665L143.968 20.7823L144.023 30.9613L165.422 30.8456L165.367 20.6665Z" fill="#F5F5F5"/>
<path d="M122.68 23.7411C136.896 23.9016 151.161 23.7411 165.376 23.532C165.41 23.532 165.442 23.5187 165.466 23.4949C165.489 23.4712 165.503 23.4391 165.503 23.4055C165.503 23.372 165.489 23.3398 165.466 23.3161C165.442 23.2924 165.41 23.2791 165.376 23.2791C151.161 23.2061 136.891 23.211 122.68 23.5271C122.652 23.5271 122.625 23.5384 122.605 23.5585C122.585 23.5785 122.573 23.6057 122.573 23.6341C122.573 23.6625 122.585 23.6897 122.605 23.7098C122.625 23.7298 122.652 23.7411 122.68 23.7411Z" fill="#E0E0E0"/>
<path d="M197.582 31.0889H114.68V34.7364H197.582V31.0889Z" fill="#E0E0E0"/>
<path d="M131.62 32.8448H128.254V45.2903H131.62V32.8448Z" fill="#E0E0E0"/>
<path d="M181.858 32.8448H178.492V45.2903H181.858V32.8448Z" fill="#E0E0E0"/>
<path d="M178.395 -6.04113e-06L173.848 0.0245972L174.016 31.1501L178.563 31.1255L178.395 -6.04113e-06Z" fill="#EBEBEB"/>
<path d="M185.502 5.79812L178.436 5.83635L178.572 31.0577L185.638 31.0195L185.502 5.79812Z" fill="#F5F5F5"/>
<path d="M185.457 10.6628C184.283 10.7846 183.102 10.8252 181.922 10.7843C180.743 10.8253 179.564 10.7847 178.391 10.6628C180.744 10.5007 183.105 10.5007 185.457 10.6628Z" fill="#E0E0E0"/>
<path d="M185.457 9.60232C184.283 9.72413 183.102 9.76476 181.922 9.72391C180.743 9.76486 179.564 9.72423 178.391 9.60232C180.744 9.44022 183.105 9.44022 185.457 9.60232Z" fill="#E0E0E0"/>
<path d="M185.457 27.2321C183.105 27.3942 180.744 27.3942 178.391 27.2321C180.744 27.07 183.105 27.07 185.457 27.2321Z" fill="#E0E0E0"/>
<path d="M185.457 26.1717C183.105 26.3338 180.744 26.3338 178.391 26.1717C180.744 26.0096 183.105 26.0096 185.457 26.1717Z" fill="#E0E0E0"/>
<path d="M182.038 23.8626C181.97 23.8626 181.911 21.3191 181.911 18.1773C181.911 15.0355 181.97 12.4968 182.038 12.4968C182.106 12.4968 182.159 15.0404 182.159 18.1773C182.159 21.3142 182.101 23.8626 182.038 23.8626Z" fill="#E0E0E0"/>
<path d="M193.224 11.9993H185.53V31.0396H193.224V11.9993Z" fill="#EBEBEB"/>
<path d="M177.365 5.32186C177.366 5.58082 177.29 5.83423 177.147 6.05002C177.003 6.2658 176.799 6.43424 176.56 6.534C176.321 6.63377 176.058 6.66037 175.804 6.61044C175.55 6.56051 175.316 6.4363 175.133 6.25353C174.95 6.07076 174.824 5.83766 174.774 5.58375C174.723 5.32984 174.748 5.06654 174.847 4.82721C174.946 4.58787 175.114 4.38326 175.329 4.23929C175.544 4.09532 175.797 4.01846 176.056 4.01846C176.402 4.01846 176.735 4.15563 176.98 4.39992C177.225 4.64422 177.363 4.97573 177.365 5.32186Z" fill="#E0E0E0"/>
<path d="M176.461 8.92126H175.654V27.4364H176.461V8.92126Z" fill="#E0E0E0"/>
<path d="M204.118 214.459C204.118 214.527 158.402 214.586 102.064 214.586C45.726 214.586 0 214.527 0 214.459C0 214.391 45.6871 214.333 102.064 214.333C158.441 214.333 204.118 214.386 204.118 214.459Z" fill="#263238"/>
<path d="M101.225 152.851L121.277 214.46H117.625L94.1346 152.851H101.225Z" fill="#E0E0E0"/>
<path d="M101.227 152.85H100.74H99.3784L94.1162 152.879L94.1648 152.806C98.1918 163.297 106.873 185.985 116.931 212.247C117.203 212.967 117.475 213.706 117.748 214.392L117.631 214.314H121.278L121.157 214.48C115.559 197.21 110.564 181.817 106.97 170.738C105.181 165.189 103.741 160.724 102.749 157.636C102.262 156.094 101.873 154.898 101.611 154.081L101.319 153.152C101.256 152.943 101.227 152.831 101.227 152.831C101.227 152.831 101.265 152.928 101.334 153.132L101.64 154.042C101.907 154.854 102.301 156.036 102.807 157.563C103.819 160.641 105.278 165.092 107.097 170.616C110.72 181.71 115.754 197.117 121.395 214.387L121.449 214.553H117.558L117.524 214.47C117.256 213.76 116.979 213.045 116.707 212.325C106.712 186.024 98.0799 163.311 94.0967 152.836V152.763H94.1746L99.466 152.792H100.813C101.085 152.841 101.227 152.85 101.227 152.85Z" fill="#263238"/>
<path d="M61.7637 152.851L41.7118 214.46H45.3594L68.8546 152.851H61.7637Z" fill="#E0E0E0"/>
<path d="M61.7644 152.85C61.7644 152.85 61.9152 152.85 62.2167 152.85H63.5639L68.8553 152.821H68.9331L68.904 152.894C64.9257 163.37 56.2931 186.082 46.2987 212.384L45.4768 214.528L45.4476 214.611H41.5569L41.6104 214.446L55.9137 170.675L60.2033 157.621C60.6896 156.094 61.103 154.913 61.3705 154.1L61.6769 153.191C61.745 152.987 61.7839 152.889 61.7839 152.889C61.7839 152.889 61.7547 153.001 61.6915 153.21L61.3997 154.139C61.1371 154.956 60.7529 156.153 60.2616 157.694C59.2646 160.783 57.8299 165.247 56.0402 170.796C52.4412 181.875 47.4514 197.268 41.8536 214.538L41.732 214.373H45.3795L45.2628 214.451L46.0799 212.306C56.1375 186.043 64.8187 163.336 68.8213 152.87L68.8748 152.943L63.6077 152.914H62.2508L61.7644 152.85Z" fill="#263238"/>
<path d="M94.6505 154.202C94.5406 154.295 94.4235 154.38 94.3003 154.455L93.2692 155.136L89.4709 157.626C86.2659 159.736 81.845 162.664 76.9865 165.923L64.5458 174.312L60.7718 176.846L59.7456 177.498C59.6297 177.584 59.506 177.659 59.376 177.721C59.4831 177.626 59.5968 177.538 59.7164 177.459L60.7183 176.744L64.4485 174.147C67.6049 171.968 71.9869 168.977 76.8503 165.718C81.7137 162.46 86.1443 159.552 89.3785 157.48C90.9931 156.449 92.2965 155.617 93.2206 155.048L94.276 154.406C94.3954 154.329 94.5206 154.26 94.6505 154.202Z" fill="#263238"/>
<path d="M56.1817 87.1696C56.1817 87.1696 49.8982 87.8164 48.9838 91.6002C48.0695 95.3839 45.0931 142.18 48.9838 148.809C52.8746 155.438 102.968 154.514 106.445 153.604C109.923 152.695 111.562 150.438 111.207 147.68C110.852 144.923 76.7395 141.504 76.7395 141.504L78.821 92.6653C78.821 92.6653 66.5554 86.4887 56.1817 87.1696Z" fill="#263238"/>
<path d="M111.236 148.863H111.085H110.637L108.921 148.907C107.427 148.946 105.268 148.965 102.598 148.96C97.2483 148.96 89.8802 148.776 81.7534 148.192C77.6924 147.895 73.826 147.521 70.3195 147.122C66.8129 146.723 63.6614 146.285 61.0254 145.872C59.7026 145.678 58.5159 145.468 57.4703 145.293C56.4246 145.118 55.5249 144.958 54.7905 144.807L53.1029 144.481L52.6652 144.394L52.5193 144.355C52.5693 144.348 52.62 144.348 52.6701 144.355L53.1126 144.418L54.81 144.695C55.5443 144.822 56.4441 144.972 57.4946 145.128C58.5451 145.284 59.7318 145.488 61.0497 145.668C63.6906 146.062 66.8421 146.465 70.3438 146.864C73.8454 147.263 77.7119 147.618 81.7728 147.915C89.8948 148.498 97.2629 148.698 102.598 148.756C105.263 148.785 107.423 148.79 108.921 148.785H111.09L111.236 148.863Z" fill="#455A64"/>
<path d="M103.883 178.413C103.844 178.471 95.9069 172.893 86.1605 165.962C76.4142 159.032 68.5403 153.356 68.5792 153.317C68.6182 153.278 76.5553 158.837 86.3065 165.772C96.0576 172.708 103.922 178.354 103.883 178.413Z" fill="#263238"/>
<path d="M60.6213 45.1551L56.609 38.0885C59.0871 34.065 59.9706 29.26 59.0858 24.6181C58.201 19.9762 55.612 15.8331 51.8276 13.0032C48.0432 10.1733 43.3371 8.86125 38.6344 9.32502C33.9318 9.78878 29.5726 11.9948 26.4139 15.5094C23.2551 19.024 21.5252 23.593 21.5642 28.3183C21.6032 33.0437 23.4083 37.5835 26.6246 41.0455C29.841 44.5075 34.2359 46.6412 38.9456 47.0273C43.6553 47.4134 48.339 46.0239 52.0762 43.1319L60.6213 45.1551Z" fill="white"/>
<path d="M60.6216 45.1545L52.0522 43.2091H51.9355L52.0085 43.1119L52.1155 43.2188C49.4811 45.2771 46.3479 46.5996 43.0354 47.0512C42.0434 47.1922 41.0408 47.2443 40.0396 47.2069C39.524 47.1777 38.9988 47.1631 38.4687 47.1193L36.8686 46.881C32.1006 45.9455 27.8678 43.2292 25.031 39.2843C23.4556 37.1085 22.3629 34.6213 21.826 31.9892C21.2812 29.1974 21.3576 26.3198 22.0497 23.5609C22.7661 20.6813 24.1582 18.0138 26.1107 15.7794C28.0929 13.4858 30.5939 11.6984 33.4058 10.5658C36.103 9.50071 39.005 9.05527 41.8974 9.26236C44.6289 9.45077 47.2855 10.2378 49.6789 11.5676C53.9803 13.947 57.2044 17.8866 58.686 22.5736C59.2698 24.5742 59.5469 26.6518 59.5079 28.7355C59.4048 32.0593 58.4267 35.297 56.6725 38.122V38.0442L60.6216 45.1496C60.359 44.7022 59.1237 42.5671 56.5461 38.1171V38.0831V38.0442C58.2625 35.2324 59.2101 32.019 59.2939 28.7258C59.3256 26.6686 59.0436 24.6187 58.4574 22.6465C56.9933 18.0132 53.8102 14.1165 49.5622 11.7573C47.2007 10.4507 44.5805 9.68028 41.8877 9.50067C39.0396 9.29847 36.1824 9.73893 33.5274 10.7895C30.7603 11.9062 28.2994 13.6669 26.349 15.9253C24.4257 18.1258 23.0551 20.7535 22.3513 23.59C21.6649 26.3051 21.5868 29.1383 22.1227 31.887C22.6426 34.491 23.7139 36.9536 25.2645 39.1092C28.0567 43.0104 32.2307 45.7009 36.9367 46.633L38.5173 46.8761C39.0426 46.9199 39.5581 46.9345 40.0687 46.9686C41.0582 47.0083 42.0493 46.9611 43.0306 46.8275C46.3125 46.3944 49.4224 45.1045 52.0474 43.0875L52.5337 42.7228L52.169 43.2091L52.1252 43.0924L60.6216 45.1545Z" fill="#263238"/>
<path d="M37.2626 25.6525H38.459L41.0658 22.0147V19.6267C41.0658 19.6267 42.9139 19.5149 42.7 22.6372C42.486 25.7595 42.7 24.9668 42.7 24.9668C42.7 24.9668 46.6247 24.9668 46.9506 25.3267C47.1889 25.5698 47.2959 29.4703 47.3348 31.581C47.362 32.0911 47.2171 32.5956 46.9235 33.0136C46.6298 33.4316 46.2044 33.7389 45.7153 33.8863C45.5775 33.9248 45.4352 33.9444 45.2922 33.9447C44.3195 33.9447 39.315 33.1471 39.315 33.1471H37.248L37.2626 25.6525Z" fill="#50B5E5"/>
<path d="M33.8378 24.9955L34.577 33.171H36.6245V25.1609L33.8378 24.9955Z" fill="#50B5E5"/>
<path d="M136.284 128.598C136.284 128.598 147.538 128.598 148 139.084C148.462 149.569 115.24 204.886 115.24 204.886L104.72 199.891L127.277 146.214L78.3314 141.399L79.7175 129.085L136.284 128.598Z" fill="#FFBE9D"/>
<path d="M117.461 201.695L117.135 202.439C117.135 202.439 127.446 213.042 126.522 215.483L101.665 204.297L105.726 196.175C108.648 199.555 112.432 201.491 117.461 201.695Z" fill="#455A64"/>
<g opacity="0.6">
<path d="M107.054 199.959C106.782 199.925 106.507 199.991 106.281 200.146C106.055 200.302 105.894 200.534 105.828 200.8C105.783 201.071 105.844 201.349 105.998 201.576C106.152 201.803 106.387 201.962 106.655 202.021C106.943 202.056 107.234 201.984 107.472 201.818C107.71 201.652 107.878 201.404 107.944 201.121C107.963 200.835 107.869 200.552 107.683 200.333C107.497 200.114 107.233 199.976 106.947 199.949" fill="white"/>
</g>
<g opacity="0.6">
<path d="M101.666 204.303L102.639 202.358L126.105 213.792C126.105 213.792 126.995 214.764 126.518 215.494L101.666 204.303Z" fill="white"/>
</g>
<path d="M117.189 202.546C117.13 202.663 116.498 202.449 115.73 202.57C114.961 202.692 114.407 203.057 114.315 202.959C114.222 202.862 114.723 202.24 115.662 202.108C116.6 201.977 117.267 202.444 117.189 202.546Z" fill="#263238"/>
<path d="M119.315 204.798C119.29 204.924 118.668 204.895 118.026 205.226C117.384 205.557 117.019 206.043 116.902 205.985C116.786 205.926 117.014 205.202 117.822 204.808C118.629 204.414 119.363 204.681 119.315 204.798Z" fill="#263238"/>
<path d="M119.392 208.582C119.27 208.582 119.392 207.877 119.98 207.351C120.569 206.826 121.279 206.821 121.284 206.943C121.289 207.064 120.797 207.264 120.311 207.702C119.825 208.139 119.518 208.626 119.392 208.582Z" fill="#263238"/>
<path d="M114.991 89.0626L116.99 95.176L106.091 96.0271L104.822 92.754L114.991 89.0626Z" fill="#FFBE9D"/>
<path d="M145.937 97.083C146.146 97.5013 146.691 97.5694 147.109 97.7882C147.499 98.0113 147.818 98.3392 148.03 98.7348C148.243 99.1303 148.34 99.5775 148.311 100.025C148.241 100.921 147.944 101.785 147.45 102.535C147.298 102.84 147.076 103.105 146.803 103.308C146.664 103.404 146.5 103.456 146.331 103.456C146.163 103.456 145.998 103.404 145.859 103.308C145.538 103.041 145.577 102.545 145.645 102.131C145.903 100.58 145.568 98.6199 145.932 97.0879" fill="#FFBE9D"/>
<path d="M73.4519 20.4299C73.3596 19.7478 73.526 19.056 73.9185 18.4906C74.311 17.9253 74.9011 17.5275 75.5724 17.3756L87.6045 9.72058C92.1907 8.68954 97.9685 16.3494 98.7904 20.9697C99.6209 26.0479 99.9468 31.1958 99.7631 36.3382C99.4324 44.2461 94.2479 45.0923 94.2479 45.0923L98.1387 71.3889L79.3902 59.8285L73.4519 20.4299Z" fill="#FFBE9D"/>
<path d="M96.2908 27.5305C96.3229 27.7891 96.2531 28.0501 96.096 28.258C95.9389 28.4659 95.707 28.6045 95.4494 28.6442C95.196 28.6911 94.9343 28.6355 94.7218 28.4896C94.5094 28.3437 94.3635 28.1195 94.3162 27.8661C94.2841 27.6075 94.354 27.3465 94.5111 27.1386C94.6682 26.9307 94.9001 26.7921 95.1576 26.7524C95.4111 26.7055 95.6727 26.7611 95.8852 26.907C96.0977 27.0529 96.2436 27.2771 96.2908 27.5305Z" fill="#263238"/>
<path d="M97.838 24.6911C97.7407 24.7981 96.9431 24.7835 95.9364 25.1775C94.9296 25.5714 94.2633 26.0967 94.1369 26.0675C94.0104 26.0383 94.1369 25.8973 94.4433 25.6541C94.8657 25.309 95.3445 25.0392 95.8585 24.8565C96.349 24.6677 96.8699 24.5705 97.3954 24.5696C97.7455 24.5598 97.8866 24.6425 97.838 24.6911Z" fill="#263238"/>
<path d="M86.3308 28.0125C86.3616 28.2716 86.2905 28.5326 86.1327 28.7404C85.9748 28.9481 85.7424 29.0865 85.4845 29.1263C85.2318 29.1717 84.9714 29.1154 84.76 28.9697C84.5487 28.8239 84.4035 28.6005 84.3562 28.3481C84.3228 28.0893 84.3922 27.8277 84.5495 27.6194C84.7068 27.4112 84.9395 27.273 85.1976 27.2344C85.451 27.1875 85.7127 27.2431 85.9252 27.389C86.1377 27.5349 86.2835 27.7592 86.3308 28.0125Z" fill="#263238"/>
<path d="M87.3767 26.7275C87.2308 26.7859 86.4819 26.3384 85.3195 26.1682C84.1571 25.998 83.2477 26.1682 83.1358 26.0904C83.024 26.0126 83.2477 25.9299 83.6222 25.8375C84.2056 25.7216 84.805 25.7101 85.3925 25.8035C85.9618 25.8814 86.5113 26.0662 87.012 26.3482C87.3573 26.5476 87.4691 26.7032 87.3767 26.7275Z" fill="#263238"/>
<path d="M92.1226 33.3427C92.6654 33.097 93.2375 32.9221 93.8248 32.8223C94.0923 32.7639 94.3452 32.6812 94.3695 32.4867C94.3609 32.2017 94.2641 31.9264 94.0923 31.6988C93.7681 31.0504 93.4179 30.3873 93.0418 29.7097C91.5828 26.8743 90.4739 24.5301 90.6101 24.4718C90.7463 24.4134 92.0107 26.6652 93.4795 29.5005L94.496 31.5043C94.7072 31.8151 94.802 32.1906 94.7634 32.5645C94.7347 32.6655 94.6834 32.7586 94.6135 32.837C94.5436 32.9153 94.4568 32.9768 94.3598 33.0168C94.2128 33.0744 94.0592 33.1136 93.9026 33.1335C93.3203 33.2772 92.7223 33.3475 92.1226 33.3427Z" fill="#263238"/>
<path d="M94.2437 45.1122C90.611 45.6494 86.9005 45.1434 83.5442 43.6532C83.5442 43.6532 86.7395 49.1197 94.4237 47.4856L94.2437 45.1122Z" fill="#50B5E5"/>
<path d="M92.2449 35.9643C91.9834 35.6237 91.6489 35.3459 91.266 35.1515C90.883 34.9571 90.4614 34.8509 90.032 34.8409C89.7838 34.8461 89.543 34.9265 89.3416 35.0715C89.1401 35.2166 88.9874 35.4194 88.9037 35.6531C88.8197 35.955 88.8099 36.2728 88.8751 36.5793C88.9403 36.8858 89.0786 37.1721 89.2782 37.4137C89.4743 37.6693 89.7407 37.8621 90.0448 37.9684C90.349 38.0746 90.6775 38.0897 90.9901 38.0119C91.4975 37.8026 91.9297 37.4449 92.2303 36.9857C92.3393 36.8687 92.4178 36.7268 92.4589 36.5723C92.4767 36.4748 92.4728 36.3746 92.4476 36.2788C92.4224 36.183 92.3764 36.0939 92.313 36.0178" fill="#50B5E5"/>
<path d="M89.0545 34.4509C89.2295 34.4168 89.3657 35.5792 90.4551 36.2892C91.5445 36.9993 92.7701 36.7269 92.7993 36.8874C92.7993 36.9604 92.5513 37.1452 92.026 37.223C91.3469 37.3115 90.6582 37.1583 90.0807 36.7902C89.5261 36.4338 89.132 35.8757 88.9815 35.2339C88.8794 34.7329 88.9767 34.4509 89.0545 34.4509Z" fill="#263238"/>
<path d="M87.7166 21.9479C87.6145 22.2397 86.5348 22.1181 85.2849 22.2932C84.035 22.4683 83.004 22.8233 82.8289 22.5656C82.7511 22.4391 82.9262 22.1619 83.3152 21.8701C83.8592 21.511 84.4778 21.2805 85.1242 21.1962C85.7706 21.1119 86.4276 21.1761 87.0455 21.3838C87.5221 21.6026 87.7604 21.8069 87.7166 21.9479Z" fill="#263238"/>
<path d="M97.8969 22.2924C97.6878 22.5599 96.7443 22.414 95.6403 22.5258C94.5363 22.6377 93.622 22.9198 93.3788 22.6863C93.2669 22.5745 93.3788 22.3118 93.7727 22.0395C94.3082 21.6963 94.9187 21.4879 95.5522 21.432C96.1857 21.3761 96.8233 21.4744 97.4106 21.7185C97.8288 21.9276 97.9845 22.1611 97.8969 22.2924Z" fill="#263238"/>
<path d="M68.1763 40.6429C68.3708 37.1169 68.935 25.8289 71.2111 19.6718C73.4872 13.5147 76.6922 10.7571 79.9896 9.45859C81.235 8.92648 82.5966 8.72479 83.9428 8.87304C85.2889 9.02128 86.5741 9.51445 87.6738 10.3048C89.3663 11.5012 90.3487 15.4406 90.3487 15.4406C90.3487 15.4406 82.3484 18.203 80.1355 23.2221C77.5725 28.961 77.1153 31.7526 77.1153 31.7526L76.4247 34.8117C76.4247 34.8117 77.9275 48.1083 78.6035 50.861L67.7581 61.3466C68.1131 57.8838 67.9818 44.1641 68.1763 40.6429Z" fill="#263238"/>
<path d="M90.5859 15.4603C90.5859 15.4603 95.2208 14.4146 97.5601 19.5164C98.6203 21.8265 99.6708 28.8201 99.6708 28.8201C99.6708 28.8201 100.065 23.1056 99.452 19.9978C98.8392 16.8901 96.8208 13.0966 94.1654 11.1756C91.51 9.25451 89.4965 8.52986 85.3431 9.25938C86.5938 9.57209 87.7293 10.2352 88.6162 11.1707C89.2436 11.9051 89.5549 12.5568 90.5859 15.4603Z" fill="#263238"/>
<path d="M77.201 32.131C76.919 30.4191 74.9152 29.4853 73.5243 30.5212C72.7607 31.0854 72.2452 32.1067 72.5273 33.9256C73.286 38.7891 77.9889 37.0091 77.9743 36.8729C77.9597 36.7367 77.5317 34.1299 77.201 32.131Z" fill="#FFBE9D"/>
<path d="M76.2098 35.2634C76.2098 35.2634 76.1369 35.3363 76.0055 35.4239C75.8162 35.539 75.5906 35.5789 75.3733 35.5357C74.8335 35.4287 74.279 34.6798 74.1185 33.8141C74.0407 33.4007 74.0574 32.9751 74.1672 32.569C74.1871 32.4102 74.2459 32.2588 74.3384 32.1281C74.4308 31.9975 74.5541 31.8917 74.6973 31.8201C74.7908 31.7808 74.895 31.7748 74.9923 31.8031C75.0897 31.8315 75.1744 31.8924 75.2323 31.9757C75.3198 32.1022 75.3004 32.1994 75.3295 32.2043C75.3587 32.2092 75.4219 32.107 75.3295 31.9125C75.2841 31.7968 75.1999 31.7005 75.0912 31.6401C74.9417 31.5609 74.7671 31.5435 74.6049 31.5915C74.4117 31.6624 74.2399 31.7813 74.1054 31.937C73.971 32.0927 73.8784 32.2801 73.8365 32.4815C73.6969 32.9318 73.6701 33.4094 73.7586 33.8724C73.9386 34.8451 74.5806 35.6816 75.3149 35.774C75.4504 35.7912 75.588 35.7779 75.7176 35.735C75.8472 35.692 75.9655 35.6206 76.0639 35.526C76.2195 35.3801 76.2293 35.2682 76.2098 35.2634Z" fill="#50B5E5"/>
<path d="M81.9001 8.9229C81.9001 8.9618 82.5713 8.86453 83.6413 8.88399C84.2673 8.89627 84.8875 9.00622 85.4796 9.20984C86.1988 9.47577 86.8595 9.87878 87.425 10.3965C88.4717 11.332 89.2874 12.4972 89.8081 13.8009C90.2069 14.7736 90.2944 15.4642 90.3528 15.4545C90.3458 15.2986 90.323 15.1438 90.2847 14.9925C89.897 13.1704 88.9357 11.5204 87.5417 10.2847C86.9584 9.74428 86.2719 9.3274 85.5234 9.05907C84.9153 8.85564 84.2775 8.75536 83.6364 8.7624C83.2071 8.76222 82.7782 8.78984 82.3524 8.84508C82.1998 8.85845 82.0485 8.88448 81.9001 8.9229Z" fill="#455A64"/>
<path d="M73.103 36.1631C73.1048 36.1356 73.1048 36.1079 73.103 36.0804L73.0349 35.8616C73.0009 35.7594 72.9668 35.6378 72.923 35.5017L72.7917 35.0153C72.5266 33.9522 72.4152 32.8565 72.461 31.7617C72.5228 30.1377 72.922 28.5444 73.6331 27.0831C74.542 25.3138 75.8388 23.7727 77.4266 22.5747C78.2414 21.9458 79.0941 21.3676 79.9799 20.8433C80.8358 20.3278 81.6967 19.8998 82.4943 19.4232C83.8891 18.5722 85.2159 17.6145 86.4628 16.5586C87.5279 15.6589 88.3498 14.8856 88.8945 14.3409C89.1718 14.0685 89.3809 13.8545 89.5219 13.7038L89.6824 13.5335C89.7165 13.4946 89.7359 13.4752 89.7311 13.4703L89.6727 13.519L89.4976 13.6794L88.8556 14.3068C88.2866 14.8369 87.455 15.5956 86.3802 16.4759C85.1288 17.5143 83.8023 18.4588 82.4116 19.3016C81.6237 19.7879 80.7532 20.1916 79.8923 20.712C78.998 21.236 78.1386 21.8176 77.3196 22.4531C75.705 23.6626 74.3877 25.2245 73.4677 27.0198C72.7543 28.5016 72.3631 30.1177 72.32 31.7617C72.2865 32.8657 72.416 33.9686 72.7042 35.0348L72.8501 35.5211C72.9036 35.6573 72.9474 35.774 72.9814 35.8762L73.0689 36.095C73.0884 36.1388 73.0981 36.1631 73.103 36.1631Z" fill="#455A64"/>
<path d="M71.7649 34.4516C71.7649 34.4516 71.7649 34.4224 71.7649 34.3738L71.7358 34.1403C71.7358 33.936 71.6579 33.654 71.619 33.2503C71.5045 32.1549 71.4866 31.0515 71.5655 29.9529C71.6843 28.3259 72.0112 26.7208 72.5382 25.177C73.1965 23.2914 74.1575 21.5256 75.3833 19.9488C76.6457 18.3905 78.1189 17.0156 79.7604 15.8635C81.2194 14.7741 82.6785 13.9182 83.8408 13.1497C85.0032 12.3813 85.971 11.7928 86.6179 11.3454C86.9437 11.1314 87.1869 10.9515 87.3522 10.8299L87.5419 10.6937L87.6051 10.6402C87.6051 10.6402 87.576 10.6402 87.5322 10.6791L87.3328 10.8007L86.5789 11.287C85.9272 11.7102 84.9643 12.3084 83.7727 13.0379C82.5812 13.7674 81.1611 14.6428 79.6631 15.7322C78.0181 16.8856 76.5444 18.2659 75.2861 19.8321C74.0358 21.4239 73.058 23.2119 72.3923 25.1235C71.8591 26.6824 71.5321 28.3043 71.4196 29.948C71.352 31.0515 71.3894 32.1588 71.5315 33.2552C71.5801 33.6442 71.6482 33.9409 71.6823 34.1452C71.6823 34.2376 71.7163 34.3154 71.7309 34.3738C71.7455 34.4321 71.7601 34.4516 71.7649 34.4516Z" fill="#455A64"/>
<path d="M97.7309 53.1799C97.7309 53.1799 104 55.7284 105.201 58.9917C106.402 62.2551 115.516 89.2034 115.516 89.2034L104.938 93.2595L100.114 71.0822L97.7309 53.1799Z" fill="#455A64"/>
<path d="M65.3201 129.706C65.3201 129.706 130.004 126.735 134.065 127.805C138.126 128.875 140.553 130.922 141.36 135.791C142.167 140.659 154.637 205.158 154.637 205.158L143.296 208.494C143.296 208.494 127.382 172.164 126.706 166.085C126.03 160.006 123.788 147.545 123.788 147.545C123.788 147.545 99.1988 147.949 81.0922 147.545C62.9856 147.142 65.4174 130.382 65.4174 130.382L65.3201 129.706Z" fill="#FFBE9D"/>
<path d="M143.154 208.785L143.072 208.591C142.42 207.103 127.139 172.159 126.468 166.109C125.845 160.53 123.885 149.427 123.594 147.788C121.162 147.827 98.1237 148.168 81.0969 147.788C75.4699 147.662 71.2338 145.955 68.4957 142.721C64.3521 137.823 65.0913 130.966 65.1837 130.387L65.033 129.477H65.3053C67.951 129.356 130.081 126.516 134.128 127.586C138.67 128.787 140.834 131.155 141.603 135.761C142.4 140.566 154.734 204.481 154.88 205.128L154.919 205.342L143.154 208.785ZM123.997 147.297L124.036 147.501C124.06 147.623 126.283 160.039 126.954 166.055C127.591 171.799 142.172 205.308 143.436 208.197L154.364 204.987C153.567 200.858 141.904 140.498 141.126 135.829C140.397 131.452 138.335 129.186 134.006 128.048C130.174 127.031 70.1931 129.735 65.6068 129.944L65.6798 130.387V130.421C65.6798 130.494 64.7071 137.492 68.8799 142.414C71.5256 145.536 75.6401 147.18 81.1163 147.307C99.0089 147.706 123.555 147.307 123.803 147.307L123.997 147.297Z" fill="#50B5E5"/>
<path d="M69.6878 94.8211L71.3171 104.898C71.3171 104.898 64.2408 118.307 63.4432 129.833C63.0638 135.309 66.2056 146.524 66.2056 146.524C66.2056 146.524 91.1258 149.262 104.568 148.912L118.911 148.285L121.44 125.879L105.342 123.554L105.585 93.0216C105.585 93.0216 108.503 84.9824 108.727 82.6041C109.242 77.5851 109.028 72.5077 104.014 66.0004L97.7304 53.1804L95.6342 52.2077L96.6312 67.7366L78.5684 50.5736L69.4203 53.8564L66.8281 66.0879L69.6878 94.8211Z" fill="#455A64"/>
<g opacity="0.3">
<path d="M101 127.265C99.8277 127.469 91.3702 127.591 90.1981 127.795C89.9987 127.856 89.7889 127.876 89.5815 127.853C89.3742 127.831 89.1736 127.766 88.992 127.664C88.8456 127.525 88.7442 127.346 88.7008 127.149C88.6575 126.952 88.6742 126.747 88.7488 126.56C88.9039 126.183 89.1475 125.849 89.4589 125.587C91.5064 123.641 94.1667 122.518 96.754 121.419C97.5808 121.074 98.4757 120.719 99.3414 120.933C99.7658 121.073 100.15 121.314 100.46 121.637C100.77 121.959 100.997 122.351 101.121 122.781C101.368 123.638 101.47 124.531 101.423 125.421" fill="black"/>
</g>
<g opacity="0.3">
<path d="M70.3538 101.849C73.374 101.144 75.2707 98.1678 76.4963 95.3179C77.7219 92.4679 78.7335 89.3212 81.136 87.3564C82.8966 85.8974 85.2553 85.2554 86.7776 83.5629C87.5011 82.7339 87.9809 81.7206 88.1638 80.6356C88.3466 79.5505 88.2254 78.4359 87.8135 77.4156C87.3758 76.3748 86.4955 75.3924 85.3818 75.334C84.0686 75.2659 83.0473 76.404 82.2449 77.4496C78.5746 82.2579 75.1134 87.2186 71.8614 92.3317C70.1155 95.0795 68.3743 98.4159 69.5902 101.436" fill="black"/>
</g>
<path d="M70.3731 55.4609C70.3731 55.4609 65.2616 57.0853 63.4135 60.2903C61.5654 63.4953 58.5014 79.0583 57.7622 83.2505C57.0229 87.4428 53.4483 104.693 57.7622 107.407C62.076 110.121 67.7468 105.948 69.2253 103.463C70.7038 100.978 76.7393 88.0556 76.7393 88.0556L71.3166 83.4986C71.3166 83.4986 72.2892 71.1746 71.9342 68.5824C71.5792 65.9902 70.3731 55.4609 70.3731 55.4609Z" fill="#FFBE9D"/>
<path d="M54.3442 87.4577L66.2061 88.231L71.624 81.8696L73.122 71.8509L72.7231 52.6841C72.7231 52.6841 62.1355 55.2666 59.8448 63.3156C58.1474 69.2636 54.3442 87.4577 54.3442 87.4577Z" fill="#455A64"/>
<path d="M75.3355 64.7899C74.6546 64.6975 73.7841 65.4999 74.3628 67.4356C74.8492 69.0502 75.7635 70.6211 75.6954 71.5209C75.6273 72.4206 75.2771 74.293 75.2771 75.2657C75.2348 76.2167 75.1423 77.1647 74.9999 78.1059L66.9266 87.8328L73.9154 93.9996L79.4451 85.3136C79.4451 85.3136 81.1133 85.5908 82.0811 84.4819L83.5401 82.8137C83.5401 82.8137 87.285 81.4277 86.5214 79.4093C86.5214 79.4093 87.6303 78.354 86.6235 76.6615C86.6235 76.6615 87.1488 74.9009 86.3852 73.865C86.3852 73.865 86.3171 71.5063 85.6898 71.088C85.0624 70.6698 78.5746 70.6017 78.5746 70.6017C78.2212 69.5232 77.8138 68.4633 77.3538 67.4258C76.6438 66.2538 76.2839 64.9163 75.3355 64.7899Z" fill="#FFBE9D"/>
<path d="M78.0975 74.355C78.0975 74.3793 77.9273 74.2869 77.7766 74.0583C77.5801 73.7503 77.4943 73.3846 77.5332 73.0214C77.5721 72.6581 77.7334 72.3189 77.9906 72.0595C78.1851 71.8698 78.3504 71.8114 78.365 71.8357C78.0758 72.1859 77.8771 72.6018 77.7863 73.0467C77.7868 73.5011 77.8934 73.9491 78.0975 74.355Z" fill="#50B5E5"/>
<path d="M86.112 73.6897C85.134 73.9748 84.1278 74.1526 83.1113 74.2198C82.1033 74.3664 81.0823 74.4006 80.0668 74.322C81.0662 74.1479 82.0745 74.0294 83.087 73.9669C84.0892 73.8168 85.0992 73.7242 86.112 73.6897Z" fill="#50B5E5"/>
<path d="M86.6859 76.4704C85.8798 76.7977 85.0288 77.001 84.1618 77.0734C83.3069 77.2317 82.4332 77.2612 81.5696 77.161C81.5696 77.088 82.7174 77.0151 84.1278 76.8205C85.5381 76.626 86.6713 76.4023 86.6859 76.4704Z" fill="#50B5E5"/>
<path d="M86.5449 79.3258C85.2865 79.7117 83.9637 79.8423 82.6542 79.71C83.294 79.57 83.945 79.487 84.5995 79.462C85.2428 79.3602 85.8937 79.3147 86.5449 79.3258Z" fill="#50B5E5"/>
<path d="M80.4168 80.2019C80.4168 80.231 80.2806 80.2019 80.1152 80.1094C79.8973 79.9609 79.7442 79.7347 79.6872 79.4772C79.6249 79.2226 79.6596 78.9538 79.7845 78.7234C79.8818 78.5531 79.9888 78.4851 80.0131 78.5045C80.0374 78.524 79.8137 78.9276 79.9304 79.4188C80.0471 79.91 80.4508 80.1386 80.4168 80.2019Z" fill="#50B5E5"/>
<path d="M78.8223 77.8871C78.8223 77.9114 78.6619 77.8287 78.5111 77.6196C78.3175 77.3434 78.2063 77.0179 78.1901 76.681C78.1701 76.3432 78.2441 76.0065 78.4041 75.7083C78.5354 75.4846 78.6619 75.3873 78.6862 75.4068C78.5374 75.809 78.4553 76.2328 78.443 76.6615C78.5051 77.0873 78.633 77.5008 78.8223 77.8871Z" fill="#50B5E5"/>
<path d="M84.5502 82.3945C84.1975 82.5814 83.8101 82.694 83.4121 82.7252C83.0268 82.8361 82.6224 82.8643 82.2255 82.8079C82.5773 82.6189 82.9651 82.5062 83.3635 82.4772C83.7483 82.3635 84.1533 82.3352 84.5502 82.3945Z" fill="#50B5E5"/>
<path d="M81.4246 70.6452C81.4246 70.7181 80.4519 70.7181 79.2215 70.8397C77.991 70.9613 77.0426 71.151 77.0232 71.0829C77.7125 70.7909 78.4491 70.6261 79.1971 70.5966C79.9367 70.4808 80.6909 70.4972 81.4246 70.6452Z" fill="#50B5E5"/>
<path d="M102.779 94.024H142.98C143.689 94.024 144.37 94.3058 144.871 94.8074C145.373 95.3091 145.655 95.9894 145.655 96.6988V125.194H100.113V96.694C100.115 95.9871 100.396 95.3094 100.895 94.8091C101.395 94.3088 102.072 94.0265 102.779 94.024Z" fill="#E0E0E0"/>
<path d="M145.655 127.265H92.1567C92.1567 126.72 92.373 126.198 92.7579 125.813C93.1428 125.428 93.6648 125.212 94.2091 125.212H145.655V127.265Z" fill="#E0E0E0"/>
<path d="M143.971 96.0278H101.494V125.213H143.971V96.0278Z" fill="white"/>
<path d="M143.967 125.194C143.967 125.194 143.967 125.009 143.967 124.659C143.967 124.309 143.967 123.783 143.967 123.112C143.967 121.755 143.967 119.771 143.938 117.232C143.938 112.155 143.909 104.874 143.885 96.0082L143.987 96.1103H101.514L101.641 95.9839C101.641 106.406 101.641 116.303 101.641 125.164L101.529 125.048L132.125 125.106L140.879 125.14H143.209H143.807H144.016H143.821H143.233H140.928L132.217 125.169L101.544 125.228H101.427V125.194C101.427 116.328 101.427 106.431 101.427 96.0131V95.8866H101.553H144.026H144.128V96.0131C144.128 104.903 144.089 112.208 144.074 117.3C144.074 119.829 144.074 121.804 144.074 123.136C144.074 123.803 144.074 124.313 144.074 124.664C144.074 125.014 143.967 125.194 143.967 125.194Z" fill="#263238"/>
<path d="M145.431 125.194C145.431 125.267 133.949 125.32 119.786 125.32C105.624 125.32 94.1365 125.267 94.1365 125.194C94.1365 125.121 105.619 125.068 119.786 125.068C133.953 125.068 145.431 125.145 145.431 125.194Z" fill="#263238"/>
<path d="M122.728 121.784C128.892 121.784 133.89 116.786 133.89 110.622C133.89 104.458 128.892 99.4604 122.728 99.4604C116.564 99.4604 111.567 104.458 111.567 110.622C111.567 116.786 116.564 121.784 122.728 121.784Z" fill="#50B5E5"/>
<path d="M115.794 110.895L118.158 108.658L121.421 111.663L127.846 105.618L130.181 107.826L121.387 116.172L115.794 110.895Z" fill="white"/>
<path d="M75.0092 78.1057C75.0627 78.1495 71.7118 82.1959 67.5244 87.1371C63.3369 92.0783 59.8985 96.0469 59.845 96.0129C59.7915 95.9788 63.1424 91.9276 67.3298 86.9815C71.5172 82.0354 74.9557 78.0619 75.0092 78.1057Z" fill="#50B5E5"/>
<path d="M74.4297 71.8357C74.3204 73.2466 74.1271 74.6498 73.851 76.0377C73.6595 77.4408 73.3834 78.831 73.0242 80.2008C73.1333 78.7883 73.3266 77.3835 73.6029 75.9939C73.7975 74.593 74.0736 73.2045 74.4297 71.8357Z" fill="#263238"/>
<path d="M105.585 93.0215C105.602 92.9221 105.629 92.8245 105.663 92.7297L105.926 91.9126C106.159 91.2074 106.504 90.1861 106.898 88.9168C107.369 87.4338 107.761 85.9273 108.075 84.4035C108.467 82.543 108.642 80.6432 108.596 78.7425C108.42 75.2817 107.448 71.9081 105.755 68.8843C105.253 67.9635 104.701 67.0706 104.102 66.2094C103.897 65.903 103.722 65.6744 103.615 65.5139C103.553 65.434 103.499 65.3476 103.455 65.2562C103.529 65.3234 103.596 65.3984 103.654 65.4799C103.781 65.6355 103.97 65.8544 104.189 66.1559C104.821 66.9988 105.4 67.8809 105.921 68.7967C106.695 70.1602 107.332 71.5971 107.822 73.0863C108.432 74.9105 108.784 76.811 108.868 78.7327C108.917 80.6542 108.734 82.5745 108.323 84.4521C107.996 85.98 107.583 87.4884 107.088 88.9703C106.67 90.2348 106.3 91.2512 106.037 91.9467C105.911 92.2709 105.809 92.5384 105.731 92.7491C105.694 92.8455 105.645 92.937 105.585 93.0215Z" fill="#263238"/>
<path d="M95.2512 77.8764C95.2711 78.1029 95.2711 78.3307 95.2512 78.5573C95.2505 78.8242 95.231 79.0907 95.1929 79.3549C95.1578 79.7076 95.1042 80.0583 95.0324 80.4054C94.9545 80.8264 94.8505 81.2422 94.7211 81.6504C94.5841 82.124 94.4217 82.59 94.2348 83.0462C93.7859 84.0754 93.2283 85.0536 92.5715 85.9643C91.8982 86.8732 91.1268 87.705 90.2711 88.4446C89.896 88.765 89.5031 89.0638 89.0941 89.3395C88.7442 89.588 88.3787 89.8138 87.9998 90.0155C87.6857 90.1971 87.3609 90.3595 87.0271 90.5019C86.7881 90.6183 86.5411 90.7174 86.2879 90.7985C86.0774 90.8852 85.8592 90.952 85.6362 90.9979C85.6119 90.9444 86.5457 90.6575 87.888 89.8745C88.2551 89.6635 88.6106 89.433 88.9531 89.1839C89.3324 88.931 89.6972 88.61 90.096 88.2841C91.7717 86.8098 93.1004 84.9828 93.9867 82.9344C94.1722 82.4891 94.3345 82.0346 94.4731 81.5726C94.6075 81.1706 94.7195 80.7614 94.8086 80.347C95.2123 78.8491 95.2026 77.8764 95.2512 77.8764Z" fill="#263238"/>
<path d="M108.62 82.2973C108.592 82.2705 108.569 82.2393 108.552 82.2049L108.381 81.9082C108.221 81.6407 108.002 81.276 107.725 80.8237C107.448 80.3714 107.015 79.817 106.562 79.1847C106.11 78.5525 105.536 77.8619 104.928 77.0886C102.429 74.0343 98.7372 70.022 94.506 65.7373C90.2748 61.4526 86.3014 57.7175 83.3882 55.0378L81.4039 53.2626C80.8203 52.7471 80.3145 52.2899 79.8914 51.9398L78.9187 51.1178L78.6707 50.899C78.6387 50.8763 78.6107 50.8483 78.588 50.8163C78.6228 50.8334 78.6555 50.8547 78.6853 50.8795C78.7582 50.933 78.8458 50.9963 78.9479 51.0789L79.9498 51.8619L81.4915 53.1556C82.0897 53.6711 82.7608 54.2596 83.5001 54.9065C86.4522 57.5327 90.4353 61.263 94.686 65.5428C98.9366 69.8226 102.599 73.869 105.065 76.9573C105.668 77.7403 106.212 78.4455 106.679 79.0777L107.808 80.7507C108.065 81.2371 108.294 81.5873 108.425 81.8645L108.581 82.1563C108.613 82.2503 108.626 82.2973 108.62 82.2973Z" fill="#263238"/>
<path d="M99.1751 104.797C99.0858 104.828 98.9924 104.846 98.8979 104.85L98.1052 104.962C97.4146 105.054 96.4078 105.161 95.1871 105.273C92.7019 105.497 89.2537 105.677 85.4603 105.633C81.6668 105.589 78.204 105.312 75.7334 105.03C74.4932 104.889 73.4914 104.753 72.8153 104.641L72.0226 104.514C71.9296 104.504 71.8382 104.483 71.7502 104.451C71.8439 104.439 71.9387 104.439 72.0323 104.451L72.8299 104.534C73.5205 104.617 74.5273 104.724 75.748 104.84C78.2235 105.079 81.6619 105.327 85.4749 105.37C89.2878 105.414 92.7165 105.259 95.2017 105.084C96.4419 104.996 97.4486 104.918 98.1198 104.855L98.9174 104.792C99.0032 104.784 99.0896 104.786 99.1751 104.797Z" fill="#263238"/>
<path d="M120.239 93.9893C120.239 93.9893 128.206 90.8815 128.96 90.6335C129.713 90.3855 136.678 89.8407 136.678 89.8407L145.656 93.0652C145.656 93.0652 145.738 94.9084 143.642 94.6604C141.794 94.3483 139.972 93.8996 138.19 93.3181L136.931 94.0671L120.239 93.9893Z" fill="#FFBE9D"/>
<path d="M145.223 95.1719C145.432 95.595 145.977 95.6582 146.395 95.882C146.782 96.108 147.099 96.4365 147.311 96.8313C147.523 97.2261 147.622 97.6718 147.596 98.1191C147.526 99.0135 147.23 99.8754 146.735 100.624C146.584 100.926 146.364 101.189 146.093 101.392C145.955 101.488 145.79 101.54 145.622 101.54C145.453 101.54 145.288 101.488 145.15 101.392C145.017 101.23 144.928 101.037 144.89 100.832C144.853 100.626 144.869 100.413 144.936 100.215C145.194 98.6638 144.858 96.699 145.223 95.167" fill="#FFBE9D"/>
<path d="M154.248 202.75L154.52 203.508C154.52 203.508 169.305 204.087 170.317 206.49L144.599 215.526L141.939 206.845C146.389 207.273 150.46 206.067 154.248 202.75Z" fill="#455A64"/>
<g opacity="0.6">
<path d="M145.51 208.663C145.288 208.826 145.135 209.065 145.078 209.334C145.022 209.603 145.066 209.884 145.203 210.122C145.358 210.353 145.597 210.516 145.869 210.575C146.141 210.634 146.426 210.585 146.663 210.438C146.897 210.266 147.059 210.013 147.118 209.728C147.176 209.443 147.127 209.147 146.979 208.896C146.793 208.677 146.53 208.539 146.245 208.509C145.959 208.479 145.674 208.56 145.447 208.736" fill="white"/>
</g>
<g opacity="0.6">
<path d="M144.599 215.526L143.962 213.44L168.843 205.542C168.843 205.542 170.161 205.639 170.302 206.514L144.599 215.526Z" fill="white"/>
</g>
<path d="M154.637 203.552C154.676 203.678 154.068 203.956 153.592 204.578C153.115 205.201 152.974 205.843 152.843 205.833C152.711 205.823 152.639 205.03 153.227 204.291C153.815 203.552 154.623 203.425 154.637 203.552Z" fill="#263238"/>
<path d="M157.726 203.718C157.799 203.83 157.327 204.234 157.089 204.915C156.851 205.596 156.924 206.204 156.797 206.243C156.671 206.282 156.34 205.596 156.656 204.754C156.972 203.913 157.682 203.602 157.726 203.718Z" fill="#263238"/>
<path d="M160.391 206.413C160.289 206.481 159.904 205.926 159.973 205.114C160.041 204.302 160.546 203.835 160.634 203.918C160.721 204 160.493 204.501 160.435 205.158C160.376 205.814 160.512 206.354 160.391 206.413Z" fill="#263238"/>
</svg>
