<svg width="343" height="558" viewBox="0 0 350 689" fill="none" xmlns="http://www.w3.org/2000/svg">
<path fill-rule="evenodd" clip-rule="evenodd" d="M-421.577 175.284C-404.246 141.995 -381.13 115.002 -347.413 90.8556C-273.924 36.7365 -124.714 -11.9543 -37.1663 -32.1463C45.0131 -50.731 188.315 -73.5668 268.999 -51.5601C268.999 -51.5601 355.187 -37.2227 348.764 65.0592C348.63 71.1211 348.495 77.183 346.571 83.7807C341.362 131.506 331.189 162.652 313.724 202.004C286.22 266.44 228.027 352.108 186.061 400.803C120.98 476.491 50.7995 541.662 -37.4222 592.163C-39.2117 592.699 -39.2117 592.699 -39.2117 592.699C-132.937 650.87 -229.431 673.741 -229.431 673.741C-229.431 673.741 -238.378 676.42 -251.456 678.329C-255.035 679.4 -256.824 679.936 -258.614 680.472C-267.561 683.151 -275.27 683.452 -284.769 684.289C-413.756 702.838 -512.347 660.1 -514.075 498.036C-512.972 501.72 -504.246 322.475 -421.577 175.284Z" fill="#50B5E5"/>
</svg>
