<svg width="343" height="300" viewBox="0 0 343 558" fill="none" xmlns="http://www.w3.org/2000/svg">
<path fill-rule="evenodd" clip-rule="evenodd" d="M501.605 54.0027C536.727 67.2287 566.291 86.9511 594.295 117.54C656.812 184.031 722.994 326.349 753.508 410.854C781.785 490.222 821.591 629.766 809.389 712.503C809.389 712.503 805.459 799.786 703.143 805.639C697.108 806.23 691.074 806.821 684.293 805.699C636.288 806.234 604.149 799.858 562.991 787.223C495.729 767.621 403.717 720.088 350.354 684.245C267.428 628.68 194.334 566.795 133.646 485.244C132.9 483.532 132.9 483.532 132.9 483.532C63.9408 397.434 29.6968 304.366 29.6968 304.366C29.6968 304.366 25.9673 295.804 22.5088 283.048C21.017 279.623 20.2711 277.91 19.5252 276.198C15.7957 267.635 14.575 260.017 12.6084 250.687C-21.23 124.843 9.41405 21.8496 170.109 0.756649C166.583 2.2923 345.585 -10.4751 501.605 54.0027Z" fill="#50B5E5"/>
</svg>
