<svg width="18" height="18" viewBox="0 0 18 18" fill="none" xmlns="http://www.w3.org/2000/svg">
<path d="M15.825 9.375L16.875 10.4325L11.9775 15.375L9.375 12.75L10.425 11.6925L11.9775 13.2525L15.825 9.375ZM8.25 3C9.04565 3 9.80871 3.31607 10.3713 3.87868C10.9339 4.44129 11.25 5.20435 11.25 6C11.25 6.79565 10.9339 7.55871 10.3713 8.12132C9.80871 8.68393 9.04565 9 8.25 9C7.45435 9 6.69129 8.68393 6.12868 8.12132C5.56607 7.55871 5.25 6.79565 5.25 6C5.25 5.20435 5.56607 4.44129 6.12868 3.87868C6.69129 3.31607 7.45435 3 8.25 3ZM8.25 4.5C7.85218 4.5 7.47064 4.65804 7.18934 4.93934C6.90804 5.22064 6.75 5.60218 6.75 6C6.75 6.39782 6.90804 6.77936 7.18934 7.06066C7.47064 7.34196 7.85218 7.5 8.25 7.5C8.64782 7.5 9.02936 7.34196 9.31066 7.06066C9.59196 6.77936 9.75 6.39782 9.75 6C9.75 5.60218 9.59196 5.22064 9.31066 4.93934C9.02936 4.65804 8.64782 4.5 8.25 4.5ZM8.25 9.75C8.76 9.75 9.375 9.8175 10.0575 9.945L8.805 11.1975L8.25 11.175C6.0225 11.175 3.675 12.27 3.675 12.75V13.575H8.325L9.75 15H2.25V12.75C2.25 10.755 6.2475 9.75 8.25 9.75Z" fill="white"/>
</svg>
